<?xml version="1.0" encoding="utf-8"?>
<!-- Generator: Adobe Illustrator 15.1.0, SVG Export Plug-In . SVG Version: 6.00 Build 0)  -->
<!DOCTYPE svg PUBLIC "-//W3C//DTD SVG 1.1//EN" "http://www.w3.org/Graphics/SVG/1.1/DTD/svg11.dtd">
<svg version="1.1" id="Layer_1" xmlns="http://www.w3.org/2000/svg" xmlns:xlink="http://www.w3.org/1999/xlink" x="0px" y="0px"
	 width="720px" height="720px" viewBox="0 0 720 720" enable-background="new 0 0 720 720" xml:space="preserve">
<g>
	<g>
		<g>
			<path fill="#FFF200" stroke="#231F20" stroke-width="2" stroke-miterlimit="10" d="M383.66,147.819
				c19.374-9.964,25.564-31.488,10.983-48.308c-10.617-13.734-31.257-12.875-32.376-32.618c0.16-17.434,20.704-34.832,28.676-49.047
				c-1.043,10.382-0.306,28.074,3.394,38.848c8.55,20.912,25.086,20.812,40.444,34.941c25.848,24.915,6.843,43.726-13.575,64.071
				L383.66,147.819z"/>
			<path fill="#FFF200" stroke="#231F20" stroke-width="2" stroke-miterlimit="10" d="M486.655,187.034
				c21.784,0.29,37.352-15.816,32.362-37.511c-2.93-17.109-21.562-26.032-13.29-43.992c8.32-15.322,34.623-21.051,48.335-29.864
				c-5.792,8.679-13.443,24.648-15.23,35.898c-2.255,22.479,12.393,30.15,19.33,49.832c11.14,34.13-14.469,41.827-42.048,50.215
				L486.655,187.034z"/>
			<path fill="#FFF200" stroke="#231F20" stroke-width="2" stroke-miterlimit="10" d="M558.637,272.962
				c18.739,11.114,40.264,4.916,46.758-16.378c5.99-16.292-5.711-33.316,10.416-44.759c14.853-9.132,40.509-0.982,56.788-1.784
				c-9.348,4.633-23.943,14.663-31.102,23.521c-13.163,18.361-4.296,32.312-8.094,52.832c-7.364,35.139-33.398,29.042-61.487,22.562
				L558.637,272.962z"/>
			<path fill="#FFF200" stroke="#231F20" stroke-width="2" stroke-miterlimit="10" d="M578.93,384.1
				c10.865,18.885,32.655,24.059,48.771,8.7c13.226-11.248,11.393-31.825,31.064-33.869c17.42-0.661,35.762,19.04,50.336,26.337
				c-10.417-0.555-28.056,1.014-38.646,5.214c-20.482,9.528-19.608,26.035-32.998,42.042c-23.672,26.992-43.356,8.893-64.64-10.549
				L578.93,384.1z"/>
			<path fill="#FFF200" stroke="#231F20" stroke-width="2" stroke-miterlimit="10" d="M531.753,502.312
				c-0.988,21.766,14.61,37.84,36.455,33.548c17.194-2.381,26.708-20.718,44.394-11.869c15.049,8.805,19.932,35.276,28.302,49.263
				c-8.489-6.068-24.205-14.225-35.393-16.375c-22.397-2.972-30.533,11.422-50.424,17.726
				c-34.471,10.041-41.346-15.803-48.841-43.635L531.753,502.312z"/>
			<path fill="#FFF200" stroke="#231F20" stroke-width="2" stroke-miterlimit="10" d="M420.447,578.266
				c-13.769,16.886-10.832,39.089,9.265,48.67c15.222,8.342,33.793-0.704,42.717,16.945c6.83,16.039-5.037,40.2-6.658,56.419
				c-3.196-9.931-10.945-25.852-18.647-34.248c-16.206-15.738-31.32-9.036-51.049-15.838
				c-33.658-12.493-23.768-37.337-13.189-64.152L420.447,578.266z"/>
			<path fill="#FFF200" stroke="#231F20" stroke-width="2" stroke-miterlimit="10" d="M299.019,578.742
				c-20.579,7.158-29.722,27.602-17.632,46.3c8.587,15.084,29.144,17.117,27.49,36.826c-2.597,17.237-25.369,31.591-35.253,44.551
				c2.486-10.132,4.233-27.757,2.079-38.94c-5.546-21.898-21.93-24.116-35.163-40.252c-22.11-28.288-0.661-44.253,22.408-61.543
				L299.019,578.742z"/>
			<path fill="#FFF200" stroke="#231F20" stroke-width="2" stroke-miterlimit="10" d="M186.602,504.24
				c-20.964-5.937-40.178,5.569-40.996,27.819c-1.616,17.282,14.058,30.732,1.404,45.934
				c-12.015,12.633-38.902,11.333-54.431,16.283c7.845-6.876,19.384-20.313,24.033-30.712c8.014-21.122-4.135-32.333-5.723-53.14
				c-1.893-35.854,24.836-36.636,53.647-37.568L186.602,504.24z"/>
			<path fill="#FFF200" stroke="#231F20" stroke-width="2" stroke-miterlimit="10" d="M137.973,386.991
				c-13.339-17.227-35.631-19.382-49.505-1.97c-11.564,12.944-6.946,33.074-26.155,37.787
				c-17.167,3.026-38.026-13.991-53.458-19.231c10.395-0.873,27.66-4.828,37.575-10.434c18.993-12.23,15.878-28.467,26.96-46.147
				c19.774-29.967,41.74-14.72,65.474,1.644L137.973,386.991z"/>
			<path fill="#FFF200" stroke="#231F20" stroke-width="2" stroke-miterlimit="10" d="M164.674,260.48
				c-2.313-21.664-20.159-35.198-41.107-27.654c-16.636,4.949-23.269,24.508-42.093,18.436
				c-16.203-6.431-25.026-31.862-35.417-44.422c9.307,4.713,26.08,10.406,37.461,10.837c22.588-0.445,28.454-15.9,47.169-25.136
				c32.556-15.133,43.257,9.375,54.872,35.758L164.674,260.48z"/>
			<path fill="#FFF200" stroke="#231F20" stroke-width="2" stroke-miterlimit="10" d="M255.908,171.938
				c10.641-19.015,3.908-40.375-17.544-46.334c-16.436-5.586-33.158,6.539-45.003-9.3c-9.499-14.617-1.992-40.468-3.207-56.721
				c4.868,9.225,15.262,23.569,24.297,30.504c18.686,12.699,32.409,3.482,53.018,6.771c35.312,6.481,29.866,32.662,24.085,60.903
				L255.908,171.938z"/>
		</g>
		<g>
			<path fill-rule="evenodd" clip-rule="evenodd" fill="#FFF200" stroke="#231F20" stroke-width="2" stroke-miterlimit="10" d="
				M464.554,173.942c-9.705-5.898-18.104-16.789-12.575-28.316c6.849-5.764,14.008-8.557,19.17-16.204
				c6.247-9.259,4.256-18.838,5.023-27.659c0.304,0.247,0.608,0.493,0.912,0.74c5.069,4.289,10.631,18.638,12.315,25.836
				c0.458,1.959,1.294,3.069,1.26,4.042c-0.53,14.916-22.539,18.208-25.58,30.651C464.101,167.017,466.542,171.098,464.554,173.942"
				/>
			<path fill-rule="evenodd" clip-rule="evenodd" fill="#FFF200" stroke="#231F20" stroke-width="2" stroke-miterlimit="10" d="
				M547.194,252.08c-6.699-9.172-10.28-22.453-0.752-30.975c8.536-2.695,16.219-2.529,23.923-7.608
				c9.321-6.152,11.156-15.763,15.251-23.613c0.187,0.343,0.373,0.688,0.557,1.032c3.037,5.907,2.669,21.292,1.46,28.583
				c-0.327,1.986,0.019,3.332-0.387,4.216c-6.214,13.573-27.804,8.167-35.386,18.491
				C549.429,245.511,550.121,250.217,547.194,252.08"/>
			<path fill-rule="evenodd" clip-rule="evenodd" fill="#FFF200" stroke="#231F20" stroke-width="2" stroke-miterlimit="10" d="
				M579.367,362.548c-0.884-11.324,3.048-24.506,15.628-26.754c8.682,2.19,15.131,6.368,24.355,6.09
				c11.163-0.34,17.771-7.555,25.38-12.084c-0.022,0.39-0.045,0.781-0.066,1.171c-0.521,6.621-8.912,19.518-13.771,25.09
				c-1.322,1.516-1.734,2.844-2.546,3.386c-12.414,8.286-27.946-7.653-39.821-2.849
				C584.724,358.133,582.838,362.498,579.367,362.548"/>
			<path fill-rule="evenodd" clip-rule="evenodd" fill="#FFF200" stroke="#231F20" stroke-width="2" stroke-miterlimit="10" d="
				M554.052,469.289c6.43-9.358,17.777-17.14,28.973-10.976c5.372,7.161,7.76,14.462,15.108,20.046
				c8.896,6.755,18.569,5.303,27.334,6.563c-0.261,0.29-0.525,0.579-0.79,0.869c-4.566,4.82-19.199,9.575-26.483,10.851
				c-1.981,0.349-3.136,1.118-4.106,1.033c-14.866-1.364-16.923-23.522-29.174-27.257
				C560.992,469.224,556.779,471.434,554.052,469.289"/>
			<path fill-rule="evenodd" clip-rule="evenodd" fill="#FFF200" stroke="#231F20" stroke-width="2" stroke-miterlimit="10" d="
				M460.893,562.79c10.486-4.361,24.235-4.727,30.285,6.53c0.619,8.935-1.346,16.36,1.788,25.04
				c3.796,10.505,12.705,14.543,19.377,20.362c-0.378,0.104-0.757,0.2-1.136,0.304c-6.451,1.564-21.319-2.4-28.129-5.285
				c-1.852-0.785-3.239-0.768-4.01-1.366c-11.733-9.224-1.418-28.941-9.674-38.735C466.755,566.507,462.018,566.069,460.893,562.79"
				/>
			<path fill-rule="evenodd" clip-rule="evenodd" fill="#FFF200" stroke="#231F20" stroke-width="2" stroke-miterlimit="10" d="
				M325.983,585.375c11.324,0.835,23.763,6.71,24.085,19.482c-3.474,8.257-8.578,13.996-9.693,23.159
				c-1.35,11.086,4.782,18.709,8.116,26.91c-0.387-0.074-0.768-0.16-1.149-0.238c-6.467-1.513-17.95-11.759-22.726-17.401
				c-1.299-1.536-2.547-2.146-2.963-3.026c-6.317-13.523,11.783-26.474,8.829-38.936
				C329.538,591.338,325.507,588.809,325.983,585.375"/>
			<path fill-rule="evenodd" clip-rule="evenodd" fill="#FFF200" stroke="#231F20" stroke-width="2" stroke-miterlimit="10" d="
				M217.621,536.546c7.464,8.561,12.169,21.489,3.412,30.792c-8.278,3.423-15.943,3.911-23.181,9.639
				c-8.759,6.929-9.764,16.659-13.167,24.835c-0.219-0.326-0.432-0.654-0.647-0.982c-3.532-5.623-4.485-20.98-3.909-28.352
				c0.158-2.008-0.3-3.316,0.024-4.237c5.025-14.052,26.999-10.521,33.667-21.456C215.954,543.284,214.866,538.653,217.621,536.546"
				/>
			<path fill-rule="evenodd" clip-rule="evenodd" fill="#FFF200" stroke="#231F20" stroke-width="2" stroke-miterlimit="10" d="
				M144.391,420.967c2.956,10.965,1.52,24.647-10.432,29.171c-8.94-0.552-16.042-3.474-25.059-1.499
				c-10.911,2.389-16.08,10.695-22.721,16.548c-0.054-0.385-0.103-0.777-0.153-1.162c-0.709-6.605,5.166-20.827,8.916-27.198
				c1.021-1.734,1.185-3.113,1.879-3.797c10.678-10.427,28.88,2.379,39.667-4.528C139.94,426.292,140.994,421.652,144.391,420.967"
				/>
			<path fill-rule="evenodd" clip-rule="evenodd" fill="#FFF200" stroke="#231F20" stroke-width="2" stroke-miterlimit="10" d="
				M150.918,288.234c-3.755,10.719-12.668,21.197-25.088,18.178c-7.064-5.506-11.276-11.929-19.83-15.393
				c-10.352-4.194-19.311-0.26-28.098,0.819c0.175-0.35,0.357-0.698,0.534-1.046c3.146-5.849,16.027-14.264,22.722-17.405
				c1.821-0.855,2.735-1.9,3.693-2.072c14.702-2.574,22.488,18.278,35.289,18.671C144.239,290.113,147.727,286.88,150.918,288.234"
				/>
			<path fill-rule="evenodd" clip-rule="evenodd" fill="#FFF200" stroke="#231F20" stroke-width="2" stroke-miterlimit="10" d="
				M226.104,190.18c-9.063,6.846-22.286,10.636-30.956,1.246c-2.835-8.495-2.785-16.178-7.99-23.799
				c-6.298-9.224-15.937-10.907-23.854-14.874c0.34-0.196,0.684-0.385,1.024-0.577c5.857-3.13,21.244-3.005,28.556-1.913
				c1.991,0.298,3.332-0.067,4.224,0.321c13.669,5.997,8.608,27.671,19.048,35.085C219.5,188.046,224.197,187.286,226.104,190.18"/>
			<path fill-rule="evenodd" clip-rule="evenodd" fill="#FFF200" stroke="#231F20" stroke-width="2" stroke-miterlimit="10" d="
				M349.076,145.203c-11.272,1.38-24.614-1.972-27.407-14.442c1.809-8.771,5.703-15.395,5.02-24.598
				c-0.824-11.139-8.319-17.429-13.179-24.829c0.393,0.001,0.785,0.01,1.176,0.015c6.637,0.229,19.886,8.053,25.667,12.664
				c1.572,1.255,2.915,1.61,3.491,2.395c8.821,12.044-6.426,28.258-1.111,39.907C344.432,140.046,348.88,141.741,349.076,145.203"/>
		</g>
		<g>
			<path fill-rule="evenodd" clip-rule="evenodd" fill="#FFF200" stroke="#231F20" stroke-width="2" stroke-miterlimit="10" d="
				M523.375,293.858c-5.669-2.374-13.176-5.043-19.926-5.211c-5.232-0.142-10.327,1.57-14.923,2.726
				c-4.666,1.204-9.163,2.507-13.43,4.24c2.586,3.555,6.373,6.73,9.95,9.948c3.597,3.243,7.348,6.441,10.706,9.711
				c-0.402,1.253-0.624,2.699-0.991,3.972c1.045,0.292,1.816,0.813,2.219,1.76c-1.158,2.322-2.318,4.643-3.478,6.962
				c-0.665-0.492-1.333-0.993-1.726-1.749c-0.67,0.852-1.468,2.845-2.488,2.481c1.202-4.166,2.717-8.049,3.479-12.69
				c-5.73-6.183-12.794-11.772-19.421-16.653c-1.087-0.832-2.276-1.066-3.487-1.751c-4.447-2.561-8.599-6.328-12.929-9.452
				c-13.163-9.525-25.955-19.755-39.085-28.877c-3.571-6.841-6.745-14.51-10.683-21.885c-3.785-7.131-7.104-15.419-12.19-20.65
				c-4.88-5.027-12.136-7.843-20.166-9.713c-3.029-1.997-6.36-3.859-10.207-5.973c-2.607-1.441-8.142-5.09-10.939-5.469
				c-4.005-0.564-9.291,0.287-13.929,0.496c-8.479,0.385-18.29,1.183-25.628-0.262c-1.421-0.284-2.583-1.32-3.75-1.726
				c-3.711-1.327-7.579-1.018-11.938-1.513h-2.479c-18.734,0.594-29.44,6.153-34.611,19.157c-0.726,1.894-0.847,4.213-1.985,6.232
				c-1.116,1.964-4.479,3.127-3.981,6.225c-10.887,1.636-20.704,6.216-21.907,16.918c-0.364,3.212,0.188,6.558,0.521,9.707
				c0.243,2.396,1.547,7.033,1.234,8.954c-0.282,1.807-4.198,3.6-3.981,5.735c0.229,2.416,3.674,1.991,5.967,2.989
				c1.947,0.828,2.603,2.223,3.741,2.724c2.104,4.45-0.022,6.389-2.246,9.473c-1.263,1.726-2.516,3.359-3.481,4.714
				c-2.273,3.239-5.501,7.125-6.476,10.205c-0.514,1.66,0.267,3.032-1.25,4.736c-3.054-5.33-4.312-9.686-7.205-14.941
				c-2.202-3.989-6.374-11.091-10.206-11.937c-4.616-1.046-10.757,0.206-14.68,0.493c-4.503,0.329-9.949,0.163-13.692,1.73
				c-5.764,2.436-8.291,12.69-9.194,19.42v4.736c0.527,20.494,3.745,43.204,13.671,55.476c1.063,1.325,2.417,2.961,3.745,3.993
				c1.653,1.286,5.064,3.655,6.958,3.99c2.111,0.324,5.072-0.71,7.721-1.255c8.104-1.664,14.565-3.625,20.656-6.47
				c5.641-8.171,6.966-22.856,5.469-36.588c1.284-0.03,1.966,0.513,3.249,0.513v-1.258l0.735-0.993
				c-0.755-0.495-1.634-0.847-2.23-1.495c-0.096-0.991,0.57-1.244,0.5-2.24c6.086-1.596,12.34,0.61,18.409,1.249
				c0.16,1.893,0.799,3.34,0.987,5.239c-2.393-0.026-4.169-0.67-6.471-0.768v1.237l-0.752,0.995
				c3.24,1.352,8.339,0.801,11.203,2.508c0.735,1.712-1.424,2.297-2.485,2.99c-3.081,1.92-8.998,4.66-10.71,7.198
				c-5.158,7.721,7.469,8.388,13.457,9.716c8.996,1.986,16.961,3.175,23.877,5.728c-1.826,2.772-1.323,6.852-2.23,10.445
				c-0.658,2.653-3.67,5.212-1.253,7.96c-0.925,2.299-1.33,5.164-1.983,7.722c-0.174,1.4,1.629,0.851,1.748,1.992
				c-0.241,2.365-1.256,4.444-0.994,6.701c0.165,1.658,1.707,2.768,2.229,4.739c0.47,1.793-0.145,4.088,0.254,5.968
				c0.763,3.671,5.519,5.684,3.226,10.206c0.687,2.223,2.961,2.865,4.239,4.478c-0.234,5.279,2.176,7.963,5.707,9.453
				c0.902,1.586,1.018,3.687,2.018,5.23c0.687,1.097,2.551,1.473,3.717,2.488c1.702,1.471,1.85,4.143,2.983,5.232
				c0.969,0.905,2.509,0.191,3.738,1c1.873,1.203,1.73,3.812,3.482,4.979c1.186,0.304,2.659,0.327,3.722,0.726
				c1.326,0.598,1.114,2.721,2.512,3.243c3.907-0.897,5.942,0.59,7.458,2.731c3.087-1.286,5.688,2.624,8.7,2.503
				c2.004-0.091,2.905-1.705,4.235-1.253c1.941,0.66,1.54,4.289,4.244,3.487h0.229c0.425-0.573,1.895-0.1,2.755-0.246
				c0.613-0.206-0.293-1.966,0.727-1.744c1.214-0.123,2.916,0.255,3.742-0.244c1.847,4.101,7.633,0.62,9.956-0.756
				c1.541,0.613,2.248,1.255,3.738,1.255c2.939-0.039,4.784-3.888,7.961-2.254c2.299-2.084,5.084-3.688,6.206-6.958
				c4.593-0.48,8.76-4.734,12.455-8.218c6.445-6.092,10.731-12.865,14.193-21.653c2.32-5.967,5.282-11.889,3.716-18.896
				c0.495-0.662,2.157-0.172,2.252-1.264c-0.168-2.438-3.147-4.233-2.75-6.465c0.284-1.49,2.088-0.965,1.987-2.976
				c-1.724-1.094-1.517-4.126-2.715-5.737c1.034-1.848-0.073-3.902-0.268-5.964c4.309-0.025,8.95-1.525,11.707,0.991
				c6.104-2.842,12.311-5.588,18.899-7.965c-0.222,10.783,3.509,16.517,12.697,17.181c9.16,0.659,20.269-3.32,27.38-4.74
				c4.049,4.076,7.905,7.203,14.186,8.719c5.876,1.419,12.149,3.506,19.397,3.476c26.362-0.067,46.922-17.687,48.276-42.037
				C556.413,316.979,541.512,301.487,523.375,293.858 M228.973,307.31c-0.491-2.838,1.541-3.097,2.012-4.993
				c0.241,0,0.289,0.211,0.502,0.262l0.613-0.877l0.877-0.622v-0.491c1.136,0.162,1.54-0.454,1.992-0.998
				c-0.123-0.878-1.093-0.498-0.501-1.491c0.78-0.664,1.917,0.495,2.494-0.497c-0.271-0.671-1.522-0.312-1.501-1.255
				c0.55-1.164,1.304-0.926,2.489-0.499c0.215-1.401-1.231-1.521-0.498-2.724c0.854-0.21,0.954,0.351,1.727,0.236
				c0.551-0.828-1.014-1.277,0-2.22c0.713-0.219,0.644,0.343,1.262,0.231c0.396-0.231,0.255-1.041,0.493-1.49
				c2.203,0.13,4.002-0.148,5.971-0.238c0.187,3.96,1.153,7.122,0.994,11.435c-0.358,0.146-0.613,0.379-0.764,0.768l0.643,1.019
				l-0.135,1.201c1.014,0.167,1.421-0.237,2.243-0.237C244.87,306.91,235.647,311.175,228.973,307.31 M242.662,286.4
				c1.636,0.729,0.832-0.621,1.756-1.232c1.093,0.071,0.947,1.369,1.483,1.99c-0.515,0.616-1.719,0.59-2.744,0.73
				C243.023,287.364,242.547,287.18,242.662,286.4 M252.372,311.794c-1.866-0.316-3.741-0.599-5.723-0.756
				c1.487-0.766,3.684-0.788,5.489-1.238C251.949,310.727,252.543,310.865,252.372,311.794 M252.138,240.875
				c-4.853,2.414-8.146,6.437-6.236,12.431c0.343,1.025,1.169,2.153,1.233,3.223c0.15,2.037-1.671,3.882-1.486,5.728
				c-1.115,0.222-2.224,0.427-3.225,0.766c-0.567,0.091-0.089,1.204-0.257,1.725c-1.495-0.308-2.063-1.584-2.988-2.49
				c0.024-7.127-2.131-13.826-1.727-20.148c0.567-9.26,8.578-12.701,17.674-13.928h0.232
				C255.595,231.615,253.252,236.988,252.138,240.875 M412.374,258.285c0.399,0.523,0.831,1.016,0.995,1.749
				c-0.567,0.073-0.923,0.377-1.729,0.238C411.572,259.3,412.161,258.993,412.374,258.285 M384.024,213.731
				c3.529,1.674,9.69,7.532,11.934,10.957c2.376,3.611,4.079,8.59,6.232,12.938c2.225,4.581,4.785,8.766,5.968,13.192
				c3.505,13.244-8.904,11.708-20.91,11.708c-5.992,0-11.921,0.496-16.682,0.23c-0.424-0.613-0.236-3.172-0.49-4.209
				c-1.569-6.441-9.525-11.564-16.679-9.215c-1.731,0.564-3.412,2.031-4.714,3.222c-1.21,1.11-2.041,3.244-4.239,3.485
				c3.978-14.689,8.43-28.883,11.207-44.797C365.213,211.265,377.061,210.434,384.024,213.731 M339.474,263.021
				c-0.858-0.075-2.022,0.188-2.494-0.265c2.203-17.693,9.194-32.774,11.703-51.019c-0.217-1.447,2.036-0.427,2.982-0.732
				C349.183,229.648,342.717,244.595,339.474,263.021 M359.123,202.054c1.997,1.656,4.743,2.558,6.468,4.47
				c-2.88,0.077-5.585-0.049-8.191-0.26C357.774,204.658,358.679,203.562,359.123,202.054 M353.661,199.071
				c0.635,0.826,1.797,1.177,2.485,1.983c-0.38,1.854-1.115,3.369-1.985,4.723c-11.992,0.771-20.28-4.275-29.871-6.706
				C333.855,198.286,343.731,199.354,353.661,199.071 M332.509,205.271c-3.483,0.758-7.992,0.358-8.458-2.719
				C326.793,203.523,329.947,204.088,332.509,205.271 M324.544,210.25c7.056-0.096,13.862,0.072,20.403,0.494
				c-0.6,10.157-3.821,18.069-5.972,27.144c-1.705,7.225-3.299,14.375-5.97,20.889c-2.155-13.26-2.841-28.016-15.422-30.855
				c-0.309-3.513-1.849-7.754-0.495-10.949C317.939,214.935,323.341,212.352,324.544,210.25 M328.761,256.792
				c-6.084-5.595-7.932-15.442-9.947-25.129C326.992,235.166,328.081,245.795,328.761,256.792 M311.854,226.187
				c-0.932,0-1.457-0.379-1.988-0.757c-0.025-1.258,0.849-1.611,1.227-2.486C312.329,223.036,311.686,225.027,311.854,226.187
				 M313.081,230.169c1.472,5.846,2.966,11.652,4.008,17.901c-2.749-2.484-2.684-7.029-4.477-10.183
				c-1.4-2.393-3.747-2.676-5.731-4.501c0.046-1.583,0.708-2.58,0.729-4.21C309.723,229.217,311.144,229.953,313.081,230.169
				 M273.527,212.001c5.259-4.549,10.75-9.498,16.411-13.931c2.983,0.33,6.991,0.472,10.475,0.735
				c3.334,0.238,7.339-0.024,10.186,0.756c4.304,1.163,7.06,5.592,10.464,7.206c-2.103,1.275-4.479,2.512-5.982,4.474
				c-1.427,1.895-1.92,4.664-3.486,6.487c-0.753,0.879-2.017,1.214-2.729,1.998c-1.277,1.371-1.512,2.886-2.743,4.215
				c-7.915-6.685-23.17-6.02-37.073-6.701C269.266,214.679,271.847,213.445,273.527,212.001 M267.559,220.713
				c14.54,0.055,29.463-0.283,37.066,6.708c0.124,2.278-0.831,3.505-1.729,4.736c-3.079-0.332-3.738-3.058-5.498-4.736
				c-8.993-0.171-18.068-2.327-26.121,0c0.424,1.964-1.396,5.634-0.73,8.708c0.305,1.403,1.105,2.258,1.99,3.25
				c0.022,0.755-0.789,0.706-0.5,1.733c0.734,2.082,3.641,1.988,3.741,4.732c-2.7-1.467-6.257-2.061-8.975-3.48
				c2.321-3.648-1.167-5.043-4.973-4.737C263.674,231.923,265.782,226.469,267.559,220.713 M308.865,380.956
				c-0.711-6.047,1.048-11.686,2.729-16.158c4.141,2.412,7.972,5.121,11.959,7.7C325.214,380.956,315.452,379.963,308.865,380.956
				 M322.297,405.606c-4.528-3.853-8.93-7.814-10.945-14.182c4.695-1.871,14.358-6.801,16.677-0.765
				C330.142,396.152,323.126,400.826,322.297,405.606 M318.814,356.579c2.988-3.483,9.524-4.736,15.684-4.24
				c-0.117,3.621,0.141,6.847,0.237,10.206c-1.591,0.712-2.985,1.666-4.717,2.253C326.586,361.747,321.324,360.535,318.814,356.579
				 M332.244,410.589c1.855-6.041,2.04-16.638,9.709-15.946c1.778,4.881,3.626,9.641,5.243,14.686
				C343.855,411.345,336.98,411.507,332.244,410.589 M356.636,400.873c-3.925-1.396-3.687-6.937-5.961-9.946
				c2.227-2.418,4.596-4.696,6.207-7.724c1.54-0.044,2.463,0.545,4.004,0.498C360.977,389.953,360.337,397.601,356.636,400.873
				 M398.187,353.096c-2.201-8.742-7.202-14.706-12.67-20.158c-0.045-0.779,0.59-1.389,0-1.985
				c-5.731-7.719-17.577-12.25-28.377-15.681c-3.762-1.21-7.414-3.034-10.944-3.744c-2.484-0.468-5.353-0.306-7.953-0.49
				c-13.745-0.982-21.892,3.569-31.13,8.707c-3.053,1.714-6.483,3.061-7.693,5.235c-3.023,1.703-5.62,4.693-8.221,7.702
				c-2.411,2.792-5.684,5.945-6.959,8.952c-0.364,0.857-0.165,1.658-0.266,2.512c-9.31-1.348-18.592-3.292-27.854-4.998
				c-2.987-0.521-6.204-0.662-8.72-2.228c2.989-3.416,7.462-5.307,11.206-7.958c1.921,5.736,7.299,8.288,13.933,10.443
				c2.312,0.759,6.015,2.7,7.715,2.486c1.329-0.162,3.312-3.22,4.971-5.232c7.45-9.07,15.823-18.521,27.857-23.136
				c6.849-2.61,14.644-4.862,24.158-4.225c16.019,1.065,33.215,5.067,42.281,12.934c3.371,2.912,6.75,7.126,9.71,11.208
				c4.104,5.633,7.584,10.868,9.455,18.403c3.718-0.878,6.753-1.02,10.707-1.734c0.146,2.251,0.574,4.239,0.501,6.71
				C405.768,355.815,402.502,353.946,398.187,353.096 M368.347,292.631c-15.565-9.267-31.008-18.737-46.049-28.374
				c1.852-0.382,3.127-1.359,4.477-2.232c30.417,19.782,60.257,40.103,90.571,59.973
				C401.738,313.093,384.708,302.365,368.347,292.631 M432.533,351.843c-5.068,2.815-9.262,6.124-16.41,6.96
				c-0.172-3.743-1.095-6.699-1.26-10.447c7.316-0.796,15.825-2.958,22.902-3.971c1.998-0.285,3.44,1.014,5.211,1.257
				C439.808,348.048,436.163,349.828,432.533,351.843 M441.249,372.994c-3.599-3.103-5.731-14.164-0.995-17.667
				c5.352,2.131,11.743,3.196,17.905,4.47c-0.191,4.194,0.384,7.605,0.261,11.702C453.307,372.498,447.481,373.922,441.249,372.994
				 M500.727,314.275c0.282,2.959,0.945,5.517,0.994,8.714c-0.783-0.467-1.422-1.087-1.755-1.985
				c0.193-0.735,0.074-1.777,0.761-2.007C499.809,318.087,497.933,314.562,500.727,314.275 M487.037,338.412
				c-0.242-2.25,0.351-3.626,1.255-4.739c1.635,1.287,2.869,2.943,3.714,4.975C490.802,338.131,488.644,338.556,487.037,338.412
				 M502.716,357.568c-4.597-0.872-9.878-3.24-12.694-6.719c1.302-4.949,7.721-1.021,12.2-1.233
				C502.856,351.815,504.685,355.731,502.716,357.568 M513.92,332.938c-0.31-1.13,0.882-0.779,0.999-1.491l-0.482-1.082
				l-0.281-1.165c-0.826,0.07-1.705,0.904-2.486,0.256c-0.521-0.515,0.312-0.965,0.494-1.49l-0.985-0.763l-0.744-0.986
				c-2.079,1.16-4.024-0.78-5.967-1.237c-0.209-3.62-0.518-7.129-0.761-10.706c6.451,0.521,10.547,3.41,13.928,6.962l0.762,0.996
				l0.739,1.001c0.895-0.833,2.082,0.825,1.487,1.485l0.878,0.621l0.621,0.878c2.005,1.16,2.579,3.741,2.979,6.465
				C522.161,332.139,517.52,333.504,513.92,332.938 M516.146,354.328c-0.547-2.915-0.499-6.444-0.499-9.943
				c2.587,0.827,4.644,2.151,6.971,3.24C521.356,350.728,518.798,352.595,516.146,354.328 M525.1,340.405
				c-3.406-0.548-6.608-1.354-8.953-2.986c2.651-0.664,7.315-2.654,9.446-0.759C525.742,338.221,525.219,339.103,525.1,340.405"/>
		</g>
		<g>
			<path fill="#FFF200" stroke="#231F20" stroke-width="2" stroke-miterlimit="10" d="M208.811,489.064
				c-0.199-0.199-0.365-0.408-0.497-0.63c-0.133-0.221-0.265-0.441-0.398-0.663c-0.132-0.221-0.243-0.441-0.331-0.662
				c-0.133-0.221-0.244-0.453-0.332-0.696c-0.089-0.242-0.177-0.475-0.265-0.696c-0.089-0.221-0.166-0.452-0.232-0.695
				s-0.122-0.475-0.166-0.696c-0.044-0.088-0.078-0.188-0.099-0.298c-0.023-0.11-0.033-0.232-0.033-0.365
				c-0.044-0.088-0.066-0.188-0.066-0.298s0-0.232,0-0.364c-0.044-0.089-0.066-0.188-0.066-0.299c0-0.109,0-0.231,0-0.364
				c0-0.088,0-0.154,0-0.199c0-0.043,0-0.109,0-0.198c0-0.044,0-0.1,0-0.166s0-0.121,0-0.166c0-0.221,0-0.44,0-0.662
				c0-0.221,0.022-0.464,0.066-0.729c0-0.221,0.022-0.441,0.066-0.663c0.043-0.22,0.088-0.44,0.132-0.662
				c0.088-0.486,0.188-0.938,0.298-1.359c0.11-0.419,0.254-0.85,0.431-1.292c0.176-0.441,0.341-0.861,0.497-1.26
				c0.154-0.397,0.32-0.772,0.497-1.126c0.176-0.354,0.364-0.718,0.563-1.094c0.199-0.375,0.387-0.718,0.563-1.027
				c0.088-0.176,0.176-0.342,0.265-0.497c0.088-0.154,0.199-0.299,0.332-0.431c0.088-0.177,0.176-0.332,0.265-0.464
				c0.088-0.133,0.176-0.266,0.265-0.398c0.176-0.265,0.342-0.519,0.497-0.762c0.154-0.242,0.32-0.453,0.497-0.63
				c0.176-0.221,0.332-0.397,0.464-0.53s0.221-0.242,0.265-0.331c0.088-0.088,0.176-0.199,0.265-0.332c0.176,0,0.353,0,0.53,0
				c0.221,0,0.464,0,0.729,0s0.597,0,0.994,0c0.353,0,0.729,0,1.127,0c0.397,0,0.817,0,1.259,0c0.397,0,0.828,0,1.292,0
				c0.464,0,0.917,0,1.358,0c0.221,0,0.419,0,0.597,0c0.176,0,0.375,0,0.596,0c0.176,0,0.365,0,0.563,0s0.386,0,0.563,0
				c0.397,0,0.784,0,1.16,0c0.375,0,0.74,0,1.094,0c0.353,0,0.673,0,0.961,0c0.287,0,0.519,0,0.696,0c0.22,0,0.408,0,0.563,0
				c0.154,0,0.276,0,0.365,0c-0.397,0.62-0.773,1.227-1.127,1.823c-0.354,0.597-0.663,1.16-0.928,1.69
				c-0.31,0.574-0.575,1.116-0.795,1.623c-0.222,0.509-0.442,1.006-0.663,1.491c-0.177,0.487-0.354,0.961-0.53,1.426
				c-0.177,0.464-0.31,0.938-0.398,1.425c-0.089,0.442-0.155,0.873-0.199,1.292c-0.044,0.421-0.066,0.829-0.066,1.227
				c0,0.31,0.01,0.607,0.033,0.895c0.022,0.288,0.055,0.563,0.1,0.828c0.088,0.266,0.166,0.53,0.232,0.796
				c0.066,0.265,0.143,0.509,0.232,0.729c0.088,0.266,0.199,0.53,0.332,0.796c0.132,0.265,0.265,0.509,0.397,0.729
				c0.133,0.266,0.287,0.521,0.464,0.763c0.176,0.243,0.354,0.476,0.53,0.696c0.088,0.089,0.166,0.188,0.232,0.298
				c0.066,0.11,0.143,0.21,0.232,0.298c0.088,0.09,0.176,0.178,0.265,0.266c0.088,0.089,0.176,0.177,0.265,0.265
				c0.044,0.045,0.088,0.09,0.133,0.133c0.043,0.045,0.088,0.089,0.132,0.133c0.043,0.044,0.088,0.089,0.133,0.133
				c0.043,0.044,0.088,0.089,0.132,0.132c0.043,0.045,0.088,0.1,0.133,0.166c0.043,0.066,0.088,0.122,0.132,0.166
				c0.043,0.044,0.077,0.077,0.1,0.099c0.021,0.023,0.055,0.033,0.1,0.033c0,0.045,0.01,0.078,0.033,0.1
				c0.022,0.022,0.055,0.033,0.1,0.033c0.574,0.575,1.104,1.127,1.591,1.657c0.485,0.53,0.928,1.061,1.326,1.591
				c0.397,0.53,0.75,1.027,1.06,1.491c0.309,0.464,0.597,0.917,0.862,1.358c0.221,0.442,0.419,0.885,0.597,1.325
				c0.176,0.442,0.331,0.885,0.464,1.326c0.132,0.442,0.232,0.861,0.298,1.259c0.066,0.398,0.099,0.796,0.099,1.193
				c0,0.045,0,0.089,0,0.133s0,0.089,0,0.132c0,0.045,0,0.09,0,0.133c0,0.045,0,0.089,0,0.133c-0.044,0.045-0.066,0.089-0.066,0.133
				s0,0.089,0,0.132c0,0.045,0,0.09,0,0.133c0,0.045,0,0.089,0,0.133c-0.044,0.089-0.078,0.177-0.099,0.265
				c-0.023,0.09-0.033,0.178-0.033,0.266c0,0.044,0,0.089,0,0.133s0,0.089,0,0.132c-0.044,0.045-0.066,0.078-0.066,0.1
				c0,0.022,0,0.056,0,0.1c-0.132,0.53-0.298,1.061-0.497,1.591s-0.431,1.061-0.696,1.591s-0.575,1.071-0.928,1.623
				c-0.354,0.554-0.752,1.117-1.193,1.69c-0.442,0.575-0.895,1.16-1.358,1.757c-0.464,0.597-0.939,1.226-1.425,1.889
				c-0.53,0.663-1.061,1.349-1.59,2.055c-0.53,0.707-1.105,1.415-1.724,2.121c-0.222,0-0.442,0-0.663,0c-0.222,0-0.497,0-0.829,0
				c-0.331,0-0.719,0-1.16,0c-0.442,0-0.895,0-1.359,0s-0.939,0-1.425,0c-0.487,0-0.994,0-1.524,0s-1.061,0-1.591,0
				c-0.044-0.045-0.089-0.066-0.132-0.066c-0.045,0-0.089,0-0.133,0c-0.044,0-0.089,0-0.132,0c-0.045,0-0.089,0-0.133,0
				c-0.044,0-0.078,0-0.099,0c-0.023,0-0.056,0-0.1,0c-0.044,0-0.078,0-0.1,0c-0.022,0-0.056,0-0.099,0c-0.53,0-1.05,0-1.558,0
				c-0.509,0-1.006,0-1.491,0c-0.487,0-0.961,0-1.425,0s-0.917,0-1.358,0c-0.442,0-0.862,0-1.259,0c-0.398,0-0.729,0-0.994,0
				s-0.497,0-0.696,0c-0.199,0-0.343,0-0.431,0c1.016-0.972,1.966-1.922,2.85-2.851c0.883-0.928,1.679-1.789,2.386-2.584
				c0.751-0.796,1.436-1.535,2.055-2.221c0.618-0.685,1.17-1.314,1.657-1.889c0.485-0.574,0.895-1.127,1.226-1.657
				s0.629-1.016,0.895-1.458c0.221-0.486,0.398-0.95,0.53-1.392c0.133-0.441,0.199-0.884,0.199-1.326V499.9c0-0.043,0-0.088,0-0.132
				c-0.044,0-0.066-0.022-0.066-0.066s0-0.088,0-0.133c0-0.044,0-0.077,0-0.1c0-0.021,0-0.055,0-0.1c0-0.043,0-0.088,0-0.132
				s0-0.089,0-0.133c-0.044-0.309-0.133-0.618-0.265-0.928c-0.133-0.309-0.288-0.618-0.464-0.928
				c-0.177-0.354-0.388-0.696-0.63-1.027c-0.243-0.332-0.52-0.674-0.829-1.027c-0.31-0.354-0.641-0.729-0.994-1.127
				c-0.354-0.397-0.729-0.817-1.126-1.26c-0.398-0.485-0.829-0.971-1.292-1.458c-0.464-0.485-0.939-1.016-1.425-1.591v-0.198
				C209.197,489.429,209.01,489.263,208.811,489.064z M228.661,463.381l11.997-0.994l-3.38,18.359l-11.135,0.331L228.661,463.381z"
				/>
			<path fill="#FFF200" stroke="#231F20" stroke-width="2" stroke-miterlimit="10" d="M246.788,514.25
				c-0.641-0.419-1.227-0.872-1.757-1.358c-0.53-0.486-1.005-1.027-1.425-1.624c-0.42-0.597-0.785-1.227-1.094-1.889
				c-0.31-0.618-0.596-1.314-0.861-2.088c-0.265-0.772-0.464-1.602-0.597-2.485c-0.177-0.884-0.298-1.812-0.364-2.784
				c-0.066-0.972-0.1-2.01-0.1-3.115c0-0.971,0.022-1.988,0.066-3.049c0.043-1.061,0.132-2.164,0.265-3.313
				c0.088-1.148,0.22-2.342,0.397-3.579c0.176-1.236,0.375-2.54,0.597-3.91c0.221-1.326,0.464-2.729,0.729-4.209
				s0.552-3.016,0.862-4.606c0.309-1.591,0.64-3.236,0.994-4.938c0.353-1.701,0.729-3.479,1.126-5.336c0.221,0,0.419,0,0.597,0
				c0.221,0,0.474,0,0.762,0c0.287,0,0.651,0,1.093,0c0.398,0,0.806,0,1.227,0c0.419,0,0.85,0,1.292,0c0.485,0,0.961,0,1.425,0
				s0.938,0,1.425,0c0.354,0,0.718,0,1.094,0c0.375,0,0.739,0,1.094,0c0.353,0,0.706,0,1.061,0c0.353,0,0.706,0,1.06,0
				c0.354,0,0.673,0,0.961,0c0.287,0,0.563,0,0.828,0c0.221,0,0.431,0,0.63,0s0.386,0,0.563,0c-0.442,1.9-0.862,3.724-1.259,5.468
				c-0.398,1.746-0.774,3.458-1.127,5.137c-0.354,1.636-0.696,3.237-1.027,4.806s-0.652,3.06-0.961,4.474
				c-0.31,1.415-0.586,2.784-0.829,4.109c-0.243,1.325-0.431,2.585-0.563,3.777c-0.177,1.238-0.298,2.397-0.364,3.48
				c-0.066,1.083-0.078,2.132-0.033,3.147c0,0.752,0.021,1.481,0.066,2.188c0.043,0.707,0.132,1.37,0.265,1.988
				c0.132,0.619,0.287,1.216,0.464,1.79c0.176,0.574,0.397,1.104,0.663,1.59c0.221,0.53,0.497,1.018,0.829,1.459
				s0.696,0.861,1.094,1.259c0.397,0.397,0.861,0.752,1.392,1.061c0.53,0.31,1.082,0.575,1.657,0.795l6.76-50.173h14.846
				l-9.08,53.09c-0.31,0-0.619,0-0.928,0c-0.31,0-0.674,0-1.094,0c-0.42,0-0.917,0-1.491,0c-0.575,0-1.171,0-1.79,0
				c-0.619,0-1.259,0-1.922,0c-0.663,0-1.326,0-1.989,0c-0.663,0-1.37,0-2.121,0c-0.044,0-0.089-0.023-0.133-0.066
				c-0.044,0-0.078,0-0.099,0c-0.023,0-0.056,0-0.1,0c-0.044,0-0.089,0-0.132,0c-0.045,0-0.089,0-0.133,0c-0.044,0-0.089,0-0.132,0
				c-0.044,0-0.089,0-0.133,0c-0.044,0-0.089,0-0.132,0c-0.044,0-0.089,0-0.133,0c-0.707,0-1.392,0-2.055,0
				c-0.663,0-1.304,0-1.922,0c-0.663,0-1.292,0-1.889,0c-0.596,0-1.204,0-1.822,0c-0.575,0-1.117,0-1.624,0
				c-0.508,0-0.939,0-1.292,0c-0.397,0-0.729,0-0.994,0s-0.464,0-0.597,0C248.124,515.035,247.428,514.671,246.788,514.25z"/>
			<path fill="#FFF200" stroke="#231F20" stroke-width="2" stroke-miterlimit="10" d="M286.521,465.237h20.414l2.519,28.434
				l4.44-31.151h12.726c0,0.089-0.033,0.321-0.099,0.696c-0.066,0.376-0.166,0.895-0.298,1.558
				c-0.133,0.662-0.288,1.502-0.464,2.519c-0.177,1.017-0.376,2.187-0.597,3.513c-0.222,1.37-0.454,2.762-0.696,4.175
				c-0.244,1.415-0.497,2.851-0.762,4.309c-0.133,0.707-0.265,1.447-0.398,2.221c-0.132,0.773-0.265,1.535-0.397,2.286
				c-0.177,0.752-0.332,1.524-0.464,2.319c-0.133,0.796-0.265,1.591-0.398,2.387c-0.31,1.635-0.608,3.226-0.895,4.771
				c-0.288,1.548-0.563,3.072-0.829,4.573c-0.265,1.503-0.53,2.961-0.795,4.375s-0.508,2.783-0.729,4.109
				c-0.222,1.37-0.42,2.562-0.597,3.579c-0.177,1.017-0.331,1.855-0.464,2.519c-0.132,0.707-0.243,1.414-0.331,2.12
				c0,0.045-0.033,0.078-0.1,0.1c-0.066,0.023-0.144,0.033-0.232,0.033c-0.044,0-0.1,0-0.166,0c-0.066,0-0.122,0-0.166,0
				c-0.089,0.045-0.177,0.066-0.265,0.066c-0.089,0-0.177,0-0.265,0c-0.177,0.045-0.387,0.078-0.629,0.1
				c-0.244,0.022-0.476,0.033-0.696,0.033c-0.132,0-0.254,0-0.364,0c-0.111,0-0.232,0-0.365,0c-0.132,0.044-0.265,0.066-0.397,0.066
				c-0.133,0-0.265,0-0.398,0c-0.177,0.044-0.343,0.077-0.497,0.099c-0.155,0.023-0.298,0.033-0.431,0.033c-0.132,0-0.276,0-0.431,0
				c-0.155,0-0.321,0-0.497,0c-0.177,0.045-0.343,0.066-0.497,0.066c-0.155,0-0.298,0-0.431,0c-0.177,0-0.343,0-0.497,0
				c-0.155,0-0.298,0-0.431,0c-0.487,0.045-0.961,0.078-1.425,0.1c-0.464,0.022-0.939,0.033-1.425,0.033c-0.442,0-0.884,0-1.325,0
				c-0.442,0-0.862,0-1.259,0c-0.177,0-0.365,0-0.563,0s-0.365,0-0.497,0c-0.133,0-0.265,0-0.398,0
				c-0.132,0-0.243,0.021-0.331,0.066c-0.089,0-0.166,0-0.232,0c-0.066,0-0.144,0-0.232,0c-0.044,0-0.089,0-0.132,0l-3.182-29.759
				l-5.567,29.759h-10.803L286.521,465.237z"/>
			<path fill="#FFF200" stroke="#231F20" stroke-width="2" stroke-miterlimit="10" d="M331.126,470.738h14.316l-7.622-5.037
				c0,0.089,0.043,0.144,0.132,0.165c0.088,0.023,0.221,0.012,0.398-0.033c0.22-0.043,0.474-0.099,0.762-0.165
				c0.287-0.066,0.629-0.144,1.027-0.232c0.397-0.088,0.795-0.176,1.193-0.265c0.397-0.088,0.817-0.177,1.259-0.266
				c0.441-0.088,0.895-0.188,1.359-0.298c0.464-0.11,0.938-0.209,1.425-0.299c0.043,0,0.088,0,0.132,0l0.066-0.065h0.066
				c0.221-0.044,0.419-0.089,0.597-0.133c0.176-0.044,0.353-0.088,0.53-0.133c0.22,0,0.419-0.021,0.596-0.066
				c0.176-0.043,0.353-0.088,0.53-0.132c0.353-0.089,0.718-0.177,1.094-0.266c0.375-0.088,0.739-0.176,1.093-0.265
				c0.176-0.044,0.342-0.077,0.498-0.1c0.154-0.022,0.298-0.055,0.431-0.1c0.132,0,0.265-0.011,0.397-0.033
				c0.133-0.021,0.265-0.055,0.398-0.1c0.22-0.088,0.408-0.143,0.563-0.165c0.154-0.022,0.276-0.056,0.365-0.1
				c1.148,0.442,2.242,0.917,3.281,1.425c1.038,0.509,1.977,1.006,2.817,1.491c0.883,0.53,1.667,1.061,2.353,1.591
				c0.684,0.53,1.293,1.083,1.822,1.657c0.531,0.574,0.994,1.159,1.393,1.756c0.396,0.597,0.729,1.204,0.994,1.823
				c0.266,0.662,0.463,1.325,0.596,1.988c0.133,0.662,0.199,1.348,0.199,2.055s-0.066,1.425-0.199,2.153
				c-0.133,0.729-0.309,1.491-0.529,2.287c-0.266,0.795-0.576,1.591-0.928,2.386c-0.355,0.796-0.773,1.613-1.26,2.452
				c-0.486,0.84-1.018,1.702-1.592,2.585c-0.574,0.885-1.192,1.79-1.855,2.718s-1.37,1.878-2.121,2.85
				c-0.751,0.973-1.547,1.967-2.386,2.982c0.221,0.178,0.453,0.365,0.696,0.563c0.242,0.199,0.474,0.388,0.696,0.563
				c0.088,0.089,0.188,0.177,0.298,0.266c0.11,0.089,0.232,0.155,0.365,0.198c0.088,0.089,0.188,0.178,0.298,0.266
				c0.109,0.089,0.209,0.177,0.298,0.265c0.221,0.177,0.408,0.343,0.563,0.497c0.154,0.155,0.32,0.299,0.497,0.431
				c0.088,0.09,0.166,0.178,0.232,0.266c0.066,0.089,0.143,0.155,0.232,0.198c0.043,0.09,0.11,0.166,0.199,0.232
				c0.088,0.066,0.154,0.144,0.199,0.231c0.088,0.133,0.188,0.266,0.298,0.398c0.109,0.132,0.188,0.265,0.232,0.397
				c0.088,0.133,0.166,0.265,0.232,0.397s0.121,0.266,0.166,0.397c0,0.045,0.01,0.1,0.033,0.166c0.022,0.066,0.055,0.144,0.1,0.232
				c0,0.044,0.01,0.099,0.033,0.165c0.021,0.066,0.055,0.145,0.1,0.232c0,0.089,0,0.165,0,0.231s0,0.145,0,0.232
				c0,0.044,0,0.077,0,0.1s0.021,0.056,0.066,0.099c0,0.045,0,0.078,0,0.1c0,0.023,0,0.057,0,0.1c0,0.31-0.045,0.652-0.133,1.027
				c-0.089,0.376-0.199,0.763-0.331,1.16c-0.133,0.397-0.31,0.807-0.53,1.226c-0.222,0.421-0.487,0.852-0.795,1.293
				c-0.31,0.442-0.641,0.917-0.994,1.425c-0.354,0.509-0.774,1.05-1.259,1.624c-0.442,0.574-0.951,1.16-1.524,1.756
				c-0.575,0.597-1.171,1.183-1.79,1.757c-0.177,0-0.354,0-0.53,0c-0.177,0-0.398,0-0.663,0c-0.265,0-0.575,0-0.928,0
				c-0.354,0-0.729,0-1.126,0c-0.398,0-0.795,0-1.193,0c-0.397,0-0.807,0-1.226,0c-0.42,0-0.851,0.021-1.292,0.066
				c-0.044,0-0.089,0-0.132,0c-0.044,0-0.089,0-0.133,0h-0.066c-0.045,0-0.089,0-0.133,0c-0.044,0-0.089,0-0.132,0
				c-0.442,0-0.862,0-1.259,0c-0.398,0-0.795,0-1.193,0c-0.397,0-0.785,0-1.16,0c-0.376,0-0.741,0-1.094,0c-0.354,0-0.686,0-0.994,0
				c-0.31,0-0.575,0-0.795,0c-0.222,0-0.409,0-0.563,0c-0.155,0-0.276,0-0.364,0c0.53-0.574,1.049-1.182,1.558-1.823
				c0.507-0.64,0.982-1.248,1.425-1.822c0.486-0.618,0.95-1.215,1.392-1.79c0.441-0.573,0.861-1.126,1.259-1.656
				c0.397-0.53,0.75-1.05,1.06-1.558c0.309-0.508,0.552-0.983,0.729-1.425c0.22-0.486,0.375-0.95,0.464-1.393
				c0.088-0.44,0.132-0.883,0.132-1.325c0-0.133-0.011-0.266-0.033-0.397c-0.022-0.133-0.033-0.266-0.033-0.397
				c-0.045-0.089-0.089-0.199-0.133-0.332c-0.044-0.133-0.089-0.265-0.132-0.397c-0.133-0.221-0.277-0.452-0.431-0.696
				c-0.155-0.242-0.343-0.474-0.563-0.695c-0.132-0.088-0.265-0.188-0.397-0.299c-0.132-0.109-0.265-0.231-0.397-0.364
				c-0.133-0.088-0.288-0.188-0.464-0.298c-0.177-0.11-0.354-0.21-0.53-0.299c-0.177-0.088-0.365-0.176-0.563-0.265
				c-0.199-0.088-0.409-0.199-0.63-0.332c-0.222-0.088-0.442-0.176-0.663-0.265c-0.222-0.088-0.464-0.176-0.729-0.266l-3.646,18.095
				h-11.267L331.126,470.738z M345.542,472.428c-0.022,0.376-0.078,0.763-0.166,1.16c-0.044,0.442-0.122,0.906-0.232,1.392
				c-0.111,0.487-0.21,1.018-0.298,1.591c-0.044,0.31-0.089,0.608-0.132,0.896c-0.045,0.287-0.089,0.586-0.133,0.895
				c-0.044,0.31-0.089,0.607-0.132,0.895c-0.045,0.288-0.089,0.563-0.133,0.828c-0.044,0.31-0.099,0.62-0.166,0.929
				c-0.066,0.31-0.122,0.619-0.166,0.928c-0.045,0.31-0.089,0.619-0.133,0.928c-0.044,0.31-0.089,0.619-0.132,0.928
				c-0.089,0.575-0.188,1.16-0.298,1.757c-0.111,0.596-0.21,1.183-0.298,1.756c-0.089,0.575-0.177,1.127-0.265,1.657
				c-0.089,0.53-0.177,1.061-0.265,1.591c-0.089,0.53-0.166,1.038-0.232,1.524s-0.144,0.928-0.232,1.325
				c-0.044,0.397-0.089,0.773-0.133,1.127c-0.044,0.354-0.089,0.686-0.132,0.994c0.088-0.088,0.188-0.188,0.298-0.298
				c0.11-0.11,0.209-0.21,0.298-0.299c0.088-0.088,0.187-0.188,0.298-0.298c0.11-0.11,0.209-0.232,0.298-0.365
				c0.088-0.088,0.188-0.188,0.298-0.298c0.11-0.109,0.232-0.232,0.365-0.364c0.088-0.133,0.187-0.266,0.298-0.397
				c0.11-0.133,0.232-0.266,0.365-0.398c0.221-0.309,0.453-0.618,0.696-0.928c0.242-0.309,0.497-0.618,0.762-0.928
				c0.133-0.176,0.265-0.342,0.398-0.497c0.132-0.154,0.265-0.32,0.397-0.497c0.088-0.176,0.199-0.354,0.332-0.53
				c0.132-0.176,0.265-0.354,0.397-0.53c0.221-0.354,0.453-0.706,0.696-1.061c0.243-0.354,0.475-0.706,0.696-1.061
				c0.22-0.353,0.419-0.718,0.596-1.094c0.176-0.375,0.354-0.739,0.53-1.094c0.088-0.22,0.188-0.452,0.298-0.695
				c0.11-0.242,0.209-0.497,0.298-0.763c0.088-0.265,0.188-0.53,0.298-0.795c0.11-0.266,0.188-0.53,0.232-0.796
				c0.043-0.132,0.077-0.253,0.099-0.364c0.022-0.109,0.055-0.231,0.1-0.364c0-0.088,0.01-0.199,0.033-0.331
				c0.021-0.133,0.055-0.266,0.1-0.398c0-0.132,0.01-0.265,0.033-0.397c0.022-0.133,0.033-0.265,0.033-0.397
				c0.043-0.088,0.066-0.199,0.066-0.331c0-0.133,0-0.266,0-0.398c0-0.353-0.033-0.718-0.1-1.093
				c-0.066-0.375-0.144-0.718-0.232-1.027c-0.132-0.354-0.276-0.696-0.431-1.027c-0.155-0.332-0.343-0.651-0.563-0.962
				c-0.222-0.309-0.487-0.596-0.795-0.861c-0.31-0.265-0.641-0.53-0.994-0.795c-0.397-0.221-0.818-0.441-1.259-0.663
				c-0.442-0.221-0.928-0.419-1.458-0.597v-0.198C345.597,471.688,345.563,472.054,345.542,472.428z"/>
			<path fill="#FFF200" stroke="#231F20" stroke-width="2" stroke-miterlimit="10" d="M372.054,514.25
				c-0.642-0.419-1.227-0.872-1.757-1.358s-1.005-1.027-1.425-1.624s-0.785-1.227-1.094-1.889c-0.31-0.618-0.597-1.314-0.861-2.088
				c-0.266-0.772-0.464-1.602-0.597-2.485c-0.177-0.884-0.298-1.812-0.364-2.784c-0.066-0.972-0.1-2.01-0.1-3.115
				c0-0.971,0.021-1.988,0.066-3.049c0.043-1.061,0.133-2.164,0.265-3.313c0.088-1.148,0.221-2.342,0.398-3.579
				c0.176-1.236,0.374-2.54,0.596-3.91c0.221-1.326,0.464-2.729,0.729-4.209c0.265-1.48,0.552-3.016,0.861-4.606
				c0.309-1.591,0.641-3.236,0.994-4.938s0.729-3.479,1.127-5.336c0.221,0,0.42,0,0.597,0c0.221,0,0.475,0,0.762,0s0.651,0,1.094,0
				c0.397,0,0.806,0,1.227,0c0.419,0,0.85,0,1.292,0c0.486,0,0.961,0,1.425,0c0.465,0,0.938,0,1.426,0c0.353,0,0.718,0,1.094,0
				c0.374,0,0.739,0,1.093,0s0.707,0,1.061,0s0.706,0,1.061,0c0.354,0,0.673,0,0.961,0c0.287,0,0.563,0,0.829,0
				c0.221,0,0.431,0,0.629,0c0.199,0,0.387,0,0.563,0c-0.442,1.9-0.861,3.724-1.259,5.468c-0.397,1.746-0.773,3.458-1.127,5.137
				c-0.354,1.636-0.696,3.237-1.027,4.806s-0.652,3.06-0.961,4.474c-0.31,1.415-0.586,2.784-0.828,4.109
				c-0.244,1.325-0.432,2.585-0.563,3.777c-0.178,1.238-0.299,2.397-0.365,3.48c-0.065,1.083-0.077,2.132-0.033,3.147
				c0,0.752,0.022,1.481,0.066,2.188c0.044,0.707,0.133,1.37,0.266,1.988c0.133,0.619,0.287,1.216,0.464,1.79
				c0.176,0.574,0.397,1.104,0.663,1.59c0.22,0.53,0.497,1.018,0.828,1.459s0.696,0.861,1.094,1.259s0.861,0.752,1.392,1.061
				c0.53,0.31,1.082,0.575,1.657,0.795l6.76-50.173h14.847l-9.08,53.09c-0.31,0-0.619,0-0.928,0c-0.31,0-0.674,0-1.094,0
				s-0.918,0-1.491,0c-0.575,0-1.171,0-1.789,0c-0.62,0-1.26,0-1.923,0c-0.662,0-1.325,0-1.988,0c-0.662,0-1.37,0-2.121,0
				c-0.044,0-0.089-0.023-0.132-0.066c-0.045,0-0.078,0-0.1,0c-0.022,0-0.056,0-0.1,0c-0.045,0-0.089,0-0.133,0s-0.089,0-0.132,0
				c-0.045,0-0.09,0-0.133,0c-0.045,0-0.089,0-0.133,0s-0.089,0-0.133,0s-0.089,0-0.132,0c-0.708,0-1.393,0-2.055,0
				c-0.663,0-1.304,0-1.923,0c-0.662,0-1.292,0-1.889,0s-1.204,0-1.822,0c-0.575,0-1.116,0-1.624,0c-0.509,0-0.939,0-1.292,0
				c-0.398,0-0.729,0-0.995,0c-0.265,0-0.464,0-0.596,0C373.39,515.035,372.693,514.671,372.054,514.25z"/>
			<path fill="#FFF200" stroke="#231F20" stroke-width="2" stroke-miterlimit="10" d="M412.515,515.078
				c-0.044-0.088-0.122-0.22-0.231-0.397c-0.111-0.176-0.232-0.375-0.365-0.597c-0.044-0.088-0.11-0.198-0.198-0.331
				c-0.089-0.133-0.155-0.265-0.199-0.397c-0.089-0.133-0.166-0.266-0.231-0.397c-0.066-0.133-0.145-0.287-0.232-0.465
				c-0.133-0.309-0.276-0.64-0.431-0.994c-0.155-0.353-0.321-0.75-0.497-1.192c-0.177-0.397-0.343-0.817-0.497-1.26
				c-0.155-0.44-0.299-0.905-0.431-1.392c-0.178-0.485-0.332-1.005-0.464-1.558c-0.133-0.552-0.266-1.115-0.398-1.69
				c-0.132-0.573-0.243-1.159-0.331-1.756c-0.089-0.597-0.177-1.227-0.265-1.889c-0.045-0.663-0.09-1.326-0.133-1.988
				c-0.045-0.663-0.066-1.348-0.066-2.055c0-1.193,0.076-2.43,0.232-3.712c0.154-1.281,0.386-2.606,0.695-3.977
				c0.354-1.326,0.763-2.695,1.227-4.109s1.004-2.872,1.624-4.375c0.618-1.458,1.392-2.938,2.319-4.44
				c0.928-1.501,2.01-3.004,3.248-4.507c1.236-1.502,2.617-3.016,4.142-4.54s3.215-3.06,5.07-4.606c0.266,0,0.53,0,0.796,0
				c0.265,0,0.606,0,1.027,0c0.419,0,0.916,0,1.491,0c0.53,0,1.094,0,1.69,0c0.596,0,1.182,0,1.756,0c0.618,0,1.248,0,1.889,0
				s1.293,0,1.956,0c0.485,0,0.982,0,1.491,0c0.507,0,0.982,0,1.425,0c0.485,0,0.961,0,1.425,0s0.916,0,1.358,0
				c0.486,0,0.928,0,1.326,0c0.397,0,0.751,0,1.061,0c0.353,0,0.662,0,0.928,0c0.265,0,0.507,0,0.729,0
				c-2.431,1.945-4.662,3.845-6.693,5.7c-2.033,1.855-3.867,3.646-5.502,5.368c-1.635,1.768-3.06,3.458-4.274,5.07
				c-1.216,1.613-2.221,3.193-3.016,4.739c-0.84,1.503-1.569,2.972-2.188,4.407c-0.619,1.437-1.127,2.795-1.524,4.076
				c-0.397,1.326-0.696,2.575-0.895,3.745c-0.199,1.171-0.299,2.286-0.299,3.347c0,0.575,0.022,1.139,0.066,1.69
				c0.044,0.553,0.088,1.072,0.133,1.558c0.088,0.53,0.176,1.027,0.265,1.491s0.221,0.917,0.398,1.358
				c0.132,0.442,0.275,0.862,0.431,1.26c0.154,0.397,0.32,0.773,0.497,1.127c0.176,0.354,0.353,0.695,0.53,1.027
				c0.176,0.331,0.353,0.629,0.53,0.895c0.176,0.31,0.342,0.597,0.497,0.861c0.154,0.266,0.298,0.509,0.431,0.729
				c0.133,0.222,0.275,0.431,0.431,0.629c0.154,0.199,0.32,0.365,0.497,0.497c0.133,0.178,0.266,0.31,0.397,0.398
				c0.133,0.089,0.221,0.177,0.266,0.265c0.088,0.045,0.176,0.111,0.265,0.199l3.646-25.981h13.985l-4.772,28.367h-27.837
				C412.669,515.233,412.603,515.168,412.515,515.078z"/>
			<path fill="#FFF200" stroke="#231F20" stroke-width="2" stroke-miterlimit="10" d="M451.221,515.078
				c-0.044-0.088-0.122-0.22-0.231-0.397c-0.111-0.176-0.232-0.375-0.365-0.597c-0.044-0.088-0.11-0.198-0.198-0.331
				c-0.089-0.133-0.155-0.265-0.199-0.397c-0.089-0.133-0.166-0.266-0.231-0.397c-0.066-0.133-0.145-0.287-0.232-0.465
				c-0.133-0.309-0.276-0.64-0.431-0.994c-0.155-0.353-0.321-0.75-0.497-1.192c-0.177-0.397-0.343-0.817-0.497-1.26
				c-0.155-0.44-0.299-0.905-0.431-1.392c-0.178-0.485-0.332-1.005-0.464-1.558c-0.133-0.552-0.266-1.115-0.398-1.69
				c-0.132-0.573-0.243-1.159-0.331-1.756c-0.089-0.597-0.177-1.227-0.265-1.889c-0.045-0.663-0.09-1.326-0.133-1.988
				c-0.045-0.663-0.066-1.348-0.066-2.055c0-1.193,0.076-2.43,0.232-3.712c0.154-1.281,0.386-2.606,0.695-3.977
				c0.354-1.326,0.763-2.695,1.227-4.109s1.004-2.872,1.624-4.375c0.618-1.458,1.392-2.938,2.319-4.44
				c0.928-1.501,2.01-3.004,3.248-4.507c1.236-1.502,2.617-3.016,4.142-4.54s3.215-3.06,5.07-4.606c0.266,0,0.53,0,0.796,0
				c0.265,0,0.606,0,1.027,0c0.419,0,0.916,0,1.491,0c0.53,0,1.094,0,1.69,0c0.596,0,1.182,0,1.756,0c0.618,0,1.248,0,1.889,0
				s1.293,0,1.956,0c0.485,0,0.982,0,1.491,0c0.507,0,0.982,0,1.425,0c0.485,0,0.961,0,1.425,0s0.916,0,1.358,0
				c0.486,0,0.928,0,1.326,0c0.397,0,0.751,0,1.061,0c0.353,0,0.662,0,0.928,0c0.265,0,0.507,0,0.729,0
				c-2.431,1.945-4.662,3.845-6.693,5.7c-2.033,1.855-3.867,3.646-5.502,5.368c-1.635,1.768-3.06,3.458-4.274,5.07
				c-1.216,1.613-2.221,3.193-3.016,4.739c-0.84,1.503-1.569,2.972-2.188,4.407c-0.619,1.437-1.127,2.795-1.524,4.076
				c-0.397,1.326-0.696,2.575-0.895,3.745c-0.199,1.171-0.299,2.286-0.299,3.347c0,0.575,0.022,1.139,0.066,1.69
				c0.044,0.553,0.088,1.072,0.133,1.558c0.088,0.53,0.176,1.027,0.265,1.491s0.221,0.917,0.398,1.358
				c0.132,0.442,0.275,0.862,0.431,1.26c0.154,0.397,0.32,0.773,0.497,1.127c0.176,0.354,0.353,0.695,0.53,1.027
				c0.176,0.331,0.353,0.629,0.53,0.895c0.176,0.31,0.342,0.597,0.497,0.861c0.154,0.266,0.298,0.509,0.431,0.729
				c0.133,0.222,0.275,0.431,0.431,0.629c0.154,0.199,0.32,0.365,0.497,0.497c0.133,0.178,0.266,0.31,0.397,0.398
				c0.133,0.089,0.221,0.177,0.266,0.265c0.088,0.045,0.176,0.111,0.265,0.199l3.646-25.981h13.985l-4.772,28.367H451.42
				C451.375,515.233,451.309,515.168,451.221,515.078z"/>
			<path fill="#FFF200" stroke="#231F20" stroke-width="2" stroke-miterlimit="10" d="M487.309,501.922
				c-0.022-0.021-0.056-0.076-0.099-0.165c-0.045-0.088-0.078-0.199-0.1-0.332c-0.023-0.132-0.078-0.286-0.166-0.464
				c-0.045-0.176-0.1-0.375-0.166-0.597c-0.065-0.22-0.144-0.464-0.231-0.729c-0.045-0.266-0.1-0.563-0.166-0.895
				c-0.066-0.332-0.144-0.674-0.231-1.027c-0.09-0.354-0.166-0.751-0.232-1.193c-0.066-0.441-0.144-0.884-0.231-1.325
				c-0.045-0.486-0.1-0.972-0.166-1.459c-0.066-0.485-0.145-1.016-0.232-1.59c-0.044-0.574-0.099-1.171-0.165-1.79
				c-0.066-0.618-0.1-1.259-0.1-1.922c-0.045-0.663-0.066-1.358-0.066-2.088s0-1.491,0-2.286c0-0.619,0-1.237,0-1.856
				c0-0.618,0.021-1.259,0.066-1.922c0-0.663,0.033-1.358,0.1-2.088c0.066-0.729,0.121-1.469,0.165-2.221
				c0.044-0.75,0.1-1.501,0.166-2.253c0.066-0.751,0.143-1.524,0.232-2.32c0.088-0.795,0.188-1.623,0.298-2.485
				c0.109-0.861,0.232-1.733,0.364-2.617c0.133,0,0.287,0,0.464,0c0.133,0,0.309,0,0.53,0c0.221,0,0.486,0,0.796,0
				c0.309,0,0.629,0,0.961,0c0.331,0,0.673,0,1.027,0c0.353,0,0.718,0,1.094,0c0.375,0,0.783,0,1.226,0
				c0.044,0.044,0.1,0.065,0.166,0.065s0.121,0,0.166,0c0.088,0,0.165,0,0.231,0s0.121,0,0.166,0c0.043,0,0.076,0,0.1,0
				c0.021,0,0.055,0,0.099,0s0.089,0,0.133,0s0.088,0,0.133,0c0.088,0,0.154,0,0.198,0s0.077,0,0.1,0s0.056,0,0.1,0
				c0.354,0,0.696,0,1.027,0s0.651,0,0.961,0c0.176,0,0.342,0,0.497,0c0.154,0,0.32,0,0.497,0c0.133,0,0.275,0,0.431,0
				c0.154,0,0.32,0,0.497,0c0.309,0,0.597,0,0.862,0c0.265,0,0.53,0,0.795,0c0.266,0,0.497,0,0.696,0c0.198,0,0.386,0,0.563,0
				c-0.31,1.459-0.575,2.861-0.796,4.209c-0.222,1.349-0.42,2.618-0.597,3.812c-0.177,1.237-0.343,2.397-0.497,3.479
				c-0.155,1.083-0.276,2.132-0.364,3.148c-0.089,0.972-0.166,1.911-0.231,2.816c-0.066,0.906-0.123,1.757-0.166,2.552
				c-0.045,0.795-0.078,1.547-0.1,2.254c-0.022,0.707-0.033,1.37-0.033,1.988c0,0.441,0,0.861,0,1.259s0.021,0.773,0.066,1.127
				c0,0.354,0.011,0.686,0.033,0.994c0.021,0.31,0.055,0.597,0.1,0.861c0.043,0.31,0.076,0.586,0.1,0.829
				c0.021,0.243,0.055,0.475,0.099,0.695c0.044,0.178,0.077,0.365,0.1,0.563c0.021,0.199,0.055,0.388,0.1,0.563
				c0.043,0.177,0.076,0.331,0.1,0.464c0.021,0.133,0.055,0.266,0.1,0.397c0.043,0.133,0.076,0.232,0.099,0.299
				s0.056,0.144,0.1,0.231c0.044,0.045,0.077,0.1,0.1,0.166c0.021,0.066,0.033,0.122,0.033,0.166s0.021,0.065,0.066,0.065
				l9.544-37.182h16.238l-16.172,53.155h-12.858l2.718-13.521l-11.4,0.066C487.342,501.912,487.331,501.945,487.309,501.922z"/>
		</g>
		<line fill="#FFFFFF" x1="245.901" y1="320.482" x2="233.972" y2="318.252"/>
		
			<line fill="none" stroke="#231F20" stroke-width="4" stroke-miterlimit="10" x1="245.901" y1="320.482" x2="233.972" y2="318.252"/>
	</g>
</g>
</svg>
