<?xml version="1.0" encoding="utf-8"?>
<!-- Generator: Adobe Illustrator 15.1.0, SVG Export Plug-In . SVG Version: 6.00 Build 0)  -->
<!DOCTYPE svg PUBLIC "-//W3C//DTD SVG 1.1//EN" "http://www.w3.org/Graphics/SVG/1.1/DTD/svg11.dtd">
<svg version="1.1" id="Layer_1" xmlns="http://www.w3.org/2000/svg" xmlns:xlink="http://www.w3.org/1999/xlink" x="0px" y="0px"
	 width="2329.92px" height="720px" viewBox="0 0 2329.92 720" enable-background="new 0 0 2329.92 720" xml:space="preserve">
<g>
	<g>
		<g>
			<path fill="#FFF200" stroke="#231F20" stroke-width="2.9523" stroke-miterlimit="10" d="M400.196,142.085
				c19.785-10.175,26.107-32.157,11.216-49.333c-10.843-14.026-31.919-13.149-33.062-33.31c0.164-17.804,21.143-35.57,29.286-50.087
				c-1.066,10.603-0.312,28.669,3.464,39.673c8.73,21.354,25.618,21.253,41.302,35.681c26.397,25.444,6.987,44.655-13.863,65.431
				L400.196,142.085z"/>
			<path fill="#FFF200" stroke="#231F20" stroke-width="2.9523" stroke-miterlimit="10" d="M505.375,182.132
				c22.249,0.295,38.144-16.152,33.05-38.308c-2.992-17.472-22.018-26.584-13.57-44.925c8.495-15.647,35.356-21.497,49.358-30.497
				c-5.916,8.862-13.728,25.17-15.553,36.66c-2.303,22.954,12.656,30.789,19.739,50.888c11.378,34.855-14.775,42.714-42.938,51.281
				L505.375,182.132z"/>
			<path fill="#FFF200" stroke="#231F20" stroke-width="2.9523" stroke-miterlimit="10" d="M578.887,269.883
				c19.135,11.35,41.116,5.02,47.749-16.725c6.118-16.639-5.833-34.024,10.638-45.708c15.167-9.327,41.368-1.004,57.991-1.823
				c-9.545,4.731-24.452,14.974-31.759,24.021c-13.444,18.75-4.388,32.998-8.266,53.953c-7.52,35.884-34.107,29.658-62.792,23.041
				L578.887,269.883z"/>
			<path fill="#FFF200" stroke="#231F20" stroke-width="2.9523" stroke-miterlimit="10" d="M599.607,383.379
				c11.096,19.284,33.349,24.567,49.808,8.884c13.502-11.488,11.632-32.5,31.723-34.588c17.788-0.674,36.521,19.443,51.403,26.897
				c-10.638-0.569-28.65,1.032-39.467,5.322c-20.916,9.731-20.023,26.588-33.698,42.936c-24.174,27.562-44.276,9.082-66.01-10.775
				L599.607,383.379z"/>
			<path fill="#FFF200" stroke="#231F20" stroke-width="2.9523" stroke-miterlimit="10" d="M551.431,504.099
				c-1.008,22.226,14.919,38.642,37.229,34.26c17.562-2.434,27.274-21.158,45.336-12.123c15.368,8.991,20.354,36.025,28.901,50.311
				c-8.667-6.198-24.719-14.527-36.142-16.724c-22.874-3.035-31.183,11.665-51.495,18.102
				c-35.202,10.255-42.222-16.138-49.878-44.56L551.431,504.099z"/>
			<path fill="#FFF200" stroke="#231F20" stroke-width="2.9523" stroke-miterlimit="10" d="M437.765,581.664
				c-14.062,17.245-11.063,39.918,9.46,49.701c15.544,8.518,34.51-0.721,43.624,17.307c6.974,16.378-5.146,41.054-6.798,57.614
				c-3.265-10.141-11.179-26.399-19.044-34.974c-16.549-16.072-31.985-9.229-52.133-16.175
				c-34.372-12.757-24.271-38.128-13.469-65.512L437.765,581.664z"/>
			<path fill="#FFF200" stroke="#231F20" stroke-width="2.9523" stroke-miterlimit="10" d="M313.76,582.15
				c-21.016,7.31-30.354,28.188-18.008,47.281c8.771,15.404,29.762,17.481,28.074,37.609c-2.652,17.601-25.907,32.261-36.002,45.494
				c2.539-10.347,4.325-28.345,2.124-39.768c-5.665-22.361-22.395-24.626-35.908-41.104c-22.581-28.889-0.675-45.191,22.882-62.85
				L313.76,582.15z"/>
			<path fill="#FFF200" stroke="#231F20" stroke-width="2.9523" stroke-miterlimit="10" d="M198.957,506.069
				c-21.408-6.064-41.03,5.686-41.864,28.408c-1.651,17.648,14.357,31.386,1.433,46.908c-12.27,12.899-39.728,11.573-55.585,16.628
				c8.012-7.021,19.796-20.745,24.544-31.364c8.182-21.568-4.223-33.016-5.845-54.267c-1.933-36.615,25.364-37.413,54.786-38.364
				L198.957,506.069z"/>
			<path fill="#FFF200" stroke="#231F20" stroke-width="2.9523" stroke-miterlimit="10" d="M149.295,386.331
				c-13.622-17.593-36.386-19.794-50.555-2.013c-11.809,13.221-7.092,33.777-26.71,38.59c-17.532,3.091-38.833-14.289-54.592-19.638
				c10.614-0.894,28.246-4.933,38.372-10.656c19.395-12.491,16.215-29.071,27.532-47.126c20.192-30.603,42.626-15.033,66.862,1.679
				L149.295,386.331z"/>
			<path fill="#FFF200" stroke="#231F20" stroke-width="2.9523" stroke-miterlimit="10" d="M176.564,257.136
				c-2.362-22.124-20.586-35.944-41.978-28.24c-16.989,5.054-23.764,25.028-42.986,18.828
				c-16.547-6.569-25.557-32.539-36.167-45.365c9.503,4.814,26.632,10.626,38.256,11.067c23.067-0.455,29.057-16.238,48.169-25.67
				c33.247-15.454,44.173,9.574,56.036,36.517L176.564,257.136z"/>
			<path fill="#FFF200" stroke="#231F20" stroke-width="2.9523" stroke-miterlimit="10" d="M269.734,166.714
				c10.866-19.417,3.99-41.23-17.917-47.317c-16.784-5.704-33.861,6.678-45.958-9.497c-9.7-14.928-2.033-41.327-3.274-57.924
				c4.97,9.422,15.586,24.069,24.813,31.15c19.082,12.97,33.096,3.558,54.142,6.915c36.061,6.62,30.5,33.356,24.596,62.195
				L269.734,166.714z"/>
		</g>
		<g>
			
				<path fill-rule="evenodd" clip-rule="evenodd" fill="#FFF200" stroke="#231F20" stroke-width="2.9523" stroke-miterlimit="10" d="
				M482.807,168.762c-9.911-6.023-18.491-17.146-12.843-28.916c6.996-5.886,14.305-8.739,19.578-16.549
				c6.379-9.456,4.346-19.237,5.13-28.245c0.311,0.25,0.621,0.503,0.93,0.754c5.179,4.381,10.858,19.034,12.579,26.385
				c0.467,2.001,1.321,3.135,1.286,4.129c-0.542,15.232-23.018,18.595-26.122,31.302
				C482.345,161.69,484.837,165.857,482.807,168.762"/>
			
				<path fill-rule="evenodd" clip-rule="evenodd" fill="#FFF200" stroke="#231F20" stroke-width="2.9523" stroke-miterlimit="10" d="
				M567.198,248.558c-6.838-9.366-10.495-22.93-0.765-31.632c8.716-2.752,16.562-2.582,24.429-7.77
				c9.521-6.283,11.393-16.098,15.576-24.114c0.189,0.351,0.379,0.702,0.569,1.054c3.099,6.032,2.723,21.743,1.488,29.19
				c-0.333,2.028,0.021,3.403-0.392,4.305c-6.349,13.861-28.396,8.341-36.139,18.884
				C569.483,241.85,570.189,246.655,567.198,248.558"/>
			
				<path fill-rule="evenodd" clip-rule="evenodd" fill="#FFF200" stroke="#231F20" stroke-width="2.9523" stroke-miterlimit="10" d="
				M600.056,361.369c-0.903-11.564,3.114-25.026,15.961-27.321c8.864,2.237,15.45,6.502,24.87,6.219
				c11.404-0.348,18.148-7.714,25.919-12.341c-0.023,0.398-0.047,0.797-0.066,1.196c-0.532,6.761-9.103,19.932-14.064,25.622
				c-1.35,1.549-1.77,2.904-2.6,3.458c-12.678,8.462-28.537-7.814-40.667-2.909C605.526,356.86,603.6,361.319,600.056,361.369"/>
			
				<path fill-rule="evenodd" clip-rule="evenodd" fill="#FFF200" stroke="#231F20" stroke-width="2.9523" stroke-miterlimit="10" d="
				M574.203,470.374c6.568-9.555,18.155-17.503,29.588-11.208c5.485,7.313,7.926,14.768,15.429,20.473
				c9.083,6.896,18.963,5.414,27.913,6.7c-0.267,0.298-0.536,0.592-0.807,0.888c-4.662,4.923-19.606,9.78-27.045,11.083
				c-2.021,0.355-3.2,1.142-4.192,1.054c-15.183-1.394-17.282-24.021-29.793-27.834
				C581.291,470.309,576.988,472.565,574.203,470.374"/>
			
				<path fill-rule="evenodd" clip-rule="evenodd" fill="#FFF200" stroke="#231F20" stroke-width="2.9523" stroke-miterlimit="10" d="
				M479.068,565.859c10.708-4.454,24.75-4.826,30.926,6.671c0.634,9.123-1.373,16.705,1.826,25.57
				c3.876,10.729,12.975,14.85,19.788,20.793c-0.385,0.107-0.771,0.205-1.158,0.312c-6.591,1.597-21.772-2.453-28.725-5.397
				c-1.892-0.802-3.311-0.782-4.095-1.396c-11.985-9.418-1.449-29.556-9.878-39.557
				C485.053,569.657,480.216,569.207,479.068,565.859"/>
			
				<path fill-rule="evenodd" clip-rule="evenodd" fill="#FFF200" stroke="#231F20" stroke-width="2.9523" stroke-miterlimit="10" d="
				M341.295,588.922c11.566,0.854,24.268,6.853,24.597,19.899c-3.547,8.431-8.759,14.293-9.898,23.647
				c-1.378,11.321,4.882,19.107,8.286,27.484c-0.394-0.079-0.782-0.166-1.173-0.246c-6.604-1.544-18.33-12.008-23.207-17.77
				c-1.327-1.57-2.602-2.193-3.025-3.093c-6.452-13.809,12.032-27.034,9.016-39.761C344.925,595.012,340.81,592.428,341.295,588.922
				"/>
			
				<path fill-rule="evenodd" clip-rule="evenodd" fill="#FFF200" stroke="#231F20" stroke-width="2.9523" stroke-miterlimit="10" d="
				M230.634,539.058c7.622,8.743,12.427,21.944,3.485,31.445c-8.455,3.496-16.282,3.996-23.674,9.843
				c-8.944,7.077-9.97,17.015-13.446,25.362c-0.223-0.333-0.441-0.667-0.661-1.002c-3.606-5.743-4.579-21.427-3.991-28.954
				c0.162-2.051-0.307-3.387,0.025-4.326c5.132-14.351,27.571-10.745,34.38-21.91C228.932,545.94,227.821,541.21,230.634,539.058"/>
			
				<path fill-rule="evenodd" clip-rule="evenodd" fill="#FFF200" stroke="#231F20" stroke-width="2.9523" stroke-miterlimit="10" d="
				M155.851,421.028c3.019,11.198,1.552,25.172-10.653,29.788c-9.13-0.562-16.383-3.546-25.591-1.531
				c-11.142,2.44-16.422,10.925-23.203,16.9c-0.055-0.394-0.106-0.794-0.157-1.186c-0.724-6.745,5.275-21.271,9.106-27.776
				c1.042-1.771,1.209-3.181,1.918-3.879c10.906-10.646,29.494,2.43,40.509-4.624C151.306,426.466,152.381,421.728,155.851,421.028"
				/>
			
				<path fill-rule="evenodd" clip-rule="evenodd" fill="#FFF200" stroke="#231F20" stroke-width="2.9523" stroke-miterlimit="10" d="
				M162.517,285.479c-3.834,10.946-12.938,21.646-25.621,18.564c-7.214-5.623-11.516-12.182-20.25-15.72
				c-10.571-4.283-19.72-0.266-28.696,0.836c0.179-0.357,0.365-0.713,0.546-1.068c3.213-5.973,16.368-14.567,23.204-17.774
				c1.86-0.873,2.792-1.941,3.773-2.115c15.013-2.628,22.964,18.665,36.037,19.067C155.694,287.397,159.258,284.096,162.517,285.479
				"/>
			
				<path fill-rule="evenodd" clip-rule="evenodd" fill="#FFF200" stroke="#231F20" stroke-width="2.9523" stroke-miterlimit="10" d="
				M239.299,185.344c-9.257,6.992-22.759,10.863-31.612,1.274c-2.896-8.676-2.845-16.521-8.161-24.304
				c-6.431-9.42-16.275-11.139-24.358-15.19c0.348-0.199,0.699-0.393,1.047-0.588c5.98-3.197,21.692-3.068,29.161-1.953
				c2.033,0.303,3.402-0.07,4.312,0.326c13.96,6.125,8.792,28.259,19.452,35.831C232.553,183.166,237.351,182.389,239.299,185.344"
				/>
			
				<path fill-rule="evenodd" clip-rule="evenodd" fill="#FFF200" stroke="#231F20" stroke-width="2.9523" stroke-miterlimit="10" d="
				M364.878,139.414c-11.509,1.409-25.135-2.014-27.987-14.749c1.847-8.958,5.823-15.721,5.125-25.12
				c-0.841-11.375-8.495-17.799-13.458-25.355c0.4,0.001,0.8,0.01,1.2,0.015c6.777,0.234,20.308,8.224,26.21,12.933
				c1.606,1.282,2.976,1.645,3.565,2.445c9.009,12.3-6.562,28.858-1.135,40.755C360.136,134.146,364.678,135.878,364.878,139.414"/>
		</g>
		<g>
			
				<path fill-rule="evenodd" clip-rule="evenodd" fill="#FFF200" stroke="#231F20" stroke-width="2.9523" stroke-miterlimit="10" d="
				M550.575,330.904c-6.199-2.596-14.41-5.516-21.79-5.698c-5.723-0.156-11.293,1.716-16.319,2.981
				c-5.104,1.316-10.023,2.741-14.687,4.636c2.827,3.888,6.97,7.359,10.882,10.879c3.933,3.546,8.033,7.044,11.707,10.62
				c-0.441,1.371-0.684,2.952-1.083,4.344c1.14,0.319,1.985,0.891,2.425,1.927c-1.266,2.537-2.536,5.076-3.803,7.611
				c-0.728-0.538-1.459-1.086-1.888-1.913c-0.731,0.933-1.605,3.11-2.722,2.712c1.315-4.554,2.972-8.801,3.804-13.876
				c-6.267-6.762-13.991-12.874-21.237-18.212c-1.187-0.909-2.489-1.166-3.813-1.914c-4.864-2.8-9.404-6.92-14.137-10.337
				c-14.396-10.417-28.387-21.603-42.743-31.579c-3.909-7.481-7.379-15.868-11.683-23.933c-4.141-7.799-7.77-16.862-13.333-22.583
				c-5.336-5.498-13.272-8.577-22.054-10.623c-3.312-2.184-6.956-4.22-11.161-6.531c-2.851-1.577-8.904-5.566-11.961-5.98
				c-4.38-0.617-10.162,0.313-15.234,0.542c-9.272,0.42-20.001,1.293-28.026-0.287c-1.555-0.311-2.825-1.444-4.102-1.887
				c-4.059-1.452-8.288-1.114-13.056-1.654h-2.711c-20.487,0.647-32.196,6.727-37.85,20.948c-0.795,2.072-0.926,4.608-2.171,6.816
				c-1.221,2.148-4.897,3.419-4.354,6.808c-11.906,1.789-22.642,6.798-23.958,18.5c-0.397,3.513,0.206,7.172,0.571,10.615
				c0.264,2.622,1.691,7.691,1.349,9.792c-0.308,1.976-4.591,3.937-4.354,6.272c0.252,2.641,4.017,2.177,6.525,3.269
				c2.13,0.905,2.847,2.431,4.091,2.978c2.3,4.867-0.024,6.988-2.457,10.36c-1.381,1.888-2.75,3.674-3.807,5.156
				c-2.486,3.542-6.016,7.792-7.083,11.16c-0.561,1.816,0.292,3.316-1.366,5.18c-3.341-5.83-4.717-10.593-7.879-16.339
				c-2.408-4.363-6.969-12.129-11.162-13.053c-5.047-1.145-11.762,0.226-16.053,0.539c-4.924,0.359-10.88,0.177-14.974,1.89
				c-6.303,2.665-9.066,13.879-10.055,21.24v5.178c0.577,22.412,4.096,47.247,14.952,60.667c1.161,1.447,2.642,3.238,4.094,4.365
				c1.808,1.408,5.54,3.998,7.61,4.366c2.31,0.353,5.546-0.778,8.444-1.376c8.862-1.818,15.927-3.963,22.588-7.073
				c6.169-8.936,7.618-24.994,5.981-40.012c1.404-0.033,2.151,0.562,3.553,0.562v-1.375l0.803-1.087
				c-0.828-0.54-1.788-0.925-2.438-1.635c-0.107-1.083,0.623-1.359,0.546-2.449c6.655-1.745,13.494,0.668,20.131,1.367
				c0.175,2.07,0.874,3.652,1.08,5.729c-2.617-0.029-4.56-0.733-7.076-0.841v1.354l-0.824,1.086
				c3.543,1.479,9.12,0.877,12.251,2.743c0.805,1.873-1.556,2.512-2.718,3.27c-3.368,2.101-9.839,5.097-11.711,7.872
				c-5.641,8.442,8.167,9.173,14.716,10.626c9.837,2.17,18.55,3.471,26.111,6.262c-1.997,3.031-1.447,7.492-2.439,11.423
				c-0.72,2.9-4.014,5.701-1.371,8.705c-1.011,2.515-1.453,5.647-2.169,8.444c-0.191,1.533,1.783,0.932,1.911,2.18
				c-0.264,2.585-1.374,4.86-1.088,7.326c0.181,1.816,1.867,3.029,2.438,5.183c0.514,1.962-0.158,4.475,0.278,6.529
				c0.834,4.013,6.035,6.214,3.527,11.161c0.751,2.43,3.24,3.133,4.636,4.896c-0.256,5.774,2.381,8.707,6.242,10.337
				c0.985,1.736,1.112,4.033,2.207,5.723c0.75,1.197,2.789,1.61,4.066,2.72c1.86,1.608,2.022,4.53,3.261,5.722
				c1.061,0.99,2.745,0.208,4.087,1.092c2.048,1.318,1.892,4.171,3.808,5.447c1.298,0.332,2.907,0.357,4.071,0.794
				c1.449,0.653,1.219,2.976,2.747,3.544c4.274-0.979,6.499,0.649,8.156,2.989c3.376-1.407,6.221,2.869,9.514,2.736
				c2.193-0.1,3.177-1.864,4.632-1.368c2.123,0.719,1.684,4.688,4.642,3.812h0.252c0.464-0.625,2.07-0.107,3.011-0.268
				c0.67-0.227-0.321-2.15,0.796-1.908c1.327-0.135,3.188,0.278,4.091-0.268c2.019,4.486,8.348,0.679,10.889-0.826
				c1.684,0.673,2.458,1.372,4.086,1.372c3.212-0.042,5.232-4.249,8.704-2.464c2.516-2.279,5.562-4.032,6.79-7.607
				c5.022-0.526,9.579-5.178,13.622-8.987c7.045-6.664,11.735-14.072,15.519-23.683c2.538-6.523,5.777-12.999,4.064-20.662
				c0.543-0.725,2.36-0.19,2.464-1.384c-0.187-2.666-3.445-4.631-3.008-7.069c0.31-1.63,2.284-1.058,2.171-3.254
				c-1.882-1.196-1.656-4.512-2.966-6.274c1.128-2.021-0.081-4.269-0.293-6.521c4.714-0.028,9.787-1.668,12.803,1.082
				c6.675-3.107,13.463-6.11,20.668-8.709c-0.243,11.792,3.835,18.062,13.884,18.789c10.018,0.723,22.168-3.629,29.942-5.187
				c4.429,4.46,8.646,7.881,15.513,9.536c6.427,1.553,13.288,3.834,21.213,3.802c28.829-0.075,51.315-19.342,52.795-45.971
				C586.705,356.188,570.408,339.247,550.575,330.904 M228.623,345.615c-0.537-3.103,1.685-3.386,2.201-5.46
				c0.262,0,0.315,0.231,0.547,0.287l0.67-0.96l0.96-0.679v-0.538c1.242,0.177,1.684-0.496,2.178-1.091
				c-0.134-0.96-1.195-0.544-0.547-1.63c0.851-0.725,2.096,0.542,2.727-0.543c-0.296-0.733-1.665-0.341-1.641-1.372
				c0.601-1.273,1.426-1.014,2.721-0.546c0.235-1.533-1.347-1.664-0.544-2.979c0.935-0.23,1.044,0.384,1.888,0.258
				c0.604-0.906-1.109-1.397,0-2.428c0.78-0.239,0.704,0.375,1.38,0.254c0.433-0.254,0.279-1.14,0.539-1.629
				c2.408,0.142,4.376-0.163,6.53-0.261c0.205,4.33,1.26,7.788,1.086,12.505c-0.391,0.16-0.671,0.414-0.834,0.839l0.702,1.115
				l-0.147,1.313c1.108,0.183,1.554-0.26,2.454-0.26C246.007,345.178,235.921,349.842,228.623,345.615 M243.593,322.749
				c1.789,0.799,0.909-0.679,1.92-1.347c1.194,0.078,1.036,1.497,1.623,2.176c-0.564,0.672-1.882,0.646-3.001,0.798
				C243.987,323.803,243.466,323.601,243.593,322.749 M254.212,350.52c-2.042-0.346-4.091-0.655-6.259-0.828
				c1.625-0.837,4.028-0.862,6.002-1.354C253.749,349.351,254.398,349.503,254.212,350.52 M253.956,272.963
				c-5.308,2.638-8.91,7.04-6.819,13.593c0.374,1.122,1.277,2.355,1.348,3.525c0.164,2.227-1.828,4.246-1.624,6.262
				c-1.221,0.242-2.433,0.467-3.527,0.837c-0.621,0.101-0.098,1.317-0.282,1.887c-1.636-0.338-2.257-1.731-3.269-2.724
				c0.027-7.793-2.331-15.12-1.888-22.033c0.619-10.126,9.378-13.89,19.328-15.231h0.254
				C257.735,262.836,255.173,268.713,253.956,272.963 M429.185,292.003c0.438,0.571,0.908,1.11,1.09,1.912
				c-0.622,0.081-1.009,0.413-1.89,0.261C428.309,293.113,428.954,292.776,429.185,292.003 M398.184,243.28
				c3.858,1.829,10.596,8.236,13.051,11.981c2.598,3.948,4.459,9.394,6.814,14.148c2.435,5.01,5.234,9.585,6.527,14.427
				c3.832,14.484-9.74,12.803-22.867,12.803c-6.551,0-13.036,0.542-18.244,0.253c-0.461-0.67-0.259-3.469-0.535-4.605
				c-1.716-7.044-10.416-12.645-18.24-10.076c-1.894,0.617-3.732,2.22-5.155,3.522c-1.324,1.215-2.231,3.548-4.635,3.812
				c4.35-16.063,9.217-31.584,12.256-48.988C377.614,240.581,390.568,239.674,398.184,243.28 M349.464,297.181
				c-0.938-0.082-2.211,0.207-2.727-0.289c2.409-19.349,10.056-35.842,12.797-55.795c-0.237-1.581,2.227-0.466,3.262-0.8
				C360.083,260.685,353.011,277.031,349.464,297.181 M370.951,230.508c2.183,1.812,5.188,2.798,7.074,4.888
				c-3.15,0.084-6.107-0.053-8.957-0.283C369.477,233.357,370.467,232.159,370.951,230.508 M364.98,227.247
				c0.693,0.904,1.963,1.288,2.716,2.169c-0.415,2.027-1.218,3.684-2.17,5.164c-13.116,0.844-22.179-4.675-32.667-7.333
				C343.321,226.388,354.119,227.557,364.98,227.247 M341.848,234.027c-3.811,0.829-8.741,0.392-9.251-2.974
				C335.596,232.117,339.046,232.733,341.848,234.027 M333.138,239.472c7.716-0.105,15.159,0.078,22.312,0.542
				c-0.654,11.106-4.177,19.759-6.53,29.683c-1.864,7.9-3.607,15.72-6.528,22.844c-2.357-14.5-3.107-30.637-16.865-33.744
				c-0.338-3.842-2.022-8.479-0.542-11.973C325.915,244.595,331.822,241.77,333.138,239.472 M337.748,290.37
				c-6.652-6.12-8.672-16.888-10.877-27.482C335.813,266.72,337.004,278.344,337.748,290.37 M319.259,256.9
				c-1.021,0-1.593-0.415-2.175-0.828c-0.029-1.375,0.929-1.761,1.343-2.719C319.778,253.454,319.077,255.632,319.259,256.9
				 M320.601,261.256c1.61,6.393,3.245,12.742,4.382,19.575c-3.004-2.716-2.934-7.686-4.896-11.135
				c-1.53-2.617-4.097-2.927-6.266-4.924c0.05-1.731,0.773-2.821,0.798-4.604C316.929,260.215,318.483,261.02,320.601,261.256
				 M277.348,241.387c5.75-4.975,11.756-10.386,17.946-15.234c3.263,0.362,7.644,0.517,11.454,0.804
				c3.647,0.26,8.027-0.026,11.14,0.827c4.706,1.272,7.721,6.115,11.443,7.88c-2.3,1.395-4.899,2.748-6.542,4.893
				c-1.562,2.072-2.101,5.1-3.812,7.094c-0.824,0.96-2.206,1.326-2.985,2.185c-1.396,1.498-1.654,3.155-2.999,4.61
				c-8.655-7.311-25.338-6.584-40.543-7.329C272.686,244.316,275.509,242.966,277.348,241.387 M270.82,250.916
				c15.898,0.059,32.219-0.311,40.534,7.335c0.134,2.49-0.909,3.833-1.892,5.179c-3.365-0.363-4.088-3.344-6.011-5.179
				c-9.835-0.187-19.76-2.545-28.565,0c0.463,2.146-1.527,6.161-0.799,9.523c0.334,1.534,1.209,2.469,2.178,3.553
				c0.023,0.826-0.862,0.771-0.549,1.895c0.802,2.277,3.983,2.174,4.091,5.175c-2.952-1.604-6.842-2.252-9.814-3.806
				c2.537-3.989-1.275-5.515-5.439-5.181C266.571,263.174,268.877,257.208,270.82,250.916 M315.991,426.152
				c-0.778-6.613,1.146-12.777,2.985-17.669c4.527,2.637,8.716,5.597,13.078,8.418C333.869,426.152,323.194,425.066,315.991,426.152
				 M330.681,453.11c-4.953-4.214-9.766-8.544-11.969-15.51c5.134-2.045,15.7-7.435,18.237-0.836
				C339.259,442.771,331.588,447.882,330.681,453.11 M326.871,399.493c3.268-3.808,10.415-5.18,17.151-4.636
				c-0.127,3.959,0.155,7.486,0.26,11.163c-1.741,0.776-3.265,1.818-5.159,2.463C335.37,405.146,329.616,403.82,326.871,399.493
				 M341.558,458.559c2.028-6.605,2.229-18.192,10.619-17.438c1.943,5.34,3.964,10.542,5.732,16.061
				C354.256,459.386,346.737,459.562,341.558,458.559 M368.232,447.936c-4.292-1.528-4.032-7.59-6.519-10.881
				c2.435-2.643,5.025-5.134,6.788-8.445c1.683-0.047,2.693,0.596,4.378,0.544C372.978,435.992,372.281,444.356,368.232,447.936
				 M413.672,395.686c-2.41-9.562-7.876-16.084-13.857-22.046c-0.047-0.852,0.647-1.519,0-2.172
				c-6.267-8.439-19.222-13.393-31.031-17.146c-4.115-1.324-8.109-3.318-11.97-4.094c-2.715-0.512-5.852-0.336-8.696-0.537
				c-15.031-1.074-23.941,3.903-34.044,9.522c-3.34,1.872-7.089,3.347-8.413,5.726c-3.307,1.861-6.146,5.133-8.991,8.421
				c-2.635,3.055-6.215,6.501-7.61,9.79c-0.397,0.938-0.181,1.814-0.291,2.748c-10.18-1.475-20.332-3.602-30.461-5.466
				c-3.266-0.571-6.784-0.726-9.535-2.438c3.269-3.734,8.16-5.803,12.253-8.701c2.101,6.273,7.983,9.062,15.238,11.421
				c2.527,0.83,6.577,2.952,8.436,2.718c1.455-0.177,3.624-3.521,5.437-5.723c8.147-9.917,17.303-20.253,30.464-25.299
				c7.49-2.854,16.014-5.316,26.419-4.62c17.518,1.165,36.323,5.542,46.238,14.144c3.686,3.183,7.383,7.792,10.619,12.255
				c4.488,6.162,8.292,11.886,10.337,20.124c4.068-0.959,7.384-1.113,11.71-1.894c0.161,2.462,0.627,4.635,0.547,7.339
				C421.959,398.659,418.39,396.614,413.672,395.686 M381.04,329.563c-17.023-10.135-33.91-20.491-50.359-31.029
				c2.026-0.417,3.419-1.486,4.896-2.44c33.263,21.632,65.896,43.855,99.048,65.583C417.556,351.939,398.931,340.208,381.04,329.563
				 M451.232,394.313c-5.542,3.079-10.127,6.7-17.944,7.613c-0.19-4.094-1.199-7.325-1.378-11.425
				c8-0.871,17.305-3.233,25.044-4.342c2.185-0.312,3.762,1.108,5.7,1.374C459.186,390.165,455.202,392.11,451.232,394.313
				 M460.764,417.443c-3.935-3.391-6.268-15.487-1.088-19.318c5.851,2.331,12.839,3.494,19.581,4.89
				c-0.208,4.586,0.419,8.314,0.285,12.795C473.95,416.901,467.579,418.461,460.764,417.443 M525.808,353.232
				c0.309,3.236,1.035,6.035,1.088,9.531c-0.857-0.512-1.555-1.189-1.921-2.17c0.21-0.808,0.083-1.946,0.833-2.197
				C524.805,357.401,522.751,353.545,525.808,353.232 M510.835,379.627c-0.264-2.46,0.384-3.964,1.374-5.183
				c1.787,1.407,3.136,3.22,4.061,5.441C514.953,379.319,512.595,379.782,510.835,379.627 M527.981,400.575
				c-5.026-0.953-10.801-3.542-13.88-7.348c1.422-5.413,8.442-1.117,13.341-1.35C528.135,394.284,530.137,398.569,527.981,400.575
				 M540.236,373.64c-0.338-1.236,0.963-0.852,1.091-1.63l-0.527-1.183l-0.306-1.274c-0.903,0.077-1.866,0.988-2.721,0.279
				c-0.57-0.563,0.341-1.056,0.539-1.628l-1.077-0.836l-0.815-1.077c-2.271,1.267-4.398-0.854-6.523-1.352
				c-0.228-3.958-0.567-7.796-0.831-11.708c7.054,0.569,11.53,3.728,15.229,7.614l0.834,1.089l0.808,1.094
				c0.979-0.912,2.277,0.902,1.626,1.625l0.962,0.679l0.678,0.959c2.193,1.267,2.821,4.091,3.257,7.069
				C549.249,372.767,544.17,374.261,540.236,373.64 M542.67,397.033c-0.598-3.188-0.545-7.048-0.545-10.873
				c2.829,0.901,5.077,2.353,7.622,3.542C548.368,393.095,545.571,395.138,542.67,397.033 M552.46,381.809
				c-3.724-0.6-7.224-1.48-9.79-3.268c2.901-0.727,8-2.902,10.331-0.831C553.163,379.417,552.591,380.382,552.46,381.809"/>
			
				<line fill="none" stroke="#231F20" stroke-width="4" stroke-miterlimit="10" x1="245.071" y1="357.329" x2="231.814" y2="354.852"/>
			<line display="none" fill="#FFFFFF" x1="-548.817" y1="330.329" x2="-561.6" y2="327.94"/>
		</g>
		<g>
			<path fill="#FFF200" stroke="#231F20" stroke-width="3" stroke-miterlimit="10" d="M788.178,357.936
				c-0.958-0.958-1.757-1.967-2.396-3.035c-0.639-1.063-1.277-2.126-1.917-3.195c-0.639-1.063-1.173-2.126-1.597-3.194
				c-0.639-1.063-1.173-2.181-1.597-3.354c-0.429-1.168-0.854-2.286-1.278-3.354c-0.429-1.063-0.798-2.181-1.118-3.354
				c-0.32-1.168-0.589-2.286-0.799-3.354c-0.214-0.424-0.375-0.904-0.479-1.438c-0.11-0.529-0.16-1.118-0.16-1.757
				c-0.215-0.424-0.32-0.904-0.32-1.438c0-0.529,0-1.118,0-1.757c-0.214-0.424-0.319-0.903-0.319-1.438c0-0.529,0-1.118,0-1.757
				c0-0.424,0-0.744,0-0.958c0-0.21,0-0.529,0-0.958c0-0.209,0-0.479,0-0.798c0-0.32,0-0.584,0-0.799c0-1.063,0-2.126,0-3.194
				c0-1.063,0.105-2.236,0.319-3.514c0-1.063,0.105-2.126,0.32-3.194c0.209-1.063,0.424-2.126,0.639-3.194
				c0.424-2.341,0.903-4.522,1.438-6.549c0.529-2.021,1.223-4.098,2.076-6.229c0.849-2.126,1.647-4.153,2.396-6.069
				c0.744-1.917,1.542-3.723,2.396-5.43c0.849-1.702,1.757-3.459,2.715-5.271c0.958-1.807,1.862-3.459,2.715-4.951
				c0.424-0.849,0.849-1.647,1.278-2.396c0.424-0.744,0.958-1.438,1.597-2.076c0.424-0.849,0.849-1.597,1.278-2.236
				c0.424-0.639,0.848-1.278,1.278-1.917c0.848-1.278,1.647-2.5,2.396-3.673c0.744-1.168,1.542-2.181,2.396-3.035
				c0.848-1.063,1.597-1.917,2.236-2.556c0.639-0.639,1.063-1.168,1.278-1.597c0.424-0.424,0.849-0.958,1.278-1.597
				c0.849,0,1.702,0,2.555,0c1.063,0,2.236,0,3.514,0s2.875,0,4.792,0c1.702,0,3.514,0,5.43,0c1.917,0,3.938,0,6.069,0
				c1.917,0,3.993,0,6.229,0c2.236,0,4.417,0,6.549,0c1.063,0,2.021,0,2.875,0c0.848,0,1.807,0,2.875,0c0.848,0,1.757,0,2.715,0
				c0.958,0,1.862,0,2.715,0c1.917,0,3.778,0,5.59,0c1.807,0,3.563,0,5.271,0c1.702,0,3.244,0,4.632,0c1.383,0,2.5,0,3.354,0
				c1.063,0,1.967,0,2.715,0c0.744,0,1.328,0,1.757,0c-1.917,2.985-3.729,5.91-5.43,8.785c-1.707,2.875-3.194,5.59-4.472,8.146
				c-1.493,2.77-2.77,5.381-3.833,7.826c-1.068,2.451-2.131,4.847-3.194,7.188c-0.854,2.346-1.707,4.632-2.555,6.868
				c-0.854,2.236-1.493,4.527-1.917,6.868c-0.429,2.131-0.749,4.208-0.958,6.229c-0.215,2.026-0.32,3.993-0.32,5.91
				c0,1.492,0.05,2.93,0.16,4.312c0.104,1.387,0.264,2.715,0.479,3.993c0.424,1.278,0.798,2.556,1.118,3.833
				c0.319,1.278,0.688,2.451,1.118,3.514c0.424,1.278,0.958,2.556,1.597,3.833c0.639,1.278,1.278,2.451,1.917,3.514
				c0.639,1.278,1.382,2.505,2.236,3.673c0.849,1.173,1.702,2.291,2.556,3.354c0.424,0.429,0.798,0.908,1.118,1.437
				c0.32,0.534,0.689,1.014,1.118,1.438c0.424,0.43,0.849,0.854,1.278,1.278c0.424,0.429,0.849,0.854,1.278,1.278
				c0.209,0.215,0.424,0.429,0.639,0.639c0.21,0.214,0.424,0.429,0.639,0.639c0.209,0.214,0.424,0.429,0.639,0.639
				c0.209,0.215,0.424,0.429,0.639,0.639c0.209,0.214,0.424,0.479,0.639,0.798c0.209,0.32,0.424,0.589,0.639,0.799
				c0.21,0.214,0.37,0.374,0.479,0.479c0.104,0.11,0.264,0.16,0.479,0.16c0,0.215,0.05,0.375,0.16,0.479
				c0.105,0.109,0.265,0.16,0.479,0.16c2.765,2.77,5.321,5.43,7.667,7.986c2.341,2.556,4.472,5.111,6.389,7.667
				c1.917,2.556,3.619,4.951,5.111,7.188c1.487,2.236,2.875,4.422,4.153,6.548c1.063,2.132,2.021,4.263,2.875,6.39
				c0.848,2.131,1.597,4.262,2.236,6.389c0.639,2.131,1.118,4.152,1.438,6.069c0.319,1.916,0.479,3.833,0.479,5.749
				c0,0.215,0,0.43,0,0.64c0,0.214,0,0.429,0,0.639c0,0.215,0,0.429,0,0.639c0,0.215,0,0.43,0,0.639
				c-0.214,0.215-0.319,0.43-0.319,0.639c0,0.215,0,0.43,0,0.64c0,0.214,0,0.429,0,0.639c0,0.215,0,0.429,0,0.639
				c-0.214,0.43-0.375,0.854-0.479,1.278c-0.11,0.429-0.16,0.854-0.16,1.277c0,0.215,0,0.43,0,0.639c0,0.215,0,0.43,0,0.639
				c-0.215,0.215-0.32,0.375-0.32,0.479c0,0.109,0,0.27,0,0.479c-0.639,2.556-1.438,5.11-2.396,7.666
				c-0.958,2.556-2.076,5.111-3.354,7.667s-2.771,5.166-4.472,7.826c-1.707,2.665-3.624,5.38-5.75,8.146
				c-2.131,2.771-4.312,5.59-6.548,8.465c-2.236,2.875-4.527,5.91-6.868,9.104c-2.555,3.194-5.111,6.498-7.667,9.902
				c-2.555,3.409-5.326,6.818-8.305,10.222c-1.068,0-2.131,0-3.194,0c-1.068,0-2.396,0-3.993,0s-3.464,0-5.59,0
				c-2.131,0-4.312,0-6.548,0c-2.236,0-4.527,0-6.868,0c-2.346,0-4.792,0-7.347,0s-5.111,0-7.667,0
				c-0.215-0.215-0.429-0.319-0.639-0.319c-0.214,0-0.429,0-0.639,0c-0.214,0-0.429,0-0.639,0c-0.215,0-0.429,0-0.639,0
				c-0.214,0-0.374,0-0.479,0c-0.11,0-0.27,0-0.479,0c-0.215,0-0.375,0-0.479,0c-0.11,0-0.27,0-0.479,0c-2.556,0-5.061,0-7.507,0
				c-2.451,0-4.846,0-7.188,0c-2.346,0-4.632,0-6.868,0c-2.236,0-4.422,0-6.548,0c-2.131,0-4.153,0-6.069,0
				c-1.917,0-3.514,0-4.792,0c-1.278,0-2.396,0-3.354,0c-0.958,0-1.652,0-2.076,0c4.896-4.682,9.473-9.264,13.736-13.735
				c4.257-4.473,8.091-8.625,11.5-12.458c3.619-3.834,6.918-7.397,9.903-10.701c2.979-3.3,5.64-6.334,7.986-9.104
				c2.341-2.765,4.312-5.431,5.91-7.986c1.597-2.555,3.035-4.896,4.312-7.027c1.063-2.341,1.917-4.577,2.555-6.708
				c0.639-2.126,0.958-4.258,0.958-6.389v-0.319c0-0.21,0-0.425,0-0.639c-0.214,0-0.319-0.105-0.319-0.32c0-0.209,0-0.424,0-0.639
				c0-0.209,0-0.369,0-0.479c0-0.105,0-0.265,0-0.479c0-0.21,0-0.424,0-0.639c0-0.21,0-0.425,0-0.639
				c-0.215-1.488-0.639-2.98-1.278-4.473c-0.639-1.487-1.388-2.979-2.236-4.472c-0.854-1.702-1.867-3.354-3.035-4.951
				c-1.173-1.598-2.506-3.245-3.993-4.952c-1.492-1.701-3.089-3.514-4.792-5.43c-1.707-1.917-3.514-3.938-5.431-6.069
				c-1.917-2.341-3.993-4.682-6.229-7.028c-2.236-2.341-4.527-4.896-6.868-7.666v-0.958
				C790.04,359.693,789.136,358.894,788.178,357.936z M883.85,234.154l57.818-4.792l-16.291,88.484l-53.666,1.597L883.85,234.154z"
				/>
			<path fill="#FFF200" stroke="#231F20" stroke-width="3" stroke-miterlimit="10" d="M971.21,479.322
				c-3.089-2.021-5.909-4.203-8.465-6.549c-2.556-2.341-4.847-4.951-6.868-7.826c-2.026-2.875-3.783-5.909-5.271-9.104
				c-1.492-2.98-2.875-6.334-4.153-10.062c-1.277-3.724-2.236-7.717-2.875-11.979c-0.854-4.258-1.437-8.73-1.757-13.417
				c-0.319-4.682-0.479-9.688-0.479-15.014c0-4.682,0.105-9.583,0.319-14.694c0.21-5.11,0.639-10.432,1.278-15.972
				c0.424-5.535,1.063-11.285,1.917-17.25c0.849-5.959,1.807-12.243,2.875-18.847c1.063-6.389,2.236-13.147,3.514-20.284
				c1.278-7.133,2.661-14.535,4.153-22.201c1.487-7.667,3.084-15.598,4.792-23.798c1.702-8.196,3.514-16.771,5.431-25.715
				c1.063,0,2.021,0,2.875,0c1.063,0,2.286,0,3.673,0c1.383,0,3.14,0,5.271,0c1.917,0,3.883,0,5.909,0c2.021,0,4.098,0,6.229,0
				c2.341,0,4.632,0,6.868,0s4.522,0,6.868,0c1.702,0,3.459,0,5.271,0c1.807,0,3.563,0,5.271,0c1.702,0,3.404,0,5.111,0
				c1.702,0,3.404,0,5.111,0c1.702,0,3.244,0,4.632,0c1.383,0,2.715,0,3.993,0c1.063,0,2.076,0,3.035,0c0.958,0,1.861,0,2.715,0
				c-2.131,9.159-4.152,17.943-6.069,26.354c-1.917,8.415-3.728,16.666-5.43,24.756c-1.707,7.881-3.354,15.603-4.951,23.159
				c-1.597,7.562-3.145,14.749-4.632,21.562c-1.493,6.818-2.825,13.417-3.993,19.805c-1.173,6.389-2.076,12.458-2.715,18.208
				c-0.854,5.965-1.438,11.555-1.757,16.771c-0.319,5.221-0.375,10.277-0.16,15.174c0,3.623,0.105,7.137,0.319,10.541
				c0.21,3.409,0.639,6.604,1.278,9.583c0.639,2.984,1.383,5.859,2.236,8.625c0.848,2.771,1.917,5.325,3.194,7.666
				c1.063,2.556,2.396,4.901,3.993,7.028c1.597,2.131,3.354,4.152,5.271,6.069c1.917,1.916,4.152,3.623,6.708,5.11
				c2.556,1.493,5.216,2.771,7.986,3.834l32.583-241.815h71.554l-43.763,255.87c-1.493,0-2.985,0-4.472,0c-1.493,0-3.25,0-5.271,0
				c-2.026,0-4.422,0-7.187,0c-2.771,0-5.645,0-8.625,0c-2.985,0-6.069,0-9.264,0s-6.389,0-9.583,0s-6.604,0-10.222,0
				c-0.215,0-0.429-0.109-0.639-0.319c-0.215,0-0.375,0-0.479,0c-0.11,0-0.27,0-0.479,0c-0.215,0-0.429,0-0.639,0
				c-0.215,0-0.43,0-0.639,0c-0.214,0-0.429,0-0.639,0c-0.215,0-0.429,0-0.639,0c-0.214,0-0.429,0-0.639,0c-0.215,0-0.429,0-0.639,0
				c-3.409,0-6.708,0-9.902,0s-6.284,0-9.264,0c-3.194,0-6.229,0-9.104,0s-5.805,0-8.785,0c-2.77,0-5.38,0-7.826,0
				c-2.451,0-4.527,0-6.229,0c-1.917,0-3.514,0-4.792,0s-2.236,0-2.875,0C977.649,483.105,974.295,481.349,971.21,479.322z"/>
			<path fill="#FFF200" stroke="#231F20" stroke-width="3" stroke-miterlimit="10" d="M1162.71,243.098h98.387l12.139,137.039
				l21.402-150.136h61.332c0,0.429-0.16,1.547-0.479,3.354c-0.319,1.812-0.798,4.312-1.438,7.507
				c-0.639,3.194-1.388,7.242-2.235,12.139c-0.854,4.901-1.812,10.542-2.875,16.93c-1.068,6.604-2.187,13.312-3.354,20.125
				c-1.173,6.818-2.396,13.736-3.674,20.764c-0.639,3.409-1.277,6.978-1.917,10.701c-0.639,3.729-1.277,7.402-1.916,11.021
				c-0.854,3.624-1.598,7.347-2.236,11.18c-0.639,3.833-1.277,7.667-1.916,11.5c-1.492,7.881-2.93,15.548-4.312,22.999
				c-1.388,7.457-2.715,14.805-3.993,22.042c-1.278,7.242-2.556,14.27-3.833,21.082c-1.278,6.818-2.451,13.417-3.514,19.806
				c-1.068,6.604-2.027,12.354-2.875,17.25c-0.854,4.901-1.598,8.943-2.236,12.139c-0.639,3.408-1.174,6.817-1.598,10.222
				c0,0.215-0.16,0.374-0.479,0.479c-0.32,0.109-0.694,0.159-1.118,0.159c-0.215,0-0.479,0-0.799,0s-0.589,0-0.799,0
				c-0.429,0.215-0.854,0.319-1.277,0.319c-0.429,0-0.854,0-1.278,0c-0.854,0.215-1.866,0.374-3.034,0.479
				c-1.173,0.109-2.291,0.159-3.354,0.159c-0.639,0-1.228,0-1.757,0c-0.534,0-1.118,0-1.757,0c-0.639,0.215-1.277,0.319-1.916,0.319
				s-1.278,0-1.917,0c-0.854,0.215-1.652,0.375-2.396,0.479c-0.749,0.11-1.438,0.16-2.076,0.16c-0.64,0-1.333,0-2.076,0
				c-0.75,0-1.548,0-2.396,0c-0.854,0.214-1.652,0.319-2.396,0.319c-0.748,0-1.438,0-2.076,0c-0.854,0-1.651,0-2.396,0
				c-0.749,0-1.437,0-2.076,0c-2.346,0.215-4.632,0.374-6.868,0.479c-2.236,0.11-4.527,0.16-6.867,0.16c-2.132,0-4.263,0-6.389,0
				c-2.132,0-4.153,0-6.07,0c-0.854,0-1.756,0-2.715,0c-0.958,0-1.757,0-2.396,0c-0.64,0-1.278,0-1.917,0s-1.173,0.104-1.598,0.319
				c-0.429,0-0.798,0-1.117,0c-0.32,0-0.693,0-1.118,0c-0.215,0-0.429,0-0.639,0l-15.333-143.427l-26.833,143.427h-52.068
				L1162.71,243.098z"/>
			<path fill="#FFF200" stroke="#231F20" stroke-width="3" stroke-miterlimit="10" d="M1377.688,269.611h68.999l-36.735-24.277
				c0,0.429,0.209,0.694,0.639,0.799c0.424,0.109,1.063,0.055,1.917-0.16c1.063-0.209,2.286-0.479,3.673-0.798
				c1.383-0.319,3.035-0.689,4.951-1.118c1.918-0.424,3.834-0.849,5.75-1.278c1.917-0.424,3.938-0.848,6.07-1.277
				c2.126-0.424,4.312-0.904,6.548-1.438c2.236-0.529,4.522-1.008,6.868-1.438c0.209,0,0.424,0,0.639,0l0.319-0.32h0.319
				c1.063-0.209,2.021-0.424,2.875-0.639c0.849-0.209,1.702-0.424,2.556-0.639c1.063,0,2.021-0.105,2.875-0.32
				c0.849-0.209,1.702-0.424,2.556-0.639c1.701-0.424,3.459-0.849,5.271-1.278c1.808-0.424,3.563-0.849,5.271-1.278
				c0.849-0.209,1.647-0.369,2.396-0.479c0.743-0.105,1.438-0.265,2.076-0.479c0.639,0,1.277-0.05,1.916-0.16
				c0.639-0.105,1.278-0.265,1.917-0.479c1.063-0.424,1.967-0.688,2.716-0.798c0.743-0.105,1.327-0.265,1.756-0.479
				c5.535,2.131,10.807,4.422,15.812,6.868c5.002,2.451,9.528,4.846,13.576,7.188c4.258,2.555,8.036,5.111,11.34,7.667
				c3.299,2.555,6.229,5.221,8.785,7.986c2.555,2.77,4.791,5.59,6.708,8.465s3.514,5.805,4.792,8.785
				c1.277,3.194,2.235,6.389,2.875,9.583c0.639,3.194,0.957,6.499,0.957,9.903c0,3.409-0.318,6.868-0.957,10.382
				c-0.64,3.514-1.493,7.187-2.557,11.021c-1.277,3.833-2.77,7.667-4.472,11.5c-1.707,3.833-3.729,7.776-6.069,11.819
				c-2.346,4.048-4.901,8.201-7.666,12.458c-2.771,4.263-5.75,8.625-8.945,13.097c-3.193,4.472-6.603,9.054-10.221,13.735
				c-3.625,4.688-7.457,9.479-11.5,14.375c1.062,0.854,2.181,1.757,3.354,2.715c1.168,0.959,2.286,1.867,3.354,2.716
				c0.424,0.429,0.903,0.854,1.437,1.277c0.529,0.43,1.119,0.749,1.758,0.959c0.424,0.429,0.903,0.853,1.438,1.277
				c0.529,0.429,1.008,0.854,1.438,1.277c1.062,0.854,1.967,1.652,2.715,2.396c0.744,0.748,1.543,1.438,2.396,2.076
				c0.424,0.429,0.798,0.854,1.117,1.277c0.32,0.43,0.689,0.749,1.118,0.959c0.21,0.429,0.529,0.798,0.958,1.117
				c0.425,0.32,0.744,0.694,0.959,1.118c0.424,0.639,0.903,1.278,1.438,1.917c0.529,0.639,0.903,1.277,1.117,1.917
				c0.425,0.639,0.799,1.277,1.119,1.916c0.318,0.639,0.584,1.278,0.798,1.917c0,0.215,0.05,0.479,0.16,0.799
				c0.104,0.319,0.265,0.693,0.479,1.117c0,0.215,0.049,0.479,0.159,0.799c0.104,0.319,0.265,0.694,0.479,1.118
				c0,0.43,0,0.799,0,1.118s0,0.693,0,1.118c0,0.215,0,0.374,0,0.479c0,0.11,0.104,0.27,0.319,0.479c0,0.215,0,0.374,0,0.479
				c0,0.109,0,0.27,0,0.479c0,1.493-0.215,3.145-0.64,4.951c-0.429,1.812-0.958,3.674-1.597,5.591
				c-0.639,1.916-1.492,3.888-2.556,5.909c-1.068,2.026-2.346,4.103-3.833,6.229c-1.493,2.131-3.09,4.422-4.792,6.868
				c-1.707,2.45-3.729,5.061-6.068,7.826c-2.132,2.77-4.582,5.59-7.348,8.465c-2.77,2.875-5.645,5.7-8.625,8.465
				c-0.854,0-1.707,0-2.555,0c-0.854,0-1.918,0-3.195,0s-2.77,0-4.472,0c-1.707,0-3.515,0-5.431,0s-3.833,0-5.75,0
				c-1.916,0-3.889,0-5.909,0c-2.026,0-4.103,0.104-6.229,0.319c-0.215,0-0.43,0-0.639,0c-0.215,0-0.43,0-0.639,0h-0.32
				c-0.214,0-0.429,0-0.639,0c-0.215,0-0.429,0-0.639,0c-2.131,0-4.152,0-6.068,0c-1.918,0-3.834,0-5.75,0c-1.917,0-3.783,0-5.591,0
				c-1.812,0-3.569,0-5.271,0c-1.707,0-3.305,0-4.791,0c-1.493,0-2.771,0-3.834,0c-1.068,0-1.972,0-2.715,0
				c-0.749,0-1.333,0-1.758,0c2.557-2.765,5.057-5.694,7.508-8.784c2.445-3.085,4.736-6.015,6.867-8.785
				c2.342-2.979,4.577-5.854,6.709-8.624c2.126-2.766,4.152-5.431,6.068-7.986c1.917-2.556,3.619-5.056,5.111-7.507
				c1.487-2.445,2.66-4.736,3.514-6.868c1.063-2.341,1.807-4.576,2.236-6.708c0.424-2.126,0.639-4.258,0.639-6.389
				c0-0.639-0.055-1.277-0.16-1.917c-0.109-0.639-0.159-1.277-0.159-1.916c-0.214-0.425-0.429-0.958-0.639-1.598
				c-0.215-0.639-0.429-1.277-0.64-1.916c-0.639-1.063-1.332-2.182-2.076-3.354c-0.748-1.168-1.651-2.286-2.715-3.354
				c-0.639-0.424-1.277-0.903-1.916-1.437c-0.639-0.529-1.278-1.118-1.917-1.758c-0.64-0.424-1.388-0.903-2.236-1.438
				c-0.854-0.528-1.707-1.008-2.556-1.437c-0.854-0.425-1.757-0.849-2.715-1.278c-0.959-0.424-1.972-0.958-3.035-1.597
				c-1.068-0.425-2.131-0.849-3.193-1.278c-1.068-0.424-2.236-0.849-3.514-1.277l-17.57,87.206h-54.304L1377.688,269.611z
				 M1447.166,277.757c-0.11,1.812-0.375,3.674-0.799,5.59c-0.215,2.131-0.589,4.367-1.118,6.708
				c-0.534,2.346-1.013,4.901-1.438,7.667c-0.214,1.493-0.429,2.93-0.639,4.312c-0.215,1.388-0.429,2.825-0.64,4.312
				c-0.214,1.492-0.429,2.93-0.639,4.312c-0.215,1.387-0.429,2.715-0.639,3.993c-0.215,1.493-0.479,2.985-0.799,4.472
				c-0.318,1.493-0.588,2.985-0.799,4.472c-0.214,1.492-0.429,2.985-0.639,4.472c-0.214,1.492-0.429,2.985-0.639,4.472
				c-0.429,2.77-0.908,5.59-1.438,8.465c-0.533,2.875-1.013,5.7-1.438,8.465c-0.429,2.77-0.854,5.431-1.277,7.986
				c-0.43,2.556-0.854,5.112-1.277,7.667c-0.43,2.556-0.799,5.006-1.119,7.348c-0.318,2.346-0.693,4.472-1.117,6.389
				c-0.215,1.916-0.43,3.729-0.639,5.43c-0.215,1.707-0.43,3.305-0.639,4.792c0.424-0.425,0.902-0.903,1.438-1.438
				c0.528-0.529,1.008-1.008,1.438-1.438c0.424-0.424,0.902-0.903,1.438-1.438c0.528-0.529,1.008-1.118,1.438-1.757
				c0.424-0.424,0.902-0.903,1.437-1.438c0.529-0.529,1.118-1.118,1.757-1.757c0.425-0.639,0.904-1.278,1.438-1.917
				c0.529-0.639,1.118-1.277,1.758-1.916c1.062-1.487,2.181-2.98,3.354-4.473c1.168-1.487,2.396-2.979,3.674-4.472
				c0.639-0.849,1.277-1.647,1.916-2.396c0.639-0.744,1.277-1.543,1.917-2.396c0.425-0.848,0.958-1.702,1.597-2.555
				c0.639-0.849,1.278-1.702,1.917-2.556c1.063-1.702,2.181-3.404,3.354-5.111c1.168-1.702,2.285-3.404,3.354-5.111
				c1.063-1.702,2.021-3.459,2.875-5.271c0.849-1.807,1.702-3.564,2.556-5.271c0.425-1.063,0.903-2.181,1.438-3.354
				c0.529-1.168,1.009-2.396,1.438-3.673c0.425-1.278,0.903-2.556,1.438-3.833c0.528-1.277,0.903-2.555,1.118-3.833
				c0.209-0.639,0.369-1.223,0.479-1.757c0.105-0.529,0.266-1.118,0.479-1.757c0-0.424,0.05-0.958,0.159-1.598
				c0.105-0.639,0.266-1.277,0.48-1.917c0-0.639,0.049-1.278,0.159-1.917c0.104-0.639,0.159-1.278,0.159-1.917
				c0.21-0.424,0.32-0.958,0.32-1.597c0-0.639,0-1.278,0-1.917c0-1.702-0.16-3.458-0.479-5.271
				c-0.319-1.807-0.694-3.459-1.118-4.951c-0.639-1.702-1.332-3.354-2.076-4.951c-0.749-1.598-1.652-3.14-2.715-4.632
				c-1.068-1.488-2.346-2.875-3.834-4.153c-1.492-1.278-3.09-2.556-4.791-3.833c-1.917-1.063-3.943-2.126-6.07-3.194
				c-2.131-1.063-4.472-2.021-7.027-2.875v-0.958C1447.43,274.193,1447.271,275.95,1447.166,277.757z"/>
			<path fill="#FFF200" stroke="#231F20" stroke-width="3" stroke-miterlimit="10" d="M1574.938,479.322
				c-3.089-2.021-5.909-4.203-8.465-6.549c-2.556-2.341-4.847-4.951-6.868-7.826c-2.026-2.875-3.783-5.909-5.271-9.104
				c-1.492-2.98-2.875-6.334-4.153-10.062c-1.277-3.724-2.235-7.717-2.875-11.979c-0.854-4.258-1.437-8.73-1.756-13.417
				c-0.32-4.682-0.479-9.688-0.479-15.014c0-4.682,0.104-9.583,0.319-14.694c0.21-5.11,0.639-10.432,1.277-15.972
				c0.425-5.535,1.063-11.285,1.917-17.25c0.849-5.959,1.808-12.243,2.875-18.847c1.063-6.389,2.236-13.147,3.514-20.284
				c1.278-7.133,2.661-14.535,4.153-22.201c1.486-7.667,3.084-15.598,4.791-23.798c1.702-8.196,3.514-16.771,5.431-25.715
				c1.063,0,2.021,0,2.875,0c1.063,0,2.286,0,3.673,0c1.383,0,3.141,0,5.271,0c1.916,0,3.883,0,5.909,0c2.021,0,4.099,0,6.229,0
				c2.341,0,4.632,0,6.867,0c2.236,0,4.522,0,6.868,0c1.702,0,3.459,0,5.271,0c1.807,0,3.564,0,5.271,0c1.701,0,3.404,0,5.111,0
				c1.701,0,3.403,0,5.11,0c1.702,0,3.244,0,4.632,0c1.383,0,2.715,0,3.993,0c1.063,0,2.076,0,3.034,0c0.959,0,1.861,0,2.715,0
				c-2.131,9.159-4.152,17.943-6.068,26.354c-1.917,8.415-3.729,16.666-5.431,24.756c-1.707,7.881-3.354,15.603-4.951,23.159
				c-1.597,7.562-3.145,14.749-4.632,21.562c-1.492,6.818-2.825,13.417-3.993,19.805c-1.173,6.389-2.076,12.458-2.716,18.208
				c-0.854,5.965-1.438,11.555-1.756,16.771c-0.32,5.221-0.375,10.277-0.16,15.174c0,3.623,0.105,7.137,0.319,10.541
				c0.21,3.409,0.64,6.604,1.278,9.583c0.639,2.984,1.383,5.859,2.236,8.625c0.848,2.771,1.916,5.325,3.193,7.666
				c1.063,2.556,2.396,4.901,3.993,7.028c1.597,2.131,3.354,4.152,5.271,6.069c1.917,1.916,4.152,3.623,6.709,5.11
				c2.555,1.493,5.215,2.771,7.985,3.834l32.583-241.815h71.554l-43.763,255.87c-1.492,0-2.984,0-4.473,0c-1.492,0-3.249,0-5.271,0
				c-2.026,0-4.422,0-7.187,0c-2.771,0-5.646,0-8.625,0c-2.985,0-6.07,0-9.264,0c-3.195,0-6.389,0-9.584,0
				c-3.193,0-6.604,0-10.222,0c-0.215,0-0.429-0.109-0.639-0.319c-0.215,0-0.374,0-0.479,0c-0.109,0-0.27,0-0.479,0
				c-0.215,0-0.43,0-0.639,0c-0.215,0-0.43,0-0.64,0c-0.214,0-0.429,0-0.639,0c-0.215,0-0.429,0-0.64,0c-0.214,0-0.429,0-0.639,0
				c-0.215,0-0.429,0-0.639,0c-3.408,0-6.708,0-9.902,0s-6.284,0-9.264,0c-3.194,0-6.229,0-9.104,0s-5.805,0-8.785,0
				c-2.77,0-5.381,0-7.826,0c-2.451,0-4.527,0-6.229,0c-1.917,0-3.514,0-4.792,0s-2.236,0-2.875,0
				C1581.377,483.105,1578.023,481.349,1574.938,479.322z"/>
			<path fill="#FFF200" stroke="#231F20" stroke-width="3" stroke-miterlimit="10" d="M1769.953,483.315
				c-0.215-0.425-0.59-1.063-1.119-1.917c-0.533-0.849-1.117-1.807-1.756-2.875c-0.215-0.424-0.535-0.958-0.959-1.597
				c-0.43-0.64-0.748-1.278-0.958-1.917c-0.43-0.639-0.799-1.277-1.118-1.917c-0.319-0.639-0.693-1.382-1.118-2.235
				c-0.639-1.487-1.333-3.085-2.076-4.792c-0.749-1.702-1.548-3.618-2.396-5.75c-0.854-1.916-1.652-3.938-2.396-6.069
				c-0.748-2.126-1.438-4.362-2.076-6.708c-0.854-2.341-1.598-4.842-2.236-7.507c-0.639-2.66-1.277-5.375-1.916-8.146
				c-0.639-2.766-1.174-5.59-1.598-8.465c-0.43-2.875-0.854-5.91-1.277-9.104c-0.215-3.194-0.43-6.389-0.639-9.583
				c-0.215-3.194-0.32-6.493-0.32-9.902c0-5.75,0.369-11.71,1.119-17.889c0.743-6.174,1.861-12.563,3.354-19.167
				c1.702-6.389,3.674-12.987,5.91-19.805c2.235-6.813,4.841-13.84,7.826-21.083c2.979-7.028,6.707-14.16,11.18-21.402
				c4.473-7.237,9.688-14.479,15.652-21.722c5.959-7.237,12.618-14.535,19.965-21.882c7.348-7.347,15.493-14.744,24.438-22.201
				c1.277,0,2.555,0,3.833,0s2.925,0,4.951,0c2.021,0,4.417,0,7.188,0c2.556,0,5.271,0,8.146,0s5.695,0,8.465,0
				c2.98,0,6.015,0,9.104,0c3.085,0,6.229,0,9.423,0c2.342,0,4.736,0,7.188,0c2.445,0,4.736,0,6.867,0c2.342,0,4.633,0,6.869,0
				s4.416,0,6.549,0c2.34,0,4.471,0,6.389,0c1.916,0,3.617,0,5.111,0c1.701,0,3.193,0,4.471,0s2.445,0,3.514,0
				c-11.713,9.374-22.471,18.527-32.262,27.472c-9.799,8.944-18.639,17.569-26.514,25.875c-7.881,8.52-14.75,16.666-20.604,24.437
				c-5.86,7.776-10.701,15.388-14.535,22.839c-4.048,7.243-7.562,14.325-10.541,21.243c-2.985,6.923-5.431,13.472-7.348,19.646
				c-1.916,6.389-3.354,12.408-4.312,18.048c-0.958,5.646-1.438,11.021-1.438,16.132c0,2.771,0.105,5.485,0.32,8.146
				c0.209,2.666,0.424,5.166,0.639,7.507c0.424,2.556,0.848,4.951,1.277,7.188c0.424,2.236,1.062,4.423,1.916,6.549
				c0.64,2.131,1.328,4.152,2.077,6.069c0.743,1.916,1.542,3.729,2.396,5.431c0.849,1.707,1.702,3.354,2.556,4.951
				c0.849,1.597,1.702,3.034,2.556,4.312c0.848,1.492,1.646,2.875,2.396,4.152c0.743,1.277,1.438,2.45,2.077,3.514
				c0.639,1.068,1.327,2.076,2.076,3.035c0.743,0.958,1.542,1.757,2.395,2.396c0.64,0.854,1.278,1.492,1.918,1.917
				c0.639,0.429,1.062,0.853,1.277,1.277c0.424,0.215,0.848,0.534,1.277,0.958l17.569-125.219h67.401l-23,136.719H1770.91
				C1770.696,484.063,1770.377,483.744,1769.953,483.315z"/>
			<path fill="#FFF200" stroke="#231F20" stroke-width="3" stroke-miterlimit="10" d="M1956.502,483.315
				c-0.215-0.425-0.589-1.063-1.118-1.917c-0.534-0.849-1.118-1.807-1.757-2.875c-0.215-0.424-0.534-0.958-0.958-1.597
				c-0.43-0.64-0.749-1.278-0.959-1.917c-0.429-0.639-0.799-1.277-1.118-1.917c-0.319-0.639-0.693-1.382-1.117-2.235
				c-0.64-1.487-1.333-3.085-2.077-4.792c-0.748-1.702-1.547-3.618-2.396-5.75c-0.854-1.916-1.652-3.938-2.396-6.069
				c-0.749-2.126-1.438-4.362-2.076-6.708c-0.854-2.341-1.598-4.842-2.236-7.507c-0.639-2.66-1.278-5.375-1.917-8.146
				c-0.639-2.766-1.173-5.59-1.597-8.465c-0.43-2.875-0.854-5.91-1.278-9.104c-0.214-3.194-0.429-6.389-0.639-9.583
				c-0.215-3.194-0.319-6.493-0.319-9.902c0-5.75,0.369-11.71,1.118-17.889c0.743-6.174,1.861-12.563,3.354-19.167
				c1.702-6.389,3.674-12.987,5.91-19.805c2.236-6.813,4.842-13.84,7.826-21.083c2.979-7.028,6.708-14.16,11.181-21.402
				c4.472-7.237,9.688-14.479,15.652-21.722c5.959-7.237,12.617-14.535,19.965-21.882c7.347-7.347,15.492-14.744,24.437-22.201
				c1.278,0,2.556,0,3.833,0c1.278,0,2.926,0,4.952,0c2.021,0,4.417,0,7.187,0c2.556,0,5.271,0,8.146,0s5.694,0,8.465,0
				c2.979,0,6.015,0,9.104,0c3.085,0,6.229,0,9.424,0c2.341,0,4.736,0,7.188,0c2.445,0,4.736,0,6.867,0c2.342,0,4.632,0,6.868,0
				s4.417,0,6.549,0c2.341,0,4.472,0,6.389,0s3.618,0,5.111,0c1.701,0,3.194,0,4.472,0s2.445,0,3.514,0
				c-11.714,9.374-22.471,18.527-32.263,27.472c-9.798,8.944-18.638,17.569-26.514,25.875c-7.881,8.52-14.749,16.666-20.604,24.437
				c-5.86,7.776-10.701,15.388-14.534,22.839c-4.048,7.243-7.562,14.325-10.542,21.243c-2.984,6.923-5.431,13.472-7.347,19.646
				c-1.917,6.389-3.354,12.408-4.312,18.048c-0.959,5.646-1.438,11.021-1.438,16.132c0,2.771,0.104,5.485,0.319,8.146
				c0.21,2.666,0.424,5.166,0.639,7.507c0.425,2.556,0.849,4.951,1.278,7.188c0.424,2.236,1.062,4.423,1.916,6.549
				c0.639,2.131,1.328,4.152,2.076,6.069c0.744,1.916,1.543,3.729,2.396,5.431c0.849,1.707,1.702,3.354,2.555,4.951
				c0.849,1.597,1.702,3.034,2.556,4.312c0.849,1.492,1.647,2.875,2.396,4.152c0.743,1.277,1.438,2.45,2.076,3.514
				c0.639,1.068,1.327,2.076,2.076,3.035c0.743,0.958,1.542,1.757,2.396,2.396c0.639,0.854,1.278,1.492,1.917,1.917
				c0.639,0.429,1.063,0.853,1.277,1.277c0.425,0.215,0.849,0.534,1.278,0.958l17.568-125.219h67.401l-22.999,136.719H1957.46
				C1957.245,484.063,1956.926,483.744,1956.502,483.315z"/>
			<path fill="#FFF200" stroke="#231F20" stroke-width="3" stroke-miterlimit="10" d="M2130.433,419.906
				c-0.109-0.104-0.27-0.369-0.479-0.798c-0.215-0.425-0.375-0.959-0.479-1.598c-0.11-0.639-0.374-1.383-0.799-2.236
				c-0.215-0.848-0.479-1.807-0.799-2.874c-0.319-1.063-0.693-2.236-1.117-3.515c-0.215-1.277-0.479-2.715-0.799-4.312
				c-0.319-1.597-0.694-3.244-1.118-4.951c-0.43-1.701-0.799-3.618-1.118-5.75c-0.319-2.126-0.693-4.257-1.118-6.389
				c-0.215-2.341-0.479-4.682-0.799-7.027c-0.319-2.341-0.693-4.896-1.117-7.666c-0.215-2.766-0.479-5.641-0.799-8.625
				c-0.319-2.979-0.479-6.069-0.479-9.264c-0.215-3.195-0.319-6.549-0.319-10.062s0-7.188,0-11.021c0-2.98,0-5.959,0-8.944
				c0-2.98,0.104-6.069,0.319-9.264c0-3.194,0.16-6.548,0.479-10.062c0.319-3.514,0.584-7.077,0.799-10.701
				c0.209-3.619,0.479-7.237,0.798-10.861c0.319-3.619,0.689-7.347,1.118-11.18c0.425-3.833,0.903-7.826,1.438-11.979
				c0.529-4.153,1.118-8.355,1.757-12.618c0.639,0,1.383,0,2.236,0c0.639,0,1.487,0,2.556,0c1.062,0,2.341,0,3.833,0
				c1.487,0,3.034,0,4.632,0s3.244,0,4.951,0c1.702,0,3.459,0,5.271,0c1.808,0,3.778,0,5.91,0c0.209,0.214,0.479,0.319,0.799,0.319
				c0.319,0,0.584,0,0.798,0c0.425,0,0.799,0,1.118,0s0.584,0,0.799,0c0.21,0,0.369,0,0.479,0c0.104,0,0.264,0,0.479,0
				c0.21,0,0.425,0,0.639,0c0.21,0,0.425,0,0.64,0c0.424,0,0.743,0,0.958,0c0.21,0,0.369,0,0.479,0c0.104,0,0.265,0,0.479,0
				c1.702,0,3.354,0,4.951,0c1.598,0,3.14,0,4.632,0c0.849,0,1.647,0,2.396,0c0.743,0,1.542,0,2.396,0c0.639,0,1.328,0,2.076,0
				c0.744,0,1.542,0,2.396,0c1.488,0,2.875,0,4.153,0c1.277,0,2.556,0,3.833,0s2.396,0,3.354,0c0.958,0,1.861,0,2.715,0
				c-1.492,7.028-2.771,13.791-3.833,20.284c-1.068,6.499-2.026,12.618-2.875,18.368c-0.854,5.965-1.652,11.555-2.396,16.771
				c-0.749,5.221-1.333,10.277-1.758,15.173c-0.429,4.687-0.798,9.214-1.117,13.576c-0.319,4.367-0.589,8.465-0.799,12.298
				c-0.215,3.833-0.374,7.457-0.479,10.861c-0.109,3.409-0.159,6.604-0.159,9.583c0,2.132,0,4.153,0,6.069
				c0,1.917,0.104,3.729,0.319,5.431c0,1.707,0.05,3.304,0.159,4.792c0.105,1.492,0.265,2.874,0.479,4.152
				c0.21,1.492,0.369,2.825,0.479,3.993c0.104,1.173,0.265,2.291,0.479,3.354c0.21,0.854,0.369,1.757,0.479,2.716
				c0.104,0.958,0.265,1.866,0.479,2.715c0.209,0.854,0.369,1.598,0.479,2.236c0.105,0.639,0.265,1.277,0.479,1.916
				c0.21,0.64,0.369,1.118,0.479,1.438c0.104,0.319,0.264,0.694,0.479,1.118c0.21,0.215,0.369,0.479,0.479,0.799
				c0.104,0.319,0.159,0.589,0.159,0.799c0,0.215,0.105,0.319,0.32,0.319l45.999-179.205h78.262l-77.942,256.189h-61.972
				l13.098-65.165l-54.943,0.319C2130.593,419.856,2130.538,420.017,2130.433,419.906z"/>
		</g>
	</g>
</g>
</svg>
