<?xml version="1.0" encoding="utf-8"?>
<!-- Generator: Adobe Illustrator 15.1.0, SVG Export Plug-In . SVG Version: 6.00 Build 0)  -->
<!DOCTYPE svg PUBLIC "-//W3C//DTD SVG 1.1//EN" "http://www.w3.org/Graphics/SVG/1.1/DTD/svg11.dtd">
<svg version="1.1" id="Layer_1" xmlns="http://www.w3.org/2000/svg" xmlns:xlink="http://www.w3.org/1999/xlink" x="0px" y="0px"
	 width="720px" height="720px" viewBox="0 0 720 720" enable-background="new 0 0 720 720" xml:space="preserve">
<g>
	<g>
		<g>
			<path fill="#231F20" d="M382.1,117.047c17.09-8.789,22.551-27.776,9.688-42.613c-9.366-12.115-27.571-11.357-28.559-28.772
				c0.142-15.378,18.263-30.725,25.296-43.265c-0.92,9.159-0.27,24.764,2.992,34.269c7.541,18.445,22.129,18.358,35.676,30.821
				c22.802,21.979,6.036,38.572-11.975,56.518L382.1,117.047z"/>
			<path fill="#231F20" d="M472.952,151.639c19.218,0.255,32.947-13.952,28.548-33.089c-2.584-15.092-19.019-22.963-11.722-38.805
				c7.338-13.516,30.54-18.569,42.635-26.343c-5.11,7.655-11.857,21.742-13.435,31.667c-1.989,19.828,10.932,26.595,17.05,43.957
				c9.828,30.107-12.763,36.896-37.089,44.295L472.952,151.639z"/>
			<path fill="#231F20" d="M536.449,227.437c16.528,9.804,35.516,4.336,41.245-14.446c5.284-14.373-5.039-29.389,9.188-39.482
				c13.102-8.056,35.733-0.867,50.092-1.574c-8.245,4.087-21.121,12.934-27.434,20.749c-11.612,16.196-3.79,28.503-7.14,46.604
				c-6.496,30.996-29.461,25.618-54.239,19.902L536.449,227.437z"/>
			<path fill="#231F20" d="M554.348,325.472c9.585,16.658,28.807,21.222,43.023,7.674c11.663-9.922,10.048-28.073,27.401-29.876
				c15.365-0.583,31.546,16.796,44.401,23.233c-9.188-0.49-24.748,0.892-34.091,4.598c-18.067,8.406-17.296,22.966-29.107,37.087
				c-20.882,23.809-38.245,7.845-57.019-9.307L554.348,325.472z"/>
			<path fill="#231F20" d="M512.733,429.749c-0.871,19.198,12.887,33.378,32.157,29.592c15.169-2.101,23.56-18.275,39.161-10.471
				c13.274,7.767,17.581,31.118,24.964,43.457c-7.486-5.354-21.352-12.548-31.219-14.445c-19.758-2.621-26.935,10.076-44.48,15.637
				c-30.407,8.856-36.47-13.94-43.084-38.491L512.733,429.749z"/>
			<path fill="#231F20" d="M414.551,496.748c-12.146,14.896-9.557,34.481,8.172,42.932c13.426,7.357,29.809-0.623,37.681,14.948
				c6.024,14.148-4.444,35.462-5.872,49.767c-2.82-8.759-9.656-22.804-16.45-30.21c-14.295-13.883-27.628-7.971-45.031-13.971
				c-29.689-11.019-20.965-32.935-11.634-56.589L414.551,496.748z"/>
			<path fill="#231F20" d="M307.438,497.168c-18.153,6.315-26.218,24.349-15.554,40.841c7.575,13.307,25.708,15.102,24.25,32.486
				c-2.291,15.204-22.378,27.866-31.098,39.298c2.193-8.938,3.735-24.484,1.834-34.351c-4.893-19.315-19.344-21.272-31.017-35.506
				c-19.504-24.953-0.583-39.036,19.766-54.288L307.438,497.168z"/>
			<path fill="#231F20" d="M208.272,431.45c-18.492-5.238-35.441,4.911-36.162,24.539c-1.426,15.245,12.401,27.11,1.238,40.52
				c-10.598,11.142-34.315,9.996-48.014,14.362c6.92-6.065,17.099-17.919,21.2-27.093c7.068-18.629-3.647-28.519-5.048-46.874
				c-1.669-31.627,21.908-32.316,47.323-33.139L208.272,431.45z"/>
			<path fill="#231F20" d="M165.376,328.023c-11.767-15.197-31.43-17.098-43.668-1.738c-10.201,11.418-6.127,29.176-23.072,33.332
				c-15.144,2.671-33.543-12.342-47.156-16.963c9.169-0.771,24.399-4.259,33.146-9.203c16.753-10.791,14.006-25.112,23.782-40.708
				c17.442-26.435,36.819-12.985,57.754,1.45L165.376,328.023z"/>
			<path fill="#231F20" d="M188.931,216.426c-2.041-19.11-17.783-31.048-36.261-24.394c-14.675,4.365-20.526,21.619-37.131,16.263
				c-14.293-5.674-22.076-28.106-31.24-39.185c8.208,4.158,23.005,9.179,33.045,9.56c19.925-0.393,25.1-14.026,41.608-22.173
				c28.718-13.349,38.156,8.27,48.403,31.543L188.931,216.426z"/>
			<path fill="#231F20" d="M269.409,138.322c9.386-16.772,3.447-35.614-15.476-40.872c-14.498-4.927-29.249,5.769-39.698-8.203
				c-8.378-12.895-1.756-35.698-2.828-50.034c4.294,8.138,13.463,20.791,21.433,26.907c16.482,11.203,28.588,3.073,46.767,5.973
				c31.149,5.718,26.345,28.812,21.246,53.723L269.409,138.322z"/>
		</g>
		<g>
			<path fill-rule="evenodd" clip-rule="evenodd" fill="#231F20" d="M453.457,140.091c-8.562-5.203-15.972-14.811-11.094-24.978
				c6.043-5.084,12.356-7.549,16.911-14.295c5.511-8.167,3.754-16.616,4.432-24.397c0.268,0.216,0.536,0.435,0.803,0.652
				c4.474,3.784,9.379,16.441,10.865,22.791c0.403,1.729,1.141,2.708,1.11,3.567c-0.468,13.157-19.882,16.062-22.563,27.038
				C453.059,133.982,455.211,137.582,453.457,140.091"/>
			<path fill-rule="evenodd" clip-rule="evenodd" fill="#231F20" d="M526.354,209.017c-5.907-8.09-9.066-19.807-0.661-27.323
				c7.529-2.377,14.306-2.23,21.102-6.711c8.224-5.427,9.841-13.905,13.454-20.829c0.164,0.303,0.327,0.606,0.491,0.91
				c2.678,5.21,2.353,18.781,1.286,25.213c-0.287,1.752,0.018,2.939-0.339,3.719c-5.483,11.973-24.527,7.205-31.216,16.312
				C528.326,203.222,528.937,207.373,526.354,209.017"/>
			<path fill-rule="evenodd" clip-rule="evenodd" fill="#231F20" d="M554.734,306.461c-0.779-9.989,2.689-21.617,13.787-23.599
				c7.657,1.932,13.346,5.616,21.482,5.372c9.85-0.3,15.676-6.664,22.388-10.66c-0.02,0.344-0.04,0.689-0.057,1.033
				c-0.46,5.84-7.863,17.217-12.148,22.132c-1.166,1.338-1.529,2.509-2.245,2.987c-10.951,7.309-24.65-6.75-35.128-2.513
				C559.46,302.566,557.796,306.417,554.734,306.461"/>
			<path fill-rule="evenodd" clip-rule="evenodd" fill="#231F20" d="M532.403,400.618c5.673-8.254,15.682-15.118,25.558-9.681
				c4.738,6.316,6.847,12.756,13.327,17.683c7.846,5.958,16.38,4.677,24.111,5.788c-0.23,0.257-0.463,0.512-0.697,0.768
				c-4.027,4.252-16.936,8.446-23.361,9.572c-1.746,0.308-2.765,0.986-3.621,0.91c-13.114-1.203-14.929-20.749-25.735-24.042
				C538.526,400.562,534.81,402.511,532.403,400.618"/>
			<path fill-rule="evenodd" clip-rule="evenodd" fill="#231F20" d="M450.228,483.097c9.25-3.848,21.379-4.169,26.714,5.762
				c0.547,7.88-1.187,14.431,1.577,22.087c3.348,9.268,11.208,12.828,17.093,17.961c-0.332,0.093-0.666,0.178-1.001,0.269
				c-5.692,1.38-18.807-2.118-24.812-4.662c-1.635-0.692-2.859-0.676-3.537-1.205c-10.353-8.135-1.252-25.53-8.533-34.168
				C455.397,486.377,451.22,485.989,450.228,483.097"/>
			<path fill-rule="evenodd" clip-rule="evenodd" fill="#231F20" d="M331.222,503.019c9.99,0.737,20.962,5.919,21.246,17.188
				c-3.064,7.283-7.566,12.346-8.55,20.427c-1.19,9.779,4.218,16.504,7.158,23.739c-0.34-0.067-0.676-0.142-1.014-0.212
				c-5.705-1.333-15.833-10.372-20.046-15.349c-1.146-1.356-2.247-1.895-2.613-2.671c-5.572-11.929,10.393-23.352,7.788-34.346
				C334.357,508.278,330.802,506.047,331.222,503.019"/>
			<path fill-rule="evenodd" clip-rule="evenodd" fill="#231F20" d="M235.635,459.946c6.583,7.552,10.734,18.955,3.009,27.162
				c-7.302,3.02-14.064,3.451-20.449,8.502c-7.725,6.112-8.612,14.695-11.615,21.907c-0.192-0.287-0.381-0.577-0.571-0.866
				c-3.116-4.96-3.956-18.508-3.447-25.009c0.139-1.772-0.265-2.926,0.021-3.737c4.432-12.396,23.815-9.282,29.697-18.927
				C234.165,465.892,233.205,461.805,235.635,459.946"/>
			<path fill-rule="evenodd" clip-rule="evenodd" fill="#231F20" d="M171.039,357.994c2.607,9.672,1.34,21.743-9.202,25.73
				c-7.886-0.486-14.151-3.063-22.105-1.322c-9.625,2.108-14.185,9.437-20.042,14.598c-0.047-0.341-0.091-0.686-0.135-1.024
				c-0.625-5.826,4.557-18.373,7.866-23.992c0.9-1.531,1.044-2.747,1.657-3.35c9.419-9.197,25.475,2.099,34.99-3.995
				C167.112,362.69,168.042,358.599,171.039,357.994"/>
			<path fill-rule="evenodd" clip-rule="evenodd" fill="#231F20" d="M176.796,240.908c-3.312,9.455-11.175,18.698-22.131,16.035
				c-6.231-4.857-9.947-10.523-17.492-13.579c-9.131-3.699-17.034-0.229-24.787,0.722c0.155-0.308,0.315-0.616,0.472-0.922
				c2.775-5.159,14.138-12.583,20.042-15.353c1.607-0.754,2.413-1.677,3.259-1.827c12.968-2.271,19.836,16.122,31.128,16.469
				C170.903,242.565,173.981,239.713,176.796,240.908"/>
			<path fill-rule="evenodd" clip-rule="evenodd" fill="#231F20" d="M243.119,154.414c-7.995,6.039-19.659,9.383-27.306,1.1
				c-2.502-7.494-2.458-14.271-7.049-20.994c-5.556-8.136-14.059-9.621-21.041-13.121c0.3-0.172,0.604-0.339,0.904-0.508
				c5.167-2.761,18.739-2.65,25.189-1.687c1.756,0.262,2.939-0.061,3.726,0.282c12.058,5.291,7.594,24.409,16.802,30.95
				C237.293,152.532,241.437,151.861,243.119,154.414"/>
			<path fill-rule="evenodd" clip-rule="evenodd" fill="#231F20" d="M351.593,114.74c-9.942,1.217-21.712-1.74-24.176-12.74
				c1.596-7.737,5.03-13.58,4.428-21.699c-0.727-9.825-7.338-15.375-11.625-21.901c0.346,0.001,0.692,0.009,1.037,0.013
				c5.854,0.202,17.542,7.104,22.64,11.171c1.387,1.107,2.571,1.42,3.08,2.112c7.782,10.624-5.668,24.927-0.98,35.204
				C347.497,110.19,351.42,111.686,351.593,114.74"/>
		</g>
		<g>
			<path fill-rule="evenodd" clip-rule="evenodd" fill="#231F1F" d="M511.994,280.146c-5.354-2.242-12.446-4.764-18.821-4.922
				c-4.943-0.135-9.755,1.482-14.097,2.575c-4.408,1.137-8.657,2.368-12.686,4.004c2.441,3.358,6.02,6.357,9.399,9.397
				c3.397,3.063,6.939,6.084,10.112,9.173c-0.381,1.184-0.591,2.55-0.936,3.752c0.984,0.276,1.715,0.77,2.095,1.664
				c-1.094,2.192-2.19,4.385-3.285,6.575c-0.628-0.465-1.26-0.938-1.63-1.652c-0.632,0.805-1.387,2.687-2.352,2.343
				c1.136-3.934,2.567-7.603,3.286-11.986c-5.413-5.841-12.085-11.121-18.345-15.731c-1.024-0.785-2.149-1.007-3.294-1.654
				c-4.201-2.418-8.122-5.978-12.211-8.929c-12.435-8.998-24.52-18.66-36.92-27.277c-3.377-6.462-6.374-13.706-10.092-20.673
				c-3.577-6.737-6.712-14.565-11.517-19.506c-4.608-4.749-11.464-7.408-19.05-9.175c-2.86-1.887-6.008-3.646-9.641-5.641
				c-2.463-1.362-7.691-4.808-10.333-5.166c-3.783-0.533-8.777,0.271-13.159,0.468c-8.009,0.363-17.276,1.117-24.209-0.248
				c-1.342-0.269-2.439-1.248-3.542-1.63c-3.505-1.254-7.159-0.962-11.277-1.429h-2.342c-17.696,0.56-27.81,5.811-32.693,18.095
				c-0.687,1.79-0.8,3.98-1.875,5.888c-1.055,1.855-4.23,2.954-3.761,5.88c-10.284,1.545-19.558,5.872-20.694,15.98
				c-0.344,3.035,0.178,6.195,0.493,9.169c0.229,2.265,1.46,6.643,1.166,8.458c-0.266,1.707-3.966,3.401-3.761,5.418
				c0.218,2.282,3.47,1.88,5.637,2.823c1.839,0.782,2.459,2.1,3.533,2.573c1.987,4.204-0.021,6.036-2.122,8.949
				c-1.192,1.63-2.376,3.173-3.288,4.454c-2.148,3.06-5.197,6.73-6.119,9.64c-0.484,1.569,0.252,2.864-1.18,4.474
				c-2.886-5.036-4.074-9.15-6.806-14.114c-2.081-3.769-6.02-10.477-9.641-11.275c-4.36-0.988-10.161,0.195-13.867,0.466
				c-4.254,0.311-9.398,0.153-12.935,1.633c-5.444,2.302-7.832,11.988-8.685,18.347v4.473c0.498,19.358,3.538,40.812,12.915,52.404
				c1.003,1.25,2.282,2.796,3.537,3.771c1.562,1.216,4.784,3.454,6.574,3.771c1.995,0.305,4.791-0.672,7.293-1.188
				c7.655-1.571,13.758-3.424,19.511-6.111c5.329-7.718,6.581-21.589,5.167-34.561c1.213-0.029,1.857,0.484,3.069,0.484v-1.188
				l0.694-0.939c-0.714-0.466-1.544-0.799-2.106-1.412c-0.092-0.935,0.538-1.174,0.472-2.116c5.749-1.507,11.656,0.577,17.389,1.181
				c0.151,1.789,0.754,3.155,0.933,4.948c-2.26-0.024-3.938-0.633-6.112-0.726v1.169l-0.711,0.939
				c3.061,1.277,7.877,0.757,10.583,2.369c0.695,1.618-1.345,2.17-2.348,2.824c-2.909,1.815-8.499,4.403-10.117,6.801
				c-4.873,7.292,7.055,7.922,12.711,9.177c8.497,1.875,16.023,2.999,22.555,5.41c-1.725,2.618-1.25,6.472-2.107,9.867
				c-0.622,2.505-3.467,4.924-1.184,7.519c-0.874,2.171-1.255,4.877-1.874,7.294c-0.166,1.324,1.54,0.805,1.651,1.882
				c-0.229,2.234-1.188,4.2-0.94,6.33c0.156,1.568,1.612,2.616,2.106,4.477c0.444,1.695-0.136,3.864,0.24,5.639
				c0.72,3.467,5.213,5.368,3.047,9.642c0.648,2.099,2.798,2.706,4.004,4.229c-0.222,4.986,2.056,7.521,5.391,8.928
				c0.852,1.499,0.961,3.484,1.906,4.942c0.648,1.035,2.409,1.392,3.512,2.35c1.607,1.39,1.747,3.914,2.817,4.942
				c0.916,0.855,2.371,0.18,3.531,0.944c1.769,1.138,1.634,3.602,3.289,4.704c1.121,0.287,2.511,0.31,3.516,0.686
				c1.252,0.565,1.053,2.57,2.373,3.062c3.692-0.845,5.614,0.561,7.045,2.581c2.916-1.215,5.373,2.479,8.218,2.364
				c1.895-0.086,2.745-1.61,4.001-1.183c1.833,0.622,1.454,4.051,4.009,3.293h0.217c0.401-0.54,1.789-0.093,2.602-0.231
				c0.579-0.195-0.277-1.857,0.687-1.647c1.146-0.116,2.754,0.24,3.534-0.231c1.744,3.875,7.21,0.586,9.405-0.714
				c1.455,0.581,2.123,1.186,3.53,1.186c2.774-0.037,4.519-3.671,7.519-2.129c2.173-1.969,4.805-3.483,5.864-6.571
				c4.339-0.455,8.274-4.473,11.767-7.763c6.086-5.756,10.137-12.154,13.405-20.456c2.192-5.636,4.989-11.229,3.511-17.849
				c0.469-0.626,2.038-0.163,2.128-1.194c-0.161-2.304-2.976-4-2.599-6.106c0.268-1.408,1.973-0.913,1.876-2.811
				c-1.627-1.032-1.431-3.896-2.562-5.419c0.975-1.746-0.07-3.687-0.254-5.634c4.072-0.023,8.454-1.44,11.06,0.936
				c5.766-2.685,11.629-5.278,17.853-7.523c-0.21,10.186,3.313,15.602,11.993,16.229c8.653,0.625,19.148-3.134,25.863-4.478
				c3.825,3.852,7.468,6.806,13.4,8.236c5.551,1.342,11.477,3.312,18.323,3.283c24.902-0.064,44.325-16.706,45.604-39.708
				C543.202,301.986,529.126,287.353,511.994,280.146 M233.897,292.853c-0.464-2.68,1.455-2.925,1.901-4.716
				c0.227,0,0.272,0.199,0.473,0.248l0.579-0.829l0.829-0.587v-0.465c1.073,0.153,1.454-0.429,1.881-0.942
				c-0.115-0.829-1.032-0.47-0.473-1.408c0.736-0.626,1.811,0.468,2.356-0.469c-0.256-0.633-1.438-0.294-1.418-1.185
				c0.52-1.1,1.232-0.875,2.351-0.471c0.204-1.324-1.163-1.437-0.47-2.574c0.807-0.198,0.902,0.332,1.631,0.223
				c0.521-0.783-0.958-1.207,0-2.097c0.674-0.207,0.608,0.324,1.192,0.219c0.375-0.219,0.241-0.984,0.465-1.407
				c2.081,0.123,3.781-0.141,5.641-0.226c0.177,3.741,1.089,6.727,0.939,10.802c-0.338,0.138-0.58,0.357-0.721,0.725l0.606,0.963
				l-0.127,1.134c0.958,0.158,1.342-0.225,2.119-0.225C248.914,292.476,240.202,296.504,233.897,292.853 M246.829,273.101
				c1.545,0.69,0.786-0.586,1.659-1.163c1.032,0.067,0.895,1.293,1.402,1.879c-0.487,0.581-1.625,0.558-2.593,0.689
				C247.169,274.012,246.719,273.837,246.829,273.101 M256.001,297.089c-1.764-0.299-3.534-0.566-5.406-0.715
				c1.404-0.723,3.479-0.744,5.185-1.17C255.601,296.08,256.162,296.211,256.001,297.089 M255.78,230.098
				c-4.584,2.279-7.696,6.081-5.891,11.742c0.323,0.969,1.104,2.035,1.165,3.045c0.142,1.924-1.579,3.667-1.403,5.41
				c-1.055,0.209-2.101,0.403-3.046,0.723c-0.536,0.087-0.084,1.138-0.243,1.63c-1.413-0.292-1.95-1.496-2.824-2.353
				c0.024-6.732-2.013-13.06-1.631-19.032c0.535-8.747,8.102-11.998,16.695-13.156h0.219
				C259.045,221.35,256.832,226.426,255.78,230.098 M407.14,246.544c0.378,0.493,0.785,0.958,0.941,1.651
				c-0.537,0.07-0.871,0.357-1.633,0.226C406.383,247.502,406.939,247.212,407.14,246.544 M380.361,204.458
				c3.333,1.58,9.153,7.114,11.273,10.349c2.244,3.41,3.852,8.114,5.886,12.221c2.104,4.327,4.521,8.28,5.638,12.461
				c3.311,12.511-8.413,11.059-19.752,11.059c-5.659,0-11.26,0.468-15.759,0.219c-0.398-0.579-0.224-2.997-0.462-3.978
				c-1.482-6.084-8.997-10.922-15.755-8.704c-1.635,0.533-3.224,1.918-4.454,3.042c-1.143,1.049-1.927,3.064-4.003,3.292
				c3.757-13.875,7.962-27.282,10.586-42.315C362.594,202.126,373.783,201.343,380.361,204.458 M338.278,251.017
				c-0.811-0.07-1.91,0.178-2.355-0.249c2.081-16.713,8.686-30.96,11.054-48.195c-0.205-1.365,1.924-0.402,2.818-0.691
				C347.45,219.492,341.342,233.611,338.278,251.017 M356.838,193.426c1.886,1.565,4.481,2.417,6.111,4.223
				c-2.722,0.072-5.276-0.046-7.737-0.245C355.565,195.887,356.42,194.852,356.838,193.426 M351.68,190.608
				c0.599,0.781,1.696,1.112,2.346,1.874c-0.358,1.75-1.052,3.182-1.875,4.46c-11.329,0.729-19.158-4.038-28.217-6.334
				C332.972,189.867,342.299,190.876,351.68,190.608 M331.7,196.465c-3.292,0.716-7.55,0.338-7.991-2.568
				C326.299,194.815,329.279,195.348,331.7,196.465 M324.176,201.168c6.665-0.091,13.094,0.067,19.272,0.468
				c-0.566,9.593-3.608,17.067-5.641,25.64c-1.61,6.824-3.117,13.579-5.639,19.732c-2.037-12.525-2.684-26.464-14.568-29.147
				c-0.292-3.319-1.747-7.324-0.468-10.342C317.937,205.593,323.039,203.154,324.176,201.168 M328.158,245.133
				c-5.746-5.286-7.491-14.587-9.395-23.739C326.487,224.705,327.515,234.745,328.158,245.133 M312.188,216.223
				c-0.881,0-1.375-0.358-1.878-0.715c-0.025-1.188,0.802-1.522,1.159-2.349C312.637,213.246,312.03,215.127,312.188,216.223
				 M313.347,219.985c1.39,5.522,2.802,11.006,3.785,16.909c-2.595-2.347-2.535-6.639-4.229-9.619
				c-1.322-2.26-3.539-2.528-5.413-4.253c0.043-1.495,0.667-2.437,0.689-3.977C310.175,219.086,311.518,219.781,313.347,219.985
				 M275.985,202.823c4.967-4.297,10.155-8.971,15.502-13.159c2.818,0.312,6.603,0.446,9.894,0.695
				c3.15,0.225,6.933-0.023,9.623,0.714c4.064,1.099,6.668,5.282,9.884,6.807c-1.987,1.205-4.232,2.373-5.651,4.226
				c-1.349,1.79-1.814,4.406-3.293,6.128c-0.711,0.83-1.905,1.146-2.578,1.887c-1.207,1.294-1.428,2.726-2.59,3.982
				c-7.476-6.314-21.887-5.687-35.02-6.331C271.958,205.353,274.397,204.187,275.985,202.823 M270.347,211.053
				c13.733,0.051,27.831-0.268,35.013,6.336c0.116,2.151-0.785,3.31-1.633,4.474c-2.908-0.313-3.532-2.889-5.193-4.474
				c-8.496-0.162-17.068-2.198-24.674,0c0.4,1.854-1.319,5.321-0.69,8.226c0.288,1.325,1.044,2.132,1.88,3.069
				c0.021,0.713-0.745,0.667-0.474,1.637c0.693,1.967,3.441,1.878,3.534,4.47c-2.55-1.386-5.91-1.946-8.478-3.288
				c2.192-3.446-1.102-4.764-4.698-4.475C266.677,221.642,268.668,216.489,270.347,211.053 M309.365,362.42
				c-0.671-5.712,0.991-11.036,2.578-15.262c3.911,2.278,7.529,4.835,11.296,7.271C324.808,362.42,315.586,361.482,309.365,362.42
				 M322.053,385.706c-4.277-3.64-8.436-7.381-10.338-13.397c4.434-1.767,13.562-6.422,15.753-0.722
				C329.463,376.774,322.836,381.189,322.053,385.706 M318.763,339.393c2.822-3.29,8.996-4.475,14.815-4.005
				c-0.11,3.421,0.133,6.466,0.224,9.643c-1.503,0.671-2.82,1.572-4.457,2.127C326.104,344.276,321.134,343.13,318.763,339.393
				 M331.448,390.412c1.752-5.706,1.927-15.715,9.172-15.063c1.679,4.612,3.425,9.107,4.952,13.873
				C342.417,391.127,335.923,391.279,331.448,390.412 M354.49,381.235c-3.707-1.319-3.482-6.556-5.631-9.397
				c2.103-2.283,4.341-4.436,5.863-7.296c1.454-0.04,2.327,0.516,3.782,0.471C358.589,370.92,357.987,378.145,354.49,381.235
				 M393.74,336.104c-2.081-8.26-6.804-13.893-11.97-19.043c-0.041-0.735,0.559-1.312,0-1.875
				c-5.413-7.291-16.604-11.569-26.805-14.811c-3.554-1.144-7.004-2.866-10.339-3.536c-2.346-0.442-5.055-0.29-7.512-0.463
				c-12.983-0.928-20.68,3.372-29.407,8.225c-2.884,1.618-6.123,2.891-7.267,4.945c-2.856,1.608-5.309,4.434-7.766,7.275
				c-2.277,2.637-5.369,5.615-6.574,8.456c-0.343,0.81-0.156,1.567-0.251,2.373c-8.794-1.273-17.562-3.11-26.312-4.722
				c-2.821-0.492-5.86-0.625-8.236-2.104c2.823-3.227,7.049-5.012,10.584-7.516c1.815,5.418,6.896,7.828,13.162,9.864
				c2.183,0.717,5.681,2.551,7.288,2.349c1.256-0.153,3.129-3.042,4.695-4.943c7.038-8.567,14.947-17.495,26.315-21.854
				c6.469-2.464,13.832-4.592,22.82-3.99c15.131,1.006,31.375,4.787,39.939,12.217c3.184,2.749,6.377,6.73,9.173,10.586
				c3.877,5.323,7.162,10.267,8.929,17.383c3.514-0.829,6.379-0.961,10.115-1.636c0.139,2.126,0.542,4.002,0.473,6.338
				C400.898,338.671,397.815,336.905,393.74,336.104 M365.553,278.987c-14.704-8.754-29.292-17.699-43.5-26.802
				c1.75-0.361,2.954-1.284,4.229-2.108c28.732,18.686,56.919,37.881,85.556,56.65C397.095,298.316,381.007,288.183,365.553,278.987
				 M426.184,334.918c-4.787,2.66-8.748,5.787-15.5,6.576c-0.164-3.536-1.035-6.328-1.19-9.868
				c6.91-0.753,14.947-2.794,21.633-3.751c1.887-0.269,3.25,0.958,4.923,1.188C433.054,331.335,429.612,333.016,426.184,334.918
				 M434.417,354.898c-3.398-2.93-5.414-13.379-0.939-16.688c5.054,2.013,11.091,3.019,16.914,4.223
				c-0.181,3.962,0.361,7.184,0.245,11.053C445.807,354.429,440.304,355.775,434.417,354.898 M490.601,299.432
				c0.267,2.795,0.894,5.212,0.939,8.232c-0.74-0.441-1.343-1.026-1.659-1.875c0.182-0.696,0.072-1.68,0.72-1.896
				C489.734,303.033,487.961,299.703,490.601,299.432 M477.668,322.231c-0.228-2.124,0.332-3.423,1.187-4.476
				c1.544,1.215,2.709,2.781,3.508,4.701C481.225,321.967,479.188,322.367,477.668,322.231 M492.479,340.328
				c-4.342-0.824-9.33-3.06-11.99-6.347c1.229-4.676,7.293-0.965,11.524-1.166C492.611,334.894,494.34,338.593,492.479,340.328
				 M503.063,317.061c-0.292-1.067,0.832-0.735,0.942-1.408l-0.455-1.021l-0.265-1.102c-0.78,0.066-1.611,0.854-2.35,0.241
				c-0.492-0.486,0.295-0.912,0.466-1.407l-0.93-0.721l-0.704-0.931c-1.962,1.095-3.8-0.738-5.635-1.168
				c-0.197-3.418-0.49-6.734-0.719-10.113c6.094,0.492,9.96,3.221,13.155,6.577l0.721,0.941l0.697,0.945
				c0.846-0.788,1.968,0.779,1.404,1.403l0.831,0.586l0.585,0.829c1.895,1.095,2.438,3.534,2.813,6.107
				C510.849,316.307,506.462,317.596,503.063,317.061 M505.166,337.268c-0.517-2.755-0.471-6.089-0.471-9.393
				c2.443,0.78,4.386,2.032,6.584,3.061C510.088,333.866,507.672,335.63,505.166,337.268 M513.622,324.116
				c-3.217-0.517-6.24-1.278-8.456-2.821c2.506-0.627,6.91-2.507,8.924-0.717C514.229,322.052,513.735,322.885,513.622,324.116"/>
			
				<line fill="none" stroke="#231F20" stroke-width="2.3626" stroke-miterlimit="10" x1="249.889" y1="305.295" x2="238.62" y2="303.189"/>
			<line display="none" fill="#FFFFFF" x1="259.338" y1="283.046" x2="248.473" y2="281.015"/>
		</g>
		<g>
			<path fill="#231F20" d="M78.943,668.204c-0.363-0.363-0.666-0.745-0.907-1.149c-0.242-0.402-0.484-0.806-0.726-1.21
				c-0.242-0.402-0.444-0.806-0.605-1.21c-0.242-0.402-0.444-0.826-0.605-1.271c-0.163-0.442-0.323-0.865-0.484-1.271
				c-0.163-0.402-0.303-0.826-0.424-1.271c-0.121-0.442-0.223-0.865-0.302-1.27c-0.082-0.161-0.142-0.343-0.182-0.545
				c-0.042-0.2-0.061-0.424-0.061-0.665c-0.081-0.161-0.121-0.343-0.121-0.545c0-0.2,0-0.424,0-0.665
				c-0.082-0.161-0.121-0.343-0.121-0.545c0-0.2,0-0.424,0-0.665c0-0.161,0-0.282,0-0.363c0-0.079,0-0.2,0-0.363
				c0-0.079,0-0.182,0-0.302c0-0.121,0-0.222,0-0.303c0-0.403,0-0.806,0-1.21c0-0.402,0.04-0.847,0.121-1.331
				c0-0.402,0.04-0.806,0.121-1.21c0.08-0.402,0.161-0.806,0.242-1.21c0.161-0.887,0.342-1.713,0.544-2.48
				c0.2-0.766,0.463-1.552,0.787-2.359c0.321-0.805,0.624-1.572,0.907-2.299c0.282-0.726,0.584-1.41,0.908-2.057
				c0.321-0.645,0.665-1.311,1.028-1.996c0.363-0.685,0.705-1.311,1.028-1.876c0.161-0.321,0.321-0.624,0.484-0.907
				c0.161-0.281,0.363-0.544,0.605-0.786c0.161-0.321,0.321-0.605,0.484-0.848c0.161-0.241,0.322-0.483,0.484-0.726
				c0.322-0.483,0.624-0.947,0.908-1.392c0.282-0.442,0.584-0.826,0.907-1.149c0.322-0.402,0.605-0.726,0.847-0.968
				s0.403-0.442,0.484-0.604c0.161-0.161,0.321-0.363,0.484-0.605c0.321,0,0.645,0,0.968,0c0.402,0,0.847,0,1.331,0s1.089,0,1.815,0
				c0.645,0,1.331,0,2.057,0c0.726,0,1.491,0,2.299,0c0.726,0,1.512,0,2.359,0c0.847,0,1.673,0,2.48,0c0.403,0,0.766,0,1.089,0
				c0.321,0,0.684,0,1.089,0c0.321,0,0.665,0,1.028,0c0.363,0,0.705,0,1.028,0c0.726,0,1.431,0,2.117,0c0.685,0,1.35,0,1.997,0
				c0.645,0,1.229,0,1.754,0c0.524,0,0.947,0,1.271,0c0.403,0,0.745,0,1.028,0c0.282,0,0.503,0,0.666,0
				c-0.726,1.131-1.412,2.238-2.057,3.327c-0.646,1.089-1.209,2.117-1.694,3.086c-0.565,1.049-1.049,2.038-1.452,2.964
				c-0.405,0.929-0.807,1.836-1.21,2.723c-0.323,0.889-0.646,1.754-0.968,2.602c-0.323,0.847-0.565,1.714-0.726,2.601
				c-0.163,0.808-0.284,1.594-0.363,2.359c-0.081,0.768-0.121,1.513-0.121,2.238c0,0.565,0.019,1.11,0.061,1.634
				c0.04,0.525,0.1,1.028,0.181,1.513c0.161,0.483,0.303,0.968,0.424,1.451c0.121,0.484,0.261,0.929,0.423,1.331
				c0.161,0.484,0.363,0.968,0.605,1.452c0.242,0.484,0.484,0.929,0.726,1.331c0.242,0.483,0.523,0.949,0.847,1.392
				c0.321,0.444,0.645,0.867,0.968,1.271c0.161,0.162,0.303,0.344,0.424,0.544c0.121,0.202,0.261,0.384,0.423,0.545
				c0.161,0.162,0.321,0.323,0.484,0.483c0.161,0.163,0.321,0.323,0.484,0.484c0.08,0.081,0.161,0.162,0.242,0.242
				c0.079,0.081,0.161,0.162,0.242,0.241c0.08,0.082,0.161,0.163,0.242,0.242c0.08,0.081,0.161,0.163,0.242,0.242
				c0.079,0.081,0.161,0.182,0.242,0.303c0.08,0.121,0.161,0.223,0.242,0.302c0.079,0.082,0.14,0.143,0.181,0.182
				c0.04,0.042,0.101,0.061,0.182,0.061c0,0.081,0.019,0.142,0.061,0.182c0.04,0.042,0.1,0.061,0.182,0.061
				c1.047,1.049,2.015,2.057,2.904,3.024c0.887,0.969,1.694,1.937,2.42,2.904c0.726,0.968,1.371,1.875,1.936,2.723
				c0.563,0.847,1.089,1.675,1.573,2.479c0.402,0.808,0.766,1.615,1.089,2.42c0.321,0.808,0.605,1.615,0.847,2.42
				c0.242,0.808,0.424,1.573,0.544,2.299c0.121,0.727,0.182,1.452,0.182,2.178c0,0.082,0,0.163,0,0.242c0,0.082,0,0.163,0,0.242
				c0,0.081,0,0.163,0,0.242c0,0.081,0,0.162,0,0.242c-0.081,0.081-0.121,0.162-0.121,0.241c0,0.082,0,0.163,0,0.242
				c0,0.081,0,0.163,0,0.242c0,0.081,0,0.163,0,0.242c-0.081,0.162-0.142,0.323-0.181,0.483c-0.042,0.163-0.061,0.323-0.061,0.484
				c0,0.081,0,0.162,0,0.242c0,0.081,0,0.162,0,0.242c-0.082,0.081-0.121,0.142-0.121,0.181c0,0.042,0,0.103,0,0.182
				c-0.242,0.968-0.544,1.937-0.908,2.904c-0.363,0.968-0.786,1.936-1.27,2.903c-0.484,0.968-1.049,1.957-1.694,2.965
				c-0.646,1.009-1.372,2.038-2.178,3.085c-0.807,1.049-1.633,2.117-2.48,3.206c-0.847,1.089-1.714,2.238-2.601,3.448
				c-0.968,1.21-1.936,2.462-2.904,3.751c-0.968,1.291-2.017,2.583-3.146,3.872c-0.404,0-0.807,0-1.21,0c-0.404,0-0.907,0-1.512,0
				s-1.312,0-2.117,0c-0.808,0-1.634,0-2.48,0c-0.847,0-1.715,0-2.602,0c-0.888,0-1.814,0-2.783,0c-0.968,0-1.936,0-2.904,0
				c-0.081-0.081-0.163-0.121-0.242-0.121c-0.082,0-0.163,0-0.242,0c-0.081,0-0.163,0-0.242,0c-0.081,0-0.163,0-0.242,0
				c-0.082,0-0.142,0-0.182,0c-0.042,0-0.102,0-0.182,0c-0.081,0-0.142,0-0.181,0c-0.042,0-0.102,0-0.182,0
				c-0.968,0-1.917,0-2.843,0c-0.928,0-1.835,0-2.722,0c-0.889,0-1.754,0-2.602,0c-0.847,0-1.675,0-2.48,0c-0.807,0-1.573,0-2.299,0
				c-0.726,0-1.331,0-1.815,0c-0.484,0-0.907,0-1.27,0c-0.363,0-0.626,0-0.787,0c1.854-1.773,3.588-3.509,5.203-5.203
				c1.613-1.693,3.064-3.267,4.356-4.719c1.371-1.451,2.62-2.802,3.75-4.053c1.129-1.25,2.136-2.399,3.025-3.448
				c0.887-1.048,1.633-2.057,2.238-3.025c0.605-0.968,1.149-1.854,1.633-2.661c0.403-0.887,0.726-1.733,0.968-2.541
				c0.242-0.806,0.363-1.612,0.363-2.42v-0.121c0-0.079,0-0.16,0-0.242c-0.081,0-0.121-0.039-0.121-0.121c0-0.079,0-0.16,0-0.241
				c0-0.08,0-0.141,0-0.182c0-0.04,0-0.101,0-0.182c0-0.079,0-0.161,0-0.242c0-0.079,0-0.16,0-0.242
				c-0.081-0.563-0.242-1.128-0.484-1.693c-0.242-0.563-0.525-1.129-0.847-1.694c-0.323-0.645-0.707-1.271-1.149-1.875
				c-0.444-0.605-0.949-1.229-1.512-1.875c-0.565-0.646-1.17-1.331-1.815-2.058c-0.646-0.726-1.331-1.491-2.057-2.299
				c-0.726-0.887-1.513-1.773-2.359-2.661c-0.847-0.887-1.715-1.855-2.602-2.904v-0.363
				C79.648,668.87,79.306,668.567,78.943,668.204z M115.181,621.319l21.899-1.814l-6.17,33.515l-20.327,0.605L115.181,621.319z"/>
			<path fill="#231F20" d="M148.271,714.182c-1.17-0.766-2.239-1.592-3.207-2.48c-0.968-0.887-1.835-1.876-2.601-2.965
				c-0.768-1.089-1.433-2.238-1.997-3.448c-0.565-1.128-1.089-2.398-1.573-3.811c-0.484-1.411-0.847-2.923-1.089-4.538
				c-0.324-1.612-0.545-3.306-0.666-5.081c-0.121-1.773-0.182-3.67-0.182-5.687c0-1.773,0.04-3.63,0.121-5.566
				c0.079-1.936,0.242-3.951,0.484-6.049c0.161-2.097,0.403-4.274,0.726-6.534c0.321-2.257,0.684-4.637,1.089-7.139
				c0.403-2.42,0.847-4.979,1.331-7.683c0.484-2.701,1.007-5.505,1.573-8.409c0.563-2.903,1.168-5.907,1.815-9.014
				c0.645-3.104,1.331-6.353,2.057-9.74c0.403,0,0.766,0,1.089,0c0.403,0,0.866,0,1.392,0c0.523,0,1.189,0,1.997,0
				c0.726,0,1.471,0,2.238,0c0.766,0,1.552,0,2.359,0c0.886,0,1.754,0,2.601,0c0.847,0,1.713,0,2.602,0c0.645,0,1.31,0,1.996,0
				c0.685,0,1.35,0,1.997,0c0.645,0,1.289,0,1.936,0c0.645,0,1.29,0,1.936,0c0.645,0,1.229,0,1.754,0c0.524,0,1.028,0,1.513,0
				c0.402,0,0.786,0,1.149,0c0.363,0,0.705,0,1.028,0c-0.807,3.47-1.573,6.797-2.299,9.982c-0.726,3.188-1.412,6.312-2.057,9.377
				c-0.646,2.984-1.271,5.909-1.875,8.771c-0.604,2.864-1.191,5.587-1.754,8.167c-0.565,2.583-1.07,5.082-1.513,7.502
				c-0.444,2.42-0.787,4.719-1.028,6.896c-0.323,2.259-0.544,4.376-0.666,6.352c-0.121,1.978-0.142,3.893-0.061,5.747
				c0,1.373,0.04,2.704,0.121,3.993c0.08,1.291,0.242,2.501,0.484,3.63c0.242,1.13,0.524,2.22,0.847,3.267
				c0.321,1.049,0.726,2.018,1.21,2.904c0.402,0.968,0.907,1.856,1.512,2.661c0.605,0.808,1.271,1.573,1.997,2.299
				c0.726,0.727,1.573,1.373,2.541,1.937c0.968,0.564,1.976,1.049,3.025,1.451l12.341-91.591h27.102l-16.576,96.915
				c-0.565,0-1.131,0-1.694,0c-0.565,0-1.231,0-1.997,0c-0.768,0-1.675,0-2.722,0c-1.049,0-2.138,0-3.267,0c-1.13,0-2.299,0-3.509,0
				s-2.42,0-3.629,0c-1.21,0-2.501,0-3.872,0c-0.081,0-0.163-0.042-0.242-0.121c-0.082,0-0.142,0-0.182,0c-0.042,0-0.102,0-0.182,0
				c-0.081,0-0.163,0-0.242,0c-0.082,0-0.163,0-0.242,0c-0.081,0-0.163,0-0.242,0c-0.081,0-0.162,0-0.242,0
				c-0.082,0-0.163,0-0.242,0c-0.081,0-0.163,0-0.242,0c-1.292,0-2.541,0-3.751,0s-2.38,0-3.509,0c-1.21,0-2.359,0-3.448,0
				s-2.199,0-3.327,0c-1.049,0-2.038,0-2.964,0c-0.928,0-1.715,0-2.359,0c-0.726,0-1.331,0-1.815,0s-0.847,0-1.089,0
				C150.709,715.614,149.438,714.949,148.271,714.182z"/>
			<path fill="#231F20" d="M220.804,624.707h37.266l4.598,51.906l8.106-56.866h23.23c0,0.162-0.061,0.586-0.182,1.271
				c-0.121,0.686-0.302,1.633-0.544,2.843c-0.242,1.21-0.525,2.743-0.847,4.598c-0.323,1.856-0.687,3.993-1.089,6.413
				c-0.404,2.501-0.828,5.042-1.27,7.622c-0.444,2.583-0.908,5.203-1.392,7.864c-0.242,1.292-0.484,2.644-0.726,4.054
				c-0.242,1.412-0.484,2.804-0.726,4.174c-0.324,1.373-0.605,2.783-0.847,4.235c-0.242,1.451-0.484,2.903-0.726,4.355
				c-0.565,2.985-1.109,5.889-1.633,8.712c-0.525,2.824-1.028,5.606-1.512,8.348c-0.484,2.743-0.968,5.405-1.452,7.985
				c-0.484,2.583-0.928,5.082-1.331,7.502c-0.404,2.501-0.767,4.679-1.089,6.533c-0.323,1.856-0.605,3.389-0.847,4.598
				c-0.242,1.292-0.444,2.583-0.605,3.872c0,0.081-0.061,0.142-0.182,0.182c-0.121,0.042-0.263,0.061-0.423,0.061
				c-0.082,0-0.182,0-0.303,0c-0.121,0-0.223,0-0.302,0c-0.163,0.081-0.323,0.121-0.484,0.121c-0.163,0-0.323,0-0.484,0
				c-0.324,0.081-0.707,0.142-1.149,0.182c-0.444,0.041-0.868,0.061-1.271,0.061c-0.242,0-0.465,0-0.666,0c-0.202,0-0.423,0-0.666,0
				c-0.242,0.081-0.484,0.121-0.726,0.121c-0.242,0-0.484,0-0.726,0c-0.323,0.081-0.625,0.142-0.907,0.181
				c-0.284,0.042-0.544,0.061-0.787,0.061c-0.242,0-0.504,0-0.786,0c-0.284,0-0.586,0-0.908,0c-0.323,0.082-0.625,0.121-0.907,0.121
				c-0.284,0-0.544,0-0.787,0c-0.323,0-0.625,0-0.907,0c-0.284,0-0.544,0-0.787,0c-0.889,0.081-1.754,0.142-2.601,0.182
				c-0.847,0.042-1.715,0.061-2.602,0.061c-0.807,0-1.614,0-2.42,0c-0.807,0-1.573,0-2.299,0c-0.323,0-0.666,0-1.028,0
				s-0.666,0-0.908,0c-0.242,0-0.484,0-0.726,0c-0.242,0-0.444,0.04-0.605,0.121c-0.163,0-0.303,0-0.423,0c-0.121,0-0.263,0-0.424,0
				c-0.081,0-0.163,0-0.242,0l-5.808-54.325l-10.164,54.325h-19.722L220.804,624.707z"/>
			<path fill="#231F20" d="M302.229,634.75h26.134l-13.914-9.195c0,0.162,0.08,0.263,0.242,0.303
				c0.161,0.041,0.402,0.021,0.726-0.061c0.403-0.08,0.866-0.182,1.392-0.303c0.523-0.121,1.149-0.261,1.875-0.424
				c0.726-0.16,1.452-0.321,2.178-0.483c0.726-0.161,1.492-0.321,2.299-0.484c0.805-0.161,1.633-0.342,2.48-0.545
				c0.847-0.2,1.713-0.382,2.601-0.544c0.08,0,0.161,0,0.242,0l0.121-0.121h0.121c0.403-0.079,0.766-0.16,1.089-0.242
				c0.321-0.079,0.645-0.16,0.968-0.242c0.403,0,0.766-0.039,1.089-0.12c0.321-0.08,0.645-0.161,0.968-0.242
				c0.645-0.161,1.311-0.321,1.997-0.484c0.685-0.16,1.35-0.321,1.997-0.483c0.321-0.08,0.624-0.141,0.907-0.182
				c0.282-0.04,0.544-0.101,0.787-0.182c0.242,0,0.484-0.019,0.726-0.061c0.242-0.04,0.484-0.101,0.726-0.182
				c0.403-0.16,0.745-0.261,1.028-0.303c0.282-0.039,0.503-0.1,0.666-0.181c2.097,0.807,4.093,1.675,5.989,2.601
				c1.894,0.929,3.609,1.836,5.142,2.723c1.613,0.968,3.044,1.936,4.295,2.903c1.25,0.969,2.359,1.978,3.327,3.025
				c0.968,1.049,1.815,2.117,2.541,3.206s1.331,2.199,1.815,3.327c0.483,1.21,0.846,2.42,1.088,3.63s0.363,2.462,0.363,3.751
				c0,1.291-0.121,2.602-0.363,3.933c-0.242,1.33-0.564,2.722-0.968,4.174c-0.483,1.452-1.05,2.903-1.694,4.355
				c-0.646,1.452-1.412,2.945-2.298,4.477c-0.889,1.533-1.856,3.106-2.904,4.719c-1.049,1.615-2.178,3.268-3.388,4.961
				c-1.21,1.694-2.501,3.43-3.872,5.203c-1.373,1.774-2.825,3.59-4.356,5.444c0.403,0.323,0.826,0.665,1.271,1.028
				c0.442,0.363,0.866,0.707,1.271,1.028c0.161,0.163,0.342,0.323,0.544,0.484c0.2,0.162,0.423,0.283,0.666,0.362
				c0.161,0.163,0.342,0.323,0.544,0.484c0.2,0.162,0.382,0.323,0.544,0.484c0.403,0.323,0.745,0.625,1.028,0.907
				c0.282,0.283,0.584,0.544,0.907,0.786c0.161,0.163,0.303,0.323,0.424,0.484c0.121,0.162,0.261,0.283,0.423,0.362
				c0.08,0.163,0.2,0.303,0.363,0.424c0.161,0.121,0.282,0.263,0.363,0.424c0.161,0.241,0.342,0.483,0.544,0.726
				c0.2,0.242,0.342,0.484,0.423,0.726c0.161,0.242,0.303,0.484,0.423,0.727c0.121,0.242,0.221,0.483,0.303,0.726
				c0,0.081,0.019,0.182,0.061,0.303c0.04,0.121,0.1,0.263,0.181,0.424c0,0.081,0.019,0.181,0.061,0.302
				c0.04,0.121,0.101,0.263,0.182,0.424c0,0.162,0,0.303,0,0.424c0,0.12,0,0.263,0,0.423c0,0.081,0,0.142,0,0.182
				c0,0.042,0.04,0.103,0.121,0.182c0,0.081,0,0.142,0,0.182c0,0.041,0,0.102,0,0.182c0,0.564-0.082,1.19-0.242,1.875
				c-0.163,0.687-0.363,1.392-0.605,2.117c-0.242,0.727-0.565,1.473-0.968,2.238c-0.405,0.768-0.889,1.555-1.452,2.359
				c-0.565,0.808-1.17,1.675-1.814,2.602c-0.647,0.928-1.413,1.917-2.299,2.964c-0.808,1.05-1.736,2.118-2.783,3.207
				c-1.049,1.089-2.138,2.158-3.267,3.206c-0.323,0-0.646,0-0.968,0c-0.323,0-0.726,0-1.21,0c-0.484,0-1.049,0-1.694,0
				c-0.647,0-1.331,0-2.057,0s-1.452,0-2.178,0s-1.473,0-2.238,0c-0.768,0-1.554,0.04-2.359,0.121c-0.082,0-0.163,0-0.242,0
				c-0.081,0-0.163,0-0.242,0H330.3c-0.082,0-0.163,0-0.242,0c-0.081,0-0.163,0-0.242,0c-0.808,0-1.573,0-2.299,0
				c-0.726,0-1.452,0-2.178,0c-0.726,0-1.433,0-2.117,0c-0.686,0-1.352,0-1.997,0c-0.646,0-1.251,0-1.814,0
				c-0.565,0-1.049,0-1.452,0c-0.405,0-0.747,0-1.028,0c-0.284,0-0.505,0-0.666,0c0.968-1.048,1.915-2.157,2.843-3.327
				c0.926-1.169,1.794-2.278,2.602-3.327c0.886-1.129,1.733-2.218,2.541-3.268c0.806-1.047,1.573-2.057,2.299-3.024
				s1.371-1.915,1.936-2.844c0.563-0.926,1.008-1.794,1.331-2.601c0.402-0.887,0.684-1.734,0.847-2.541
				c0.161-0.806,0.242-1.613,0.242-2.42c0-0.242-0.021-0.484-0.061-0.727c-0.042-0.241-0.061-0.483-0.061-0.726
				c-0.082-0.16-0.163-0.363-0.242-0.604c-0.081-0.242-0.163-0.484-0.242-0.727c-0.242-0.402-0.505-0.826-0.787-1.271
				c-0.284-0.442-0.625-0.865-1.028-1.271c-0.242-0.16-0.484-0.342-0.726-0.544c-0.242-0.2-0.484-0.424-0.726-0.666
				c-0.242-0.16-0.525-0.342-0.847-0.544c-0.323-0.2-0.646-0.382-0.968-0.545c-0.324-0.16-0.666-0.321-1.029-0.483
				c-0.363-0.161-0.747-0.363-1.149-0.605c-0.404-0.16-0.807-0.321-1.21-0.483c-0.404-0.161-0.847-0.321-1.331-0.484l-6.655,33.031
				h-20.569L302.229,634.75z M328.545,637.835c-0.042,0.687-0.142,1.392-0.303,2.117c-0.081,0.808-0.223,1.654-0.423,2.541
				c-0.202,0.889-0.384,1.856-0.544,2.904c-0.081,0.565-0.163,1.109-0.242,1.633c-0.081,0.525-0.163,1.07-0.242,1.634
				c-0.082,0.565-0.163,1.109-0.242,1.634c-0.081,0.525-0.163,1.028-0.242,1.512c-0.082,0.565-0.182,1.131-0.303,1.694
				c-0.121,0.565-0.223,1.13-0.302,1.693c-0.082,0.565-0.163,1.131-0.242,1.694c-0.081,0.565-0.163,1.13-0.242,1.693
				c-0.163,1.05-0.344,2.118-0.545,3.207c-0.202,1.089-0.384,2.158-0.544,3.206c-0.163,1.049-0.323,2.057-0.484,3.024
				c-0.163,0.968-0.323,1.937-0.484,2.904c-0.163,0.968-0.302,1.896-0.423,2.782c-0.121,0.889-0.263,1.694-0.423,2.42
				c-0.082,0.727-0.163,1.412-0.242,2.058c-0.082,0.646-0.163,1.251-0.242,1.814c0.161-0.161,0.342-0.342,0.544-0.545
				c0.201-0.2,0.382-0.382,0.544-0.544c0.161-0.161,0.342-0.342,0.545-0.545c0.2-0.2,0.382-0.423,0.544-0.665
				c0.161-0.161,0.342-0.342,0.544-0.545c0.2-0.2,0.423-0.423,0.666-0.665c0.161-0.242,0.342-0.484,0.544-0.726
				c0.2-0.242,0.423-0.484,0.665-0.727c0.403-0.563,0.826-1.128,1.271-1.693c0.442-0.563,0.908-1.129,1.392-1.694
				c0.242-0.321,0.484-0.624,0.726-0.907c0.242-0.282,0.484-0.584,0.726-0.907c0.161-0.321,0.363-0.645,0.605-0.968
				c0.242-0.322,0.484-0.646,0.726-0.969c0.403-0.645,0.826-1.289,1.271-1.936c0.442-0.645,0.866-1.289,1.271-1.936
				c0.402-0.645,0.766-1.311,1.089-1.997c0.321-0.684,0.645-1.35,0.968-1.996c0.161-0.402,0.342-0.826,0.544-1.271
				c0.201-0.442,0.382-0.907,0.544-1.392c0.161-0.483,0.342-0.968,0.544-1.451c0.201-0.484,0.342-0.968,0.424-1.452
				c0.079-0.242,0.14-0.463,0.181-0.666c0.04-0.2,0.101-0.423,0.182-0.665c0-0.16,0.019-0.363,0.061-0.604
				c0.04-0.242,0.1-0.484,0.182-0.727c0-0.242,0.019-0.483,0.061-0.726c0.04-0.242,0.06-0.484,0.06-0.727
				c0.08-0.16,0.121-0.362,0.121-0.604s0-0.484,0-0.726c0-0.646-0.061-1.311-0.181-1.997c-0.121-0.684-0.263-1.31-0.424-1.875
				c-0.242-0.645-0.505-1.271-0.786-1.875c-0.284-0.605-0.626-1.189-1.029-1.755c-0.404-0.563-0.888-1.089-1.452-1.573
				c-0.565-0.483-1.17-0.968-1.815-1.451c-0.726-0.403-1.494-0.806-2.299-1.21c-0.807-0.403-1.694-0.766-2.662-1.089v-0.363
				C328.646,636.485,328.585,637.15,328.545,637.835z"/>
			<path fill="#231F20" d="M376.941,714.182c-1.17-0.766-2.238-1.592-3.207-2.48c-0.967-0.887-1.835-1.876-2.601-2.965
				c-0.768-1.089-1.433-2.238-1.997-3.448c-0.564-1.128-1.088-2.398-1.572-3.811c-0.484-1.411-0.848-2.923-1.089-4.538
				c-0.323-1.612-0.545-3.306-0.665-5.081c-0.121-1.773-0.182-3.67-0.182-5.687c0-1.773,0.039-3.63,0.121-5.566
				c0.078-1.936,0.241-3.951,0.483-6.049c0.161-2.097,0.403-4.274,0.726-6.534c0.322-2.257,0.685-4.637,1.09-7.139
				c0.402-2.42,0.846-4.979,1.33-7.683c0.484-2.701,1.008-5.505,1.573-8.409c0.563-2.903,1.169-5.907,1.815-9.014
				c0.645-3.104,1.33-6.353,2.057-9.74c0.402,0,0.766,0,1.088,0c0.404,0,0.867,0,1.393,0c0.523,0,1.189,0,1.996,0
				c0.727,0,1.471,0,2.238,0c0.766,0,1.553,0,2.359,0c0.887,0,1.754,0,2.602,0c0.846,0,1.713,0,2.602,0c0.645,0,1.309,0,1.996,0
				c0.684,0,1.35,0,1.996,0c0.645,0,1.289,0,1.936,0c0.645,0,1.289,0,1.936,0c0.645,0,1.229,0,1.756,0c0.523,0,1.027,0,1.512,0
				c0.402,0,0.787,0,1.148,0c0.363,0,0.705,0,1.029,0c-0.807,3.47-1.572,6.797-2.299,9.982c-0.727,3.188-1.412,6.312-2.057,9.377
				c-0.646,2.984-1.271,5.909-1.875,8.771c-0.605,2.864-1.191,5.587-1.756,8.167c-0.564,2.583-1.068,5.082-1.512,7.502
				s-0.787,4.719-1.029,6.896c-0.322,2.259-0.543,4.376-0.664,6.352c-0.121,1.978-0.143,3.893-0.061,5.747
				c0,1.373,0.039,2.704,0.121,3.993c0.078,1.291,0.242,2.501,0.484,3.63c0.24,1.13,0.523,2.22,0.846,3.267
				c0.322,1.049,0.727,2.018,1.211,2.904c0.402,0.968,0.906,1.856,1.512,2.661c0.605,0.808,1.27,1.573,1.996,2.299
				c0.727,0.727,1.572,1.373,2.541,1.937c0.969,0.564,1.977,1.049,3.025,1.451l12.34-91.591h27.104l-16.576,96.915
				c-0.564,0-1.131,0-1.693,0c-0.566,0-1.23,0-1.996,0c-0.768,0-1.676,0-2.723,0c-1.051,0-2.139,0-3.268,0c-1.131,0-2.299,0-3.508,0
				c-1.211,0-2.42,0-3.631,0c-1.209,0-2.5,0-3.871,0c-0.082,0-0.162-0.042-0.242-0.121c-0.082,0-0.143,0-0.182,0
				c-0.041,0-0.102,0-0.182,0c-0.082,0-0.162,0-0.242,0s-0.162,0-0.242,0s-0.162,0-0.242,0s-0.162,0-0.242,0s-0.162,0-0.24,0
				c-0.082,0-0.164,0-0.242,0c-1.291,0-2.541,0-3.752,0c-1.209,0-2.379,0-3.508,0c-1.211,0-2.359,0-3.449,0
				c-1.088,0-2.197,0-3.326,0c-1.049,0-2.039,0-2.965,0c-0.928,0-1.715,0-2.359,0c-0.727,0-1.33,0-1.814,0s-0.848,0-1.09,0
				C379.381,715.614,378.109,714.949,376.941,714.182z"/>
			<path fill="#231F20" d="M450.807,715.693c-0.081-0.16-0.223-0.402-0.423-0.726c-0.203-0.321-0.424-0.685-0.666-1.089
				c-0.081-0.161-0.202-0.363-0.363-0.605c-0.162-0.241-0.283-0.483-0.362-0.726c-0.163-0.242-0.303-0.484-0.424-0.726
				c-0.121-0.242-0.263-0.524-0.424-0.848c-0.241-0.563-0.504-1.168-0.786-1.814c-0.283-0.645-0.586-1.371-0.907-2.178
				c-0.323-0.727-0.626-1.492-0.907-2.299c-0.284-0.806-0.545-1.652-0.787-2.541c-0.323-0.887-0.604-1.834-0.847-2.844
				c-0.242-1.007-0.483-2.036-0.726-3.085c-0.242-1.047-0.444-2.117-0.605-3.206c-0.162-1.089-0.323-2.238-0.483-3.448
				c-0.082-1.21-0.163-2.42-0.242-3.63c-0.081-1.21-0.121-2.46-0.121-3.751c0-2.178,0.14-4.435,0.424-6.775
				c0.281-2.339,0.705-4.759,1.271-7.26c0.645-2.42,1.391-4.919,2.238-7.501c0.847-2.581,1.833-5.243,2.964-7.986
				c1.129-2.661,2.541-5.363,4.234-8.106c1.694-2.741,3.67-5.484,5.929-8.227c2.258-2.742,4.779-5.506,7.562-8.288
				c2.782-2.783,5.868-5.585,9.256-8.409c0.483,0,0.968,0,1.452,0c0.483,0,1.107,0,1.875,0c0.766,0,1.673,0,2.723,0
				c0.968,0,1.996,0,3.085,0s2.157,0,3.206,0c1.129,0,2.278,0,3.448,0c1.169,0,2.359,0,3.569,0c0.887,0,1.794,0,2.723,0
				c0.926,0,1.794,0,2.602,0c0.887,0,1.754,0,2.601,0c0.848,0,1.674,0,2.48,0c0.887,0,1.694,0,2.42,0c0.727,0,1.371,0,1.937,0
				c0.645,0,1.21,0,1.693,0c0.484,0,0.927,0,1.331,0c-4.438,3.55-8.511,7.018-12.221,10.405c-3.711,3.388-7.059,6.654-10.042,9.801
				c-2.985,3.227-5.586,6.312-7.804,9.256c-2.22,2.945-4.054,5.828-5.505,8.65c-1.533,2.743-2.864,5.426-3.993,8.046
				c-1.131,2.622-2.057,5.103-2.783,7.441c-0.726,2.42-1.271,4.699-1.633,6.836c-0.363,2.138-0.545,4.174-0.545,6.11
				c0,1.049,0.04,2.077,0.121,3.085c0.079,1.01,0.161,1.957,0.242,2.844c0.16,0.968,0.321,1.875,0.484,2.722
				c0.16,0.848,0.402,1.675,0.726,2.48c0.242,0.808,0.503,1.573,0.786,2.299c0.282,0.727,0.584,1.412,0.907,2.057
				c0.322,0.646,0.646,1.271,0.969,1.876c0.321,0.604,0.645,1.149,0.968,1.633c0.321,0.565,0.624,1.089,0.907,1.573
				c0.281,0.484,0.545,0.929,0.786,1.331c0.242,0.404,0.503,0.786,0.787,1.149c0.281,0.363,0.584,0.665,0.907,0.907
				c0.242,0.323,0.483,0.565,0.726,0.726c0.242,0.163,0.403,0.324,0.484,0.484c0.16,0.081,0.321,0.202,0.483,0.363l6.655-47.43
				h25.529l-8.712,51.785H451.17C451.089,715.978,450.968,715.856,450.807,715.693z"/>
			<path fill="#231F20" d="M521.464,715.693c-0.081-0.16-0.223-0.402-0.423-0.726c-0.203-0.321-0.424-0.685-0.666-1.089
				c-0.081-0.161-0.202-0.363-0.363-0.605c-0.162-0.241-0.283-0.483-0.362-0.726c-0.163-0.242-0.303-0.484-0.424-0.726
				c-0.121-0.242-0.263-0.524-0.424-0.848c-0.241-0.563-0.504-1.168-0.786-1.814c-0.283-0.645-0.586-1.371-0.907-2.178
				c-0.323-0.727-0.626-1.492-0.907-2.299c-0.284-0.806-0.545-1.652-0.787-2.541c-0.323-0.887-0.604-1.834-0.847-2.844
				c-0.242-1.007-0.483-2.036-0.726-3.085c-0.242-1.047-0.444-2.117-0.605-3.206c-0.162-1.089-0.323-2.238-0.483-3.448
				c-0.082-1.21-0.163-2.42-0.242-3.63c-0.081-1.21-0.121-2.46-0.121-3.751c0-2.178,0.14-4.435,0.424-6.775
				c0.281-2.339,0.705-4.759,1.271-7.26c0.645-2.42,1.391-4.919,2.238-7.501c0.847-2.581,1.833-5.243,2.964-7.986
				c1.129-2.661,2.541-5.363,4.234-8.106c1.694-2.741,3.67-5.484,5.929-8.227c2.258-2.742,4.779-5.506,7.562-8.288
				c2.782-2.783,5.868-5.585,9.256-8.409c0.483,0,0.968,0,1.452,0c0.483,0,1.107,0,1.875,0c0.766,0,1.673,0,2.723,0
				c0.968,0,1.996,0,3.085,0s2.157,0,3.206,0c1.129,0,2.278,0,3.448,0c1.169,0,2.359,0,3.569,0c0.887,0,1.794,0,2.723,0
				c0.926,0,1.794,0,2.602,0c0.887,0,1.754,0,2.601,0c0.848,0,1.674,0,2.48,0c0.887,0,1.694,0,2.42,0c0.727,0,1.371,0,1.937,0
				c0.645,0,1.21,0,1.693,0c0.484,0,0.927,0,1.331,0c-4.438,3.55-8.511,7.018-12.221,10.405c-3.711,3.388-7.059,6.654-10.042,9.801
				c-2.985,3.227-5.586,6.312-7.804,9.256c-2.22,2.945-4.054,5.828-5.505,8.65c-1.533,2.743-2.864,5.426-3.993,8.046
				c-1.131,2.622-2.057,5.103-2.783,7.441c-0.726,2.42-1.271,4.699-1.633,6.836c-0.363,2.138-0.545,4.174-0.545,6.11
				c0,1.049,0.04,2.077,0.121,3.085c0.079,1.01,0.161,1.957,0.242,2.844c0.16,0.968,0.321,1.875,0.484,2.722
				c0.16,0.848,0.402,1.675,0.726,2.48c0.242,0.808,0.503,1.573,0.786,2.299c0.282,0.727,0.584,1.412,0.907,2.057
				c0.322,0.646,0.646,1.271,0.969,1.876c0.321,0.604,0.645,1.149,0.968,1.633c0.321,0.565,0.624,1.089,0.907,1.573
				c0.281,0.484,0.545,0.929,0.786,1.331c0.242,0.404,0.503,0.786,0.787,1.149c0.281,0.363,0.584,0.665,0.907,0.907
				c0.242,0.323,0.483,0.565,0.726,0.726c0.242,0.163,0.403,0.324,0.484,0.484c0.16,0.081,0.321,0.202,0.483,0.363l6.655-47.43
				h25.529l-8.712,51.785h-50.816C521.746,715.978,521.625,715.856,521.464,715.693z"/>
			<path fill="#231F20" d="M587.343,691.677c-0.041-0.04-0.102-0.14-0.182-0.303c-0.081-0.16-0.142-0.362-0.181-0.604
				c-0.042-0.242-0.143-0.524-0.303-0.848c-0.081-0.321-0.182-0.684-0.303-1.089c-0.121-0.402-0.263-0.847-0.423-1.33
				c-0.082-0.484-0.182-1.029-0.303-1.634c-0.121-0.605-0.263-1.229-0.424-1.875c-0.162-0.646-0.303-1.371-0.424-2.179
				c-0.12-0.805-0.263-1.612-0.423-2.419c-0.081-0.887-0.182-1.773-0.303-2.662c-0.121-0.887-0.263-1.854-0.424-2.904
				c-0.081-1.047-0.181-2.136-0.302-3.267c-0.121-1.129-0.182-2.299-0.182-3.509c-0.081-1.21-0.121-2.48-0.121-3.812
				c0-1.33,0-2.722,0-4.174c0-1.129,0-2.257,0-3.388c0-1.129,0.04-2.299,0.121-3.509c0-1.21,0.061-2.48,0.182-3.812
				s0.221-2.681,0.302-4.053c0.08-1.371,0.182-2.741,0.303-4.114c0.121-1.37,0.261-2.782,0.424-4.234
				c0.16-1.452,0.342-2.965,0.544-4.537c0.201-1.573,0.424-3.165,0.666-4.779c0.242,0,0.523,0,0.847,0c0.242,0,0.563,0,0.968,0
				c0.403,0,0.887,0,1.452,0c0.563,0,1.149,0,1.755,0c0.604,0,1.229,0,1.875,0c0.645,0,1.31,0,1.996,0c0.685,0,1.432,0,2.238,0
				c0.08,0.081,0.182,0.121,0.303,0.121s0.221,0,0.303,0c0.16,0,0.302,0,0.423,0s0.222,0,0.303,0c0.079,0,0.14,0,0.182,0
				c0.04,0,0.101,0,0.182,0c0.079,0,0.16,0,0.242,0c0.079,0,0.16,0,0.241,0c0.161,0,0.282,0,0.363,0c0.079,0,0.14,0,0.182,0
				c0.04,0,0.101,0,0.182,0c0.645,0,1.271,0,1.875,0c0.605,0,1.189,0,1.755,0c0.321,0,0.623,0,0.907,0c0.281,0,0.584,0,0.907,0
				c0.242,0,0.503,0,0.786,0c0.282,0,0.585,0,0.908,0c0.563,0,1.089,0,1.572,0c0.484,0,0.968,0,1.452,0s0.907,0,1.271,0
				s0.705,0,1.028,0c-0.565,2.661-1.049,5.224-1.452,7.683c-0.404,2.462-0.768,4.779-1.089,6.957
				c-0.323,2.26-0.626,4.377-0.907,6.353c-0.283,1.978-0.505,3.893-0.665,5.747c-0.163,1.775-0.303,3.489-0.424,5.142
				c-0.121,1.654-0.223,3.207-0.303,4.658c-0.081,1.452-0.142,2.825-0.182,4.114c-0.041,1.291-0.061,2.501-0.061,3.63
				c0,0.807,0,1.572,0,2.299c0,0.726,0.04,1.412,0.121,2.057c0,0.646,0.02,1.251,0.061,1.814c0.04,0.565,0.101,1.089,0.182,1.573
				c0.079,0.565,0.14,1.07,0.182,1.513c0.04,0.444,0.101,0.867,0.182,1.271c0.079,0.323,0.14,0.665,0.182,1.028
				c0.039,0.362,0.1,0.707,0.181,1.028c0.08,0.323,0.141,0.604,0.182,0.847c0.04,0.242,0.101,0.484,0.182,0.727
				c0.079,0.241,0.14,0.423,0.182,0.544c0.04,0.121,0.101,0.263,0.182,0.424c0.079,0.081,0.14,0.182,0.182,0.302
				c0.039,0.121,0.061,0.224,0.061,0.303c0,0.081,0.039,0.121,0.121,0.121l17.423-67.877h29.643l-29.522,97.036h-23.472l4.96-24.683
				l-20.811,0.121C587.403,691.658,587.383,691.719,587.343,691.677z"/>
		</g>
	</g>
</g>
</svg>
