<?xml version="1.0" encoding="utf-8"?>
<!-- Generator: Adobe Illustrator 15.1.0, SVG Export Plug-In . SVG Version: 6.00 Build 0)  -->
<!DOCTYPE svg PUBLIC "-//W3C//DTD SVG 1.1//EN" "http://www.w3.org/Graphics/SVG/1.1/DTD/svg11.dtd">
<svg version="1.1" id="Layer_1" xmlns="http://www.w3.org/2000/svg" xmlns:xlink="http://www.w3.org/1999/xlink" x="0px" y="0px"
	 width="2329.92px" height="720px" viewBox="0 0 2329.92 720" enable-background="new 0 0 2329.92 720" xml:space="preserve">
<g>
	<g>
		<g>
			<path fill="#231F20" d="M400.604,135.875c20.104-10.339,26.528-32.676,11.397-50.13c-11.019-14.252-32.435-13.361-33.597-33.847
				c0.167-18.091,21.484-36.145,29.759-50.896c-1.083,10.774-0.317,29.132,3.52,40.313c8.871,21.699,26.032,21.596,41.969,36.257
				c26.824,25.855,7.101,45.376-14.087,66.488L400.604,135.875z"/>
			<path fill="#231F20" d="M507.481,176.568c22.608,0.3,38.76-16.413,33.584-38.926c-3.04-17.754-22.373-27.014-13.789-45.65
				c8.632-15.9,35.927-21.844,50.155-30.99c-6.012,9.005-13.949,25.577-15.805,37.252c-2.34,23.325,12.86,31.286,20.058,51.71
				c11.562,35.418-15.014,43.404-43.631,52.109L507.481,176.568z"/>
			<path fill="#231F20" d="M582.18,265.737c19.444,11.534,41.78,5.101,48.521-16.995c6.217-16.908-5.928-34.573,10.81-46.447
				c15.412-9.478,42.036-1.02,58.928-1.852c-9.699,4.808-24.847,15.215-32.272,24.409c-13.661,19.053-4.459,33.531-8.399,54.824
				c-7.642,36.464-34.658,30.137-63.807,23.413L582.18,265.737z"/>
			<path fill="#231F20" d="M603.235,381.065c11.275,19.596,33.888,24.965,50.612,9.027c13.721-11.674,11.82-33.024,32.235-35.146
				c18.075-0.685,37.11,19.758,52.233,27.332c-10.81-0.578-29.113,1.049-40.104,5.408c-21.254,9.889-20.347,27.018-34.242,43.629
				c-24.564,28.008-44.991,9.229-67.076-10.949L603.235,381.065z"/>
			<path fill="#231F20" d="M554.28,503.735c-1.024,22.584,15.16,39.266,37.83,34.812c17.845-2.473,27.715-21.5,46.068-12.318
				c15.616,9.137,20.683,36.607,29.368,51.123c-8.808-6.299-25.118-14.762-36.726-16.994c-23.243-3.084-31.687,11.854-52.327,18.395
				c-35.771,10.42-42.903-16.398-50.684-45.279L554.28,503.735z"/>
			<path fill="#231F20" d="M438.778,582.554c-14.289,17.523-11.242,40.562,9.613,50.504c15.795,8.654,35.067-0.732,44.328,17.586
				c7.087,16.643-5.229,41.717-6.908,58.545c-3.317-10.305-11.359-26.826-19.352-35.539c-16.816-16.332-32.502-9.377-52.975-16.436
				c-34.927-12.963-24.663-38.744-13.687-66.57L438.778,582.554z"/>
			<path fill="#231F20" d="M312.771,583.048c-21.355,7.428-30.844,28.643-18.299,48.045c8.912,15.652,30.243,17.764,28.527,38.217
				c-2.695,17.885-26.325,32.781-36.584,46.229c2.58-10.514,4.395-28.803,2.158-40.41c-5.756-22.723-22.757-25.023-36.488-41.768
				c-22.945-29.355-0.686-45.922,23.252-63.865L312.771,583.048z"/>
			<path fill="#231F20" d="M196.113,505.737c-21.754-6.162-41.692,5.777-42.54,28.867c-1.678,17.934,14.589,31.893,1.456,47.666
				c-12.468,13.107-40.369,11.76-56.483,16.896c8.142-7.135,20.116-21.08,24.94-31.871c8.314-21.916-4.291-33.549-5.939-55.143
				c-1.964-37.207,25.773-38.018,55.671-38.984L196.113,505.737z"/>
			<path fill="#231F20" d="M145.65,384.065c-13.842-17.877-36.974-20.113-51.371-2.045c-12,13.434-7.207,34.322-27.142,39.213
				c-17.815,3.141-39.46-14.52-55.474-19.955c10.785-0.908,28.702-5.012,38.992-10.828c19.708-12.693,16.477-29.541,27.977-47.888
				c20.519-31.097,43.314-15.275,67.942,1.706L145.65,384.065z"/>
			<path fill="#231F20" d="M173.359,252.784c-2.4-22.481-20.919-36.525-42.656-28.696c-17.264,5.135-24.147,25.433-43.681,19.131
				c-16.814-6.675-25.97-33.064-36.751-46.097c9.656,4.892,27.062,10.798,38.874,11.246c23.439-0.462,29.526-16.5,48.947-26.084
				c33.783-15.703,44.887,9.729,56.94,37.107L173.359,252.784z"/>
			<path fill="#231F20" d="M268.034,160.902c11.042-19.731,4.055-41.896-18.206-48.081c-17.055-5.796-34.408,6.786-46.7-9.65
				c-9.856-15.169-2.066-41.995-3.327-58.86c5.051,9.574,15.838,24.458,25.214,31.653c19.39,13.18,33.631,3.616,55.017,7.026
				c36.644,6.727,30.992,33.895,24.993,63.2L268.034,160.902z"/>
		</g>
		<g>
			<path fill-rule="evenodd" clip-rule="evenodd" fill="#231F20" d="M484.548,162.983c-10.071-6.121-18.789-17.423-13.051-29.383
				c7.109-5.981,14.536-8.88,19.895-16.816c6.482-9.608,4.416-19.547,5.213-28.701c0.315,0.254,0.631,0.511,0.944,0.767
				c5.263,4.452,11.034,19.341,12.782,26.811c0.475,2.033,1.342,3.186,1.307,4.196c-0.551,15.478-23.39,18.895-26.544,31.807
				C484.079,155.796,486.611,160.031,484.548,162.983"/>
			<path fill-rule="evenodd" clip-rule="evenodd" fill="#231F20" d="M570.303,244.067c-6.949-9.517-10.665-23.3-0.777-32.143
				c8.857-2.796,16.829-2.624,24.823-7.895c9.675-6.385,11.577-16.358,15.828-24.503c0.192,0.356,0.385,0.713,0.578,1.071
				c3.149,6.129,2.767,22.094,1.513,29.661c-0.338,2.062,0.021,3.458-0.398,4.375c-6.451,14.085-28.854,8.476-36.723,19.189
				C572.624,237.25,573.342,242.134,570.303,244.067"/>
			<path fill-rule="evenodd" clip-rule="evenodd" fill="#231F20" d="M603.69,358.7c-0.917-11.75,3.164-25.43,16.219-27.762
				c9.008,2.273,15.7,6.607,25.271,6.319c11.588-0.353,18.441-7.839,26.338-12.54c-0.023,0.405-0.048,0.811-0.067,1.215
				c-0.541,6.87-9.25,20.253-14.291,26.036c-1.372,1.574-1.799,2.951-2.642,3.514c-12.883,8.599-28.998-7.941-41.324-2.957
				C609.249,354.119,607.292,358.649,603.69,358.7"/>
			<path fill-rule="evenodd" clip-rule="evenodd" fill="#231F20" d="M577.42,469.466c6.674-9.709,18.448-17.785,30.066-11.389
				c5.573,7.432,8.054,15.006,15.678,20.803c9.229,7.008,19.27,5.502,28.364,6.809c-0.271,0.303-0.545,0.602-0.82,0.902
				c-4.737,5.002-19.923,9.938-27.482,11.262c-2.054,0.361-3.252,1.16-4.26,1.07c-15.428-1.416-17.562-24.408-30.274-28.283
				C584.623,469.399,580.251,471.692,577.42,469.466"/>
			<path fill-rule="evenodd" clip-rule="evenodd" fill="#231F20" d="M480.749,566.493c10.881-4.525,25.149-4.904,31.426,6.779
				c0.644,9.27-1.396,16.975,1.855,25.982c3.938,10.902,13.185,15.09,20.107,21.129c-0.391,0.109-0.783,0.209-1.177,0.316
				c-6.697,1.623-22.124-2.492-29.188-5.484c-1.923-0.814-3.364-0.795-4.161-1.418c-12.179-9.57-1.473-30.033-10.038-40.195
				C486.831,570.353,481.916,569.896,480.749,566.493"/>
			<path fill-rule="evenodd" clip-rule="evenodd" fill="#231F20" d="M340.751,589.929c11.753,0.867,24.66,6.963,24.994,20.221
				c-3.604,8.566-8.9,14.523-10.058,24.029c-1.4,11.504,4.961,19.416,8.42,27.928c-0.4-0.08-0.795-0.168-1.192-0.25
				c-6.711-1.568-18.626-12.201-23.582-18.057c-1.349-1.596-2.644-2.229-3.074-3.143c-6.556-14.031,12.227-27.471,9.162-40.402
				C344.439,596.116,340.258,593.491,340.751,589.929"/>
			<path fill-rule="evenodd" clip-rule="evenodd" fill="#231F20" d="M228.303,539.259c7.745,8.885,12.628,22.299,3.541,31.953
				c-8.591,3.553-16.545,4.061-24.057,10.002c-9.088,7.191-10.131,17.289-13.663,25.771c-0.227-0.338-0.448-0.678-0.672-1.018
				c-3.665-5.836-4.653-21.773-4.056-29.422c0.164-2.084-0.312-3.441,0.025-4.396c5.215-14.582,28.017-10.918,34.936-22.264
				C226.573,546.253,225.444,541.446,228.303,539.259"/>
			<path fill-rule="evenodd" clip-rule="evenodd" fill="#231F20" d="M152.312,419.323c3.067,11.379,1.577,25.578-10.825,30.27
				c-9.277-0.572-16.647-3.604-26.004-1.557c-11.322,2.48-16.688,11.102-23.578,17.174c-0.056-0.4-0.107-0.807-0.159-1.205
				c-0.735-6.854,5.36-21.615,9.253-28.225c1.059-1.801,1.229-3.232,1.949-3.941c11.082-10.818,29.97,2.469,41.163-4.699
				C147.693,424.849,148.786,420.034,152.312,419.323"/>
			<path fill-rule="evenodd" clip-rule="evenodd" fill="#231F20" d="M159.085,281.584c-3.896,11.123-13.146,21.996-26.034,18.864
				c-7.331-5.713-11.702-12.379-20.577-15.974c-10.742-4.352-20.039-0.27-29.159,0.85c0.182-0.363,0.371-0.725,0.555-1.085
				c3.265-6.069,16.632-14.802,23.578-18.062c1.891-0.887,2.838-1.973,3.834-2.149c15.255-2.671,23.335,18.966,36.619,19.375
				C152.152,283.534,155.773,280.179,159.085,281.584"/>
			<path fill-rule="evenodd" clip-rule="evenodd" fill="#231F20" d="M237.107,179.832c-9.406,7.104-23.127,11.038-32.123,1.294
				c-2.943-8.816-2.891-16.788-8.293-24.697c-6.535-9.572-16.538-11.318-24.752-15.435c0.354-0.202,0.711-0.399,1.064-0.598
				c6.077-3.248,22.043-3.118,29.632-1.984c2.065,0.308,3.457-0.071,4.382,0.332c14.186,6.224,8.934,28.715,19.767,36.409
				C230.253,177.619,235.128,176.83,237.107,179.832"/>
			<path fill-rule="evenodd" clip-rule="evenodd" fill="#231F20" d="M364.715,133.16c-11.695,1.431-25.541-2.047-28.439-14.987
				c1.877-9.102,5.917-15.975,5.208-25.526c-0.854-11.559-8.632-18.087-13.675-25.765c0.406,0.002,0.813,0.011,1.22,0.016
				c6.887,0.238,20.636,8.356,26.634,13.142c1.632,1.302,3.023,1.671,3.623,2.484c9.154,12.498-6.668,29.324-1.153,41.413
				C359.896,127.808,364.512,129.568,364.715,133.16"/>
		</g>
		<g>
			<path fill-rule="evenodd" clip-rule="evenodd" fill="#231F1F" d="M553.411,327.744c-6.299-2.638-14.643-5.605-22.142-5.791
				c-5.815-0.158-11.476,1.744-16.583,3.03c-5.187,1.337-10.185,2.785-14.924,4.71c2.872,3.951,7.082,7.479,11.058,11.055
				c3.997,3.604,8.163,7.158,11.896,10.792c-0.448,1.393-0.695,3-1.101,4.414c1.158,0.324,2.017,0.905,2.464,1.958
				c-1.286,2.578-2.577,5.158-3.864,7.734c-0.739-0.547-1.482-1.104-1.918-1.943c-0.743,0.947-1.631,3.16-2.766,2.756
				c1.336-4.628,3.02-8.943,3.865-14.101c-6.368-6.871-14.217-13.082-21.58-18.506c-1.206-0.923-2.529-1.185-3.875-1.945
				c-4.942-2.845-9.556-7.032-14.365-10.504c-14.628-10.584-28.845-21.952-43.433-32.089c-3.973-7.603-7.498-16.124-11.872-24.319
				c-4.208-7.925-7.896-17.134-13.548-22.947c-5.422-5.587-13.486-8.715-22.41-10.794c-3.365-2.219-7.068-4.289-11.342-6.636
				c-2.896-1.603-9.048-5.656-12.154-6.077c-4.451-0.627-10.326,0.318-15.48,0.551c-9.422,0.427-20.324,1.314-28.479-0.291
				c-1.58-0.316-2.87-1.468-4.168-1.917c-4.124-1.476-8.422-1.132-13.267-1.681h-2.755c-20.818,0.658-32.716,6.836-38.461,21.286
				c-0.808,2.105-0.941,4.683-2.206,6.926c-1.24,2.183-4.977,3.475-4.424,6.918c-12.099,1.818-23.008,6.908-24.345,18.799
				c-0.404,3.57,0.209,7.288,0.58,10.786c0.269,2.664,1.719,7.815,1.371,9.95c-0.312,2.008-4.665,4-4.424,6.374
				c0.256,2.684,4.082,2.212,6.631,3.321c2.164,0.92,2.893,2.471,4.157,3.026c2.337,4.945-0.024,7.101-2.496,10.527
				c-1.403,1.918-2.795,3.733-3.868,5.239c-2.526,3.6-6.113,7.917-7.197,11.34c-0.57,1.846,0.297,3.37-1.388,5.264
				c-3.396-5.924-4.793-10.764-8.007-16.604c-2.447-4.433-7.082-12.325-11.342-13.264c-5.129-1.163-11.952,0.229-16.312,0.548
				c-5.004,0.365-11.056,0.18-15.216,1.921c-6.405,2.708-9.213,14.103-10.218,21.583v5.262c0.586,22.773,4.162,48.01,15.193,61.646
				c1.18,1.471,2.685,3.291,4.16,4.436c1.837,1.432,5.629,4.062,7.733,4.438c2.347,0.357,5.636-0.791,8.58-1.398
				c9.005-1.848,16.185-4.027,22.953-7.188c6.269-9.08,7.741-25.398,6.078-40.658c1.427-0.034,2.186,0.57,3.61,0.57v-1.397
				l0.816-1.104c-0.841-0.548-1.816-0.94-2.478-1.661c-0.108-1.1,0.633-1.381,0.555-2.489c6.763-1.773,13.712,0.679,20.456,1.389
				c0.178,2.104,0.888,3.711,1.098,5.822c-2.659-0.029-4.634-0.745-7.19-0.854v1.375l-0.837,1.104
				c3.601,1.502,9.267,0.891,12.449,2.787c0.818,1.903-1.581,2.553-2.762,3.322c-3.422,2.135-9.998,5.18-11.9,8
				c-5.732,8.578,8.299,9.32,14.953,10.797c9.996,2.205,18.85,3.527,26.533,6.363c-2.029,3.08-1.471,7.613-2.479,11.607
				c-0.731,2.947-4.078,5.793-1.393,8.846c-1.027,2.555-1.477,5.738-2.204,8.58c-0.194,1.559,1.812,0.947,1.942,2.215
				c-0.269,2.627-1.396,4.939-1.105,7.445c0.184,1.846,1.896,3.078,2.478,5.266c0.522,1.994-0.16,4.547,0.282,6.635
				c0.848,4.078,6.133,6.314,3.584,11.342c0.764,2.469,3.292,3.184,4.711,4.975c-0.26,5.867,2.42,8.848,6.343,10.504
				c1.001,1.764,1.13,4.098,2.242,5.814c0.763,1.217,2.834,1.637,4.132,2.764c1.891,1.635,2.055,4.604,3.313,5.814
				c1.078,1.006,2.789,0.211,4.153,1.109c2.081,1.34,1.923,4.238,3.869,5.535c1.319,0.338,2.954,0.363,4.137,0.807
				c1.473,0.664,1.238,3.023,2.791,3.602c4.343-0.994,6.604,0.66,8.288,3.037c3.431-1.43,6.321,2.916,9.667,2.781
				c2.229-0.102,3.229-1.895,4.707-1.391c2.157,0.73,1.711,4.764,4.717,3.873h0.256c0.472-0.635,2.104-0.109,3.06-0.271
				c0.681-0.23-0.326-2.186,0.809-1.939c1.349-0.137,3.239,0.283,4.157-0.271c2.052,4.559,8.482,0.689,11.064-0.84
				c1.711,0.684,2.497,1.395,4.152,1.395c3.264-0.043,5.316-4.318,8.845-2.504c2.557-2.316,5.652-4.098,6.899-7.73
				c5.104-0.535,9.733-5.262,13.842-9.133c7.159-6.771,11.925-14.299,15.77-24.064c2.579-6.629,5.87-13.209,4.13-20.996
				c0.552-0.736,2.398-0.193,2.504-1.406c-0.189-2.709-3.501-4.705-3.057-7.184c0.314-1.656,2.32-1.074,2.206-3.307
				c-1.913-1.215-1.683-4.584-3.015-6.375c1.146-2.055-0.082-4.338-0.298-6.627c4.79-0.029,9.945-1.695,13.01,1.1
				c6.783-3.158,13.681-6.209,21.002-8.85c-0.247,11.982,3.897,18.354,14.108,19.092c10.18,0.734,22.526-3.688,30.426-5.27
				c4.5,4.531,8.785,8.008,15.764,9.689c6.53,1.578,13.502,3.896,21.556,3.863c29.295-0.076,52.145-19.654,53.648-46.713
				C590.124,353.436,573.564,336.221,553.411,327.744 M226.259,342.692c-0.546-3.153,1.712-3.441,2.236-5.548
				c0.267,0,0.32,0.234,0.557,0.292l0.681-0.975l0.976-0.69v-0.547c1.263,0.18,1.711-0.504,2.213-1.108
				c-0.136-0.976-1.214-0.553-0.556-1.657c0.865-0.736,2.13,0.55,2.771-0.552c-0.301-0.745-1.692-0.347-1.668-1.394
				c0.61-1.294,1.449-1.03,2.765-0.555c0.239-1.558-1.368-1.69-0.553-3.027c0.95-0.233,1.062,0.391,1.919,0.262
				c0.613-0.921-1.127-1.419,0-2.467c0.793-0.243,0.715,0.381,1.402,0.258c0.44-0.258,0.284-1.158,0.548-1.656
				c2.447,0.145,4.447-0.165,6.636-0.265c0.208,4.4,1.28,7.914,1.104,12.708c-0.397,0.162-0.682,0.421-0.848,0.853l0.713,1.133
				l-0.149,1.334c1.126,0.186,1.579-0.264,2.493-0.264C243.924,342.248,233.675,346.987,226.259,342.692 M241.471,319.456
				c1.817,0.812,0.924-0.69,1.951-1.369c1.214,0.079,1.053,1.521,1.649,2.21c-0.573,0.684-1.912,0.656-3.05,0.811
				C241.871,320.527,241.342,320.322,241.471,319.456 M252.262,347.676c-2.075-0.352-4.157-0.666-6.36-0.841
				c1.651-0.851,4.093-0.875,6.1-1.376C251.791,346.488,252.45,346.643,252.262,347.676 M252.001,268.867
				c-5.394,2.681-9.054,7.153-6.93,13.813c0.38,1.14,1.298,2.394,1.37,3.582c0.166,2.263-1.857,4.314-1.65,6.364
				c-1.241,0.246-2.473,0.475-3.584,0.85c-0.631,0.103-0.1,1.338-0.286,1.918c-1.662-0.343-2.294-1.76-3.321-2.768
				c0.027-7.919-2.368-15.364-1.919-22.389c0.629-10.29,9.53-14.114,19.641-15.477h0.258
				C255.842,258.576,253.238,264.548,252.001,268.867 M430.061,288.214c0.444,0.581,0.923,1.128,1.107,1.942
				c-0.632,0.082-1.025,0.42-1.921,0.265C429.17,289.342,429.825,289,430.061,288.214 M398.559,238.704
				c3.921,1.859,10.768,8.37,13.262,12.175c2.64,4.012,4.531,9.546,6.924,14.377c2.475,5.09,5.318,9.74,6.633,14.66
				c3.894,14.718-9.897,13.01-23.236,13.01c-6.657,0-13.246,0.55-18.539,0.257c-0.469-0.681-0.263-3.525-0.543-4.68
				c-1.744-7.158-10.584-12.849-18.535-10.239c-1.924,0.627-3.792,2.256-5.238,3.579c-1.346,1.234-2.268,3.605-4.71,3.874
				c4.42-16.323,9.366-32.095,12.454-49.78C377.656,235.961,390.819,235.04,398.559,238.704 M349.052,293.476
				c-0.953-0.083-2.247,0.21-2.771-0.293c2.447-19.662,10.218-36.421,13.004-56.696c-0.241-1.606,2.263-0.473,3.314-0.812
				C359.842,256.39,352.656,273,349.052,293.476 M370.886,225.726c2.219,1.842,5.271,2.843,7.188,4.967
				c-3.201,0.085-6.206-0.054-9.102-0.288C369.388,228.621,370.394,227.403,370.886,225.726 M364.818,222.412
				c0.704,0.918,1.995,1.309,2.76,2.205c-0.422,2.06-1.238,3.743-2.205,5.248c-13.328,0.857-22.537-4.75-33.195-7.452
				C342.81,221.54,353.782,222.727,364.818,222.412 M341.312,229.302c-3.872,0.842-8.882,0.398-9.4-3.021
				C334.96,227.36,338.466,227.987,341.312,229.302 M332.462,234.834c7.841-0.107,15.403,0.079,22.672,0.55
				c-0.665,11.286-4.245,20.078-6.636,30.163c-1.895,8.028-3.666,15.974-6.634,23.213c-2.396-14.735-3.157-31.132-17.138-34.289
				c-0.344-3.904-2.055-8.616-0.551-12.167C325.122,240.04,331.125,237.17,332.462,234.834 M337.146,286.555
				c-6.76-6.219-8.812-17.161-11.053-27.926C335.181,262.523,336.391,274.334,337.146,286.555 M318.359,252.544
				c-1.037,0-1.619-0.422-2.21-0.841c-0.029-1.397,0.943-1.79,1.364-2.763C318.887,249.042,318.174,251.255,318.359,252.544
				 M319.723,256.971c1.636,6.496,3.297,12.948,4.453,19.891c-3.053-2.76-2.981-7.81-4.975-11.315
				c-1.555-2.659-4.163-2.975-6.367-5.003c0.051-1.759,0.785-2.866,0.811-4.679C315.991,255.913,317.57,256.73,319.723,256.971
				 M275.771,236.781c5.843-5.055,11.946-10.554,18.236-15.48c3.315,0.368,7.768,0.525,11.639,0.817
				c3.706,0.264,8.156-0.027,11.319,0.84c4.782,1.293,7.846,6.213,11.628,8.007c-2.337,1.417-4.979,2.792-6.647,4.972
				c-1.587,2.105-2.135,5.183-3.874,7.208c-0.837,0.976-2.241,1.348-3.033,2.22c-1.419,1.522-1.681,3.207-3.047,4.685
				c-8.795-7.429-25.747-6.69-41.198-7.447C271.033,239.757,273.902,238.385,275.771,236.781 M269.138,246.463
				c16.155,0.06,32.739-0.315,41.188,7.454c0.137,2.53-0.924,3.894-1.922,5.263c-3.42-0.369-4.154-3.398-6.108-5.263
				c-9.994-0.19-20.079-2.586-29.026,0c0.471,2.181-1.552,6.26-0.812,9.677c0.34,1.559,1.229,2.508,2.213,3.61
				c0.023,0.839-0.876,0.784-0.558,1.926c0.815,2.313,4.048,2.209,4.157,5.259c-3-1.63-6.953-2.289-9.973-3.868
				c2.578-4.054-1.296-5.604-5.527-5.265C264.82,258.919,267.163,252.857,269.138,246.463 M315.038,424.53
				c-0.79-6.721,1.165-12.984,3.033-17.955c4.601,2.68,8.857,5.688,13.289,8.555C333.205,424.53,322.357,423.427,315.038,424.53
				 M329.965,451.923c-5.032-4.281-9.924-8.682-12.162-15.76c5.217-2.078,15.954-7.555,18.532-0.85
				C338.682,441.417,330.887,446.61,329.965,451.923 M326.094,397.44c3.32-3.869,10.583-5.264,17.429-4.711
				c-0.13,4.023,0.157,7.607,0.264,11.344c-1.769,0.789-3.317,1.848-5.242,2.502C334.73,403.185,328.883,401.837,326.094,397.44
				 M341.018,457.46c2.061-6.713,2.266-18.486,10.79-17.721c1.975,5.426,4.028,10.713,5.825,16.32
				C353.921,458.3,346.281,458.479,341.018,457.46 M368.123,446.665c-4.361-1.553-4.097-7.713-6.624-11.057
				c2.474-2.686,5.106-5.217,6.897-8.582c1.71-0.047,2.736,0.605,4.449,0.553C372.945,434.528,372.237,443.028,368.123,446.665
				 M414.297,393.571c-2.448-9.717-8.003-16.344-14.081-22.402c-0.048-0.865,0.657-1.543,0-2.207
				c-6.368-8.575-19.532-13.609-31.532-17.422c-4.182-1.345-8.24-3.371-12.163-4.16c-2.759-0.521-5.946-0.341-8.837-0.545
				c-15.273-1.091-24.328,3.966-34.594,9.676c-3.394,1.902-7.203,3.4-8.549,5.817c-3.36,1.892-6.245,5.216-9.137,8.558
				c-2.678,3.104-6.315,6.605-7.732,9.947c-0.404,0.953-0.184,1.844-0.296,2.793c-10.345-1.498-20.66-3.66-30.953-5.555
				c-3.318-0.58-6.894-0.736-9.688-2.477c3.321-3.795,8.292-5.896,12.451-8.842c2.135,6.375,8.112,9.209,15.484,11.605
				c2.568,0.844,6.684,3,8.572,2.762c1.479-0.18,3.682-3.578,5.524-5.814c8.279-10.078,17.583-20.581,30.956-25.708
				c7.611-2.899,16.272-5.402,26.846-4.694c17.801,1.184,36.909,5.631,46.984,14.373c3.745,3.233,7.502,7.917,10.791,12.452
				c4.561,6.262,8.426,12.078,10.504,20.449c4.134-0.975,7.504-1.131,11.899-1.924c0.163,2.502,0.638,4.709,0.556,7.457
				C422.718,396.593,419.091,394.515,414.297,393.571 M381.138,326.38c-17.298-10.298-34.458-20.821-51.173-31.53
				c2.059-0.424,3.475-1.51,4.975-2.48c33.801,21.981,66.96,44.563,100.647,66.643C418.243,349.119,399.317,337.198,381.138,326.38
				 M452.464,392.177c-5.632,3.129-10.291,6.809-18.234,7.736c-0.193-4.16-1.218-7.443-1.4-11.609
				c8.129-0.885,17.584-3.285,25.448-4.412c2.22-0.316,3.823,1.127,5.792,1.396C460.546,387.962,456.497,389.938,452.464,392.177
				 M462.149,415.681c-3.998-3.445-6.369-15.738-1.105-19.631c5.945,2.369,13.047,3.551,19.897,4.969
				c-0.212,4.66,0.426,8.449,0.289,13.002C475.548,415.13,469.074,416.714,462.149,415.681 M528.243,350.432
				c0.314,3.289,1.052,6.132,1.105,9.685c-0.871-0.52-1.58-1.208-1.952-2.205c0.214-0.82,0.085-1.977,0.847-2.232
				C527.225,354.668,525.138,350.75,528.243,350.432 M513.029,377.253c-0.268-2.5,0.391-4.027,1.396-5.266
				c1.815,1.43,3.187,3.271,4.126,5.529C517.214,376.94,514.817,377.411,513.029,377.253 M530.452,398.54
				c-5.107-0.969-10.976-3.6-14.104-7.467c1.445-5.5,8.579-1.135,13.557-1.371C530.608,392.147,532.643,396.501,530.452,398.54
				 M542.905,371.169c-0.344-1.256,0.979-0.865,1.108-1.656l-0.536-1.201l-0.311-1.295c-0.918,0.078-1.896,1.004-2.765,0.283
				c-0.579-0.572,0.347-1.072,0.548-1.654l-1.094-0.85l-0.828-1.094c-2.308,1.287-4.47-0.867-6.629-1.374
				c-0.231-4.021-0.576-7.921-0.845-11.896c7.168,0.578,11.717,3.789,15.476,7.737l0.848,1.106l0.82,1.111
				c0.995-0.927,2.314,0.917,1.652,1.651l0.978,0.689l0.688,0.975c2.229,1.287,2.867,4.156,3.31,7.184
				C552.063,370.282,546.902,371.8,542.905,371.169 M545.378,394.94c-0.607-3.24-0.554-7.162-0.554-11.049
				c2.875,0.916,5.159,2.391,7.745,3.6C551.168,390.938,548.326,393.015,545.378,394.94 M555.326,379.47
				c-3.784-0.609-7.341-1.504-9.948-3.32c2.948-0.738,8.129-2.949,10.498-0.844C556.04,377.04,555.459,378.021,555.326,379.47"/>
			
				<line fill="none" stroke="#231F20" stroke-width="2.7793" stroke-miterlimit="10" x1="245.071" y1="357.329" x2="231.814" y2="354.852"/>
			<line display="none" fill="#FFFFFF" x1="-548.817" y1="330.329" x2="-561.6" y2="327.94"/>
		</g>
		<g>
			<path fill="#231F20" d="M793.182,357.936c-0.958-0.958-1.757-1.967-2.396-3.035c-0.639-1.063-1.277-2.126-1.917-3.195
				c-0.639-1.063-1.173-2.126-1.597-3.194c-0.639-1.063-1.173-2.181-1.597-3.354c-0.429-1.168-0.854-2.286-1.278-3.354
				c-0.429-1.063-0.798-2.181-1.118-3.354c-0.32-1.168-0.589-2.286-0.799-3.354c-0.214-0.424-0.375-0.904-0.479-1.438
				c-0.11-0.529-0.16-1.118-0.16-1.757c-0.215-0.424-0.32-0.904-0.32-1.438c0-0.529,0-1.118,0-1.757
				c-0.214-0.424-0.319-0.903-0.319-1.438c0-0.529,0-1.118,0-1.757c0-0.424,0-0.744,0-0.958c0-0.21,0-0.529,0-0.958
				c0-0.209,0-0.479,0-0.798c0-0.32,0-0.584,0-0.799c0-1.063,0-2.126,0-3.194c0-1.063,0.105-2.236,0.319-3.514
				c0-1.063,0.105-2.126,0.32-3.194c0.209-1.063,0.424-2.126,0.639-3.194c0.424-2.341,0.903-4.522,1.438-6.549
				c0.529-2.021,1.223-4.098,2.076-6.229c0.849-2.126,1.647-4.153,2.396-6.069c0.744-1.917,1.542-3.723,2.396-5.43
				c0.849-1.702,1.757-3.459,2.715-5.271c0.958-1.807,1.862-3.459,2.715-4.951c0.424-0.849,0.849-1.647,1.278-2.396
				c0.424-0.744,0.958-1.438,1.597-2.076c0.424-0.849,0.849-1.597,1.278-2.236c0.424-0.639,0.848-1.278,1.278-1.917
				c0.848-1.278,1.647-2.5,2.396-3.673c0.744-1.168,1.542-2.181,2.396-3.035c0.848-1.063,1.597-1.917,2.236-2.556
				c0.639-0.639,1.063-1.168,1.278-1.597c0.424-0.424,0.849-0.958,1.278-1.597c0.849,0,1.702,0,2.555,0c1.063,0,2.236,0,3.514,0
				s2.875,0,4.792,0c1.702,0,3.514,0,5.43,0c1.917,0,3.938,0,6.069,0c1.917,0,3.993,0,6.229,0c2.236,0,4.417,0,6.549,0
				c1.063,0,2.021,0,2.875,0c0.848,0,1.807,0,2.875,0c0.848,0,1.757,0,2.715,0c0.958,0,1.862,0,2.715,0c1.917,0,3.778,0,5.59,0
				c1.807,0,3.563,0,5.271,0c1.702,0,3.244,0,4.632,0c1.383,0,2.5,0,3.354,0c1.063,0,1.967,0,2.715,0c0.744,0,1.328,0,1.757,0
				c-1.917,2.985-3.729,5.91-5.43,8.785c-1.707,2.875-3.194,5.59-4.472,8.146c-1.493,2.77-2.77,5.381-3.833,7.826
				c-1.068,2.451-2.131,4.847-3.194,7.188c-0.854,2.346-1.707,4.632-2.555,6.868c-0.854,2.236-1.493,4.527-1.917,6.868
				c-0.429,2.131-0.749,4.208-0.958,6.229c-0.215,2.026-0.32,3.993-0.32,5.91c0,1.492,0.05,2.93,0.16,4.312
				c0.104,1.387,0.264,2.715,0.479,3.993c0.424,1.278,0.798,2.556,1.118,3.833c0.319,1.278,0.688,2.451,1.118,3.514
				c0.424,1.278,0.958,2.556,1.597,3.833c0.639,1.278,1.278,2.451,1.917,3.514c0.639,1.278,1.382,2.505,2.236,3.673
				c0.849,1.173,1.702,2.291,2.556,3.354c0.424,0.429,0.798,0.908,1.118,1.437c0.32,0.534,0.689,1.014,1.118,1.438
				c0.424,0.43,0.849,0.854,1.278,1.278c0.424,0.429,0.849,0.854,1.278,1.278c0.209,0.215,0.424,0.429,0.639,0.639
				c0.21,0.214,0.424,0.429,0.639,0.639c0.209,0.214,0.424,0.429,0.639,0.639c0.209,0.215,0.424,0.429,0.639,0.639
				c0.209,0.214,0.424,0.479,0.639,0.798c0.209,0.32,0.424,0.589,0.639,0.799c0.21,0.214,0.37,0.374,0.479,0.479
				c0.104,0.11,0.264,0.16,0.479,0.16c0,0.215,0.05,0.375,0.16,0.479c0.105,0.109,0.265,0.16,0.479,0.16
				c2.765,2.77,5.321,5.43,7.667,7.986c2.341,2.556,4.472,5.111,6.389,7.667c1.917,2.556,3.619,4.951,5.111,7.188
				c1.487,2.236,2.875,4.422,4.153,6.548c1.063,2.132,2.021,4.263,2.875,6.39c0.848,2.131,1.597,4.262,2.236,6.389
				c0.639,2.131,1.118,4.152,1.438,6.069c0.319,1.916,0.479,3.833,0.479,5.749c0,0.215,0,0.43,0,0.64c0,0.214,0,0.429,0,0.639
				c0,0.215,0,0.429,0,0.639c0,0.215,0,0.43,0,0.639c-0.214,0.215-0.319,0.43-0.319,0.639c0,0.215,0,0.43,0,0.64
				c0,0.214,0,0.429,0,0.639c0,0.215,0,0.429,0,0.639c-0.214,0.43-0.375,0.854-0.479,1.278c-0.11,0.429-0.16,0.854-0.16,1.277
				c0,0.215,0,0.43,0,0.639c0,0.215,0,0.43,0,0.639c-0.215,0.215-0.32,0.375-0.32,0.479c0,0.109,0,0.27,0,0.479
				c-0.639,2.556-1.438,5.11-2.396,7.666c-0.958,2.556-2.076,5.111-3.354,7.667s-2.771,5.166-4.472,7.826
				c-1.707,2.665-3.624,5.38-5.75,8.146c-2.131,2.771-4.312,5.59-6.548,8.465c-2.236,2.875-4.527,5.91-6.868,9.104
				c-2.555,3.194-5.111,6.498-7.667,9.902c-2.555,3.409-5.326,6.818-8.305,10.222c-1.068,0-2.131,0-3.194,0
				c-1.068,0-2.396,0-3.993,0s-3.464,0-5.59,0c-2.131,0-4.312,0-6.548,0c-2.236,0-4.527,0-6.868,0c-2.346,0-4.792,0-7.347,0
				s-5.111,0-7.667,0c-0.215-0.215-0.429-0.319-0.639-0.319c-0.214,0-0.429,0-0.639,0c-0.214,0-0.429,0-0.639,0
				c-0.215,0-0.429,0-0.639,0c-0.214,0-0.374,0-0.479,0c-0.11,0-0.27,0-0.479,0c-0.215,0-0.375,0-0.479,0c-0.11,0-0.27,0-0.479,0
				c-2.556,0-5.061,0-7.507,0c-2.451,0-4.846,0-7.188,0c-2.346,0-4.632,0-6.868,0c-2.236,0-4.422,0-6.548,0
				c-2.131,0-4.153,0-6.069,0c-1.917,0-3.514,0-4.792,0c-1.278,0-2.396,0-3.354,0c-0.958,0-1.652,0-2.076,0
				c4.896-4.682,9.473-9.264,13.736-13.735c4.257-4.473,8.091-8.625,11.5-12.458c3.619-3.834,6.918-7.397,9.903-10.701
				c2.979-3.3,5.64-6.334,7.986-9.104c2.341-2.765,4.312-5.431,5.91-7.986c1.597-2.555,3.035-4.896,4.312-7.027
				c1.063-2.341,1.917-4.577,2.555-6.708c0.639-2.126,0.958-4.258,0.958-6.389v-0.319c0-0.21,0-0.425,0-0.639
				c-0.214,0-0.319-0.105-0.319-0.32c0-0.209,0-0.424,0-0.639c0-0.209,0-0.369,0-0.479c0-0.105,0-0.265,0-0.479
				c0-0.21,0-0.424,0-0.639c0-0.21,0-0.425,0-0.639c-0.215-1.488-0.639-2.98-1.278-4.473c-0.639-1.487-1.388-2.979-2.236-4.472
				c-0.854-1.702-1.867-3.354-3.035-4.951c-1.173-1.598-2.506-3.245-3.993-4.952c-1.492-1.701-3.089-3.514-4.792-5.43
				c-1.707-1.917-3.514-3.938-5.431-6.069c-1.917-2.341-3.993-4.682-6.229-7.028c-2.236-2.341-4.527-4.896-6.868-7.666v-0.958
				C795.043,359.693,794.14,358.894,793.182,357.936z M888.854,234.154l57.818-4.792l-16.291,88.484l-53.666,1.597L888.854,234.154z
				"/>
			<path fill="#231F20" d="M976.214,479.322c-3.089-2.021-5.909-4.203-8.465-6.549c-2.556-2.341-4.847-4.951-6.868-7.826
				c-2.026-2.875-3.783-5.909-5.271-9.104c-1.492-2.98-2.875-6.334-4.153-10.062c-1.277-3.724-2.236-7.717-2.875-11.979
				c-0.854-4.258-1.437-8.73-1.757-13.417c-0.319-4.682-0.479-9.688-0.479-15.014c0-4.682,0.105-9.583,0.319-14.694
				c0.21-5.11,0.639-10.432,1.278-15.972c0.424-5.535,1.063-11.285,1.917-17.25c0.849-5.959,1.807-12.243,2.875-18.847
				c1.063-6.389,2.236-13.147,3.514-20.284c1.278-7.133,2.661-14.535,4.153-22.201c1.487-7.667,3.084-15.598,4.792-23.798
				c1.702-8.196,3.514-16.771,5.431-25.715c1.063,0,2.021,0,2.875,0c1.063,0,2.286,0,3.673,0c1.383,0,3.14,0,5.271,0
				c1.917,0,3.883,0,5.909,0c2.021,0,4.098,0,6.229,0c2.341,0,4.632,0,6.868,0s4.522,0,6.868,0c1.702,0,3.459,0,5.271,0
				c1.807,0,3.563,0,5.271,0c1.702,0,3.404,0,5.111,0c1.702,0,3.404,0,5.111,0c1.702,0,3.244,0,4.632,0c1.383,0,2.715,0,3.993,0
				c1.063,0,2.076,0,3.035,0c0.958,0,1.861,0,2.715,0c-2.131,9.159-4.152,17.943-6.069,26.354
				c-1.917,8.415-3.728,16.666-5.43,24.756c-1.707,7.881-3.354,15.603-4.951,23.159c-1.597,7.562-3.145,14.749-4.632,21.562
				c-1.493,6.818-2.825,13.417-3.993,19.805c-1.173,6.389-2.076,12.458-2.715,18.208c-0.854,5.965-1.438,11.555-1.757,16.771
				c-0.319,5.221-0.375,10.277-0.16,15.174c0,3.623,0.105,7.137,0.319,10.541c0.21,3.409,0.639,6.604,1.278,9.583
				c0.639,2.984,1.383,5.859,2.236,8.625c0.848,2.771,1.917,5.325,3.194,7.666c1.063,2.556,2.396,4.901,3.993,7.028
				c1.597,2.131,3.354,4.152,5.271,6.069c1.917,1.916,4.152,3.623,6.708,5.11c2.556,1.493,5.216,2.771,7.986,3.834l32.583-241.815
				h71.554l-43.763,255.87c-1.493,0-2.985,0-4.472,0c-1.493,0-3.25,0-5.271,0c-2.026,0-4.422,0-7.187,0c-2.771,0-5.645,0-8.625,0
				c-2.985,0-6.069,0-9.264,0s-6.389,0-9.583,0s-6.604,0-10.222,0c-0.215,0-0.429-0.109-0.639-0.319c-0.215,0-0.375,0-0.479,0
				c-0.11,0-0.27,0-0.479,0c-0.215,0-0.429,0-0.639,0c-0.215,0-0.43,0-0.639,0c-0.214,0-0.429,0-0.639,0c-0.215,0-0.429,0-0.639,0
				c-0.214,0-0.429,0-0.639,0c-0.215,0-0.429,0-0.639,0c-3.409,0-6.708,0-9.902,0s-6.284,0-9.264,0c-3.194,0-6.229,0-9.104,0
				s-5.805,0-8.785,0c-2.77,0-5.38,0-7.826,0c-2.451,0-4.527,0-6.229,0c-1.917,0-3.514,0-4.792,0s-2.236,0-2.875,0
				C982.653,483.105,979.299,481.349,976.214,479.322z"/>
			<path fill="#231F20" d="M1167.715,243.098h98.387l12.139,137.039l21.402-150.136h61.332c0,0.429-0.16,1.547-0.479,3.354
				c-0.319,1.812-0.798,4.312-1.438,7.507c-0.639,3.194-1.388,7.242-2.235,12.139c-0.854,4.901-1.812,10.542-2.875,16.93
				c-1.068,6.604-2.187,13.312-3.354,20.125c-1.173,6.818-2.396,13.736-3.674,20.764c-0.639,3.409-1.277,6.978-1.917,10.701
				c-0.639,3.729-1.277,7.402-1.916,11.021c-0.854,3.624-1.598,7.347-2.236,11.18c-0.639,3.833-1.277,7.667-1.916,11.5
				c-1.492,7.881-2.93,15.548-4.312,22.999c-1.388,7.457-2.715,14.805-3.993,22.042c-1.278,7.242-2.556,14.27-3.833,21.082
				c-1.278,6.818-2.451,13.417-3.514,19.806c-1.068,6.604-2.027,12.354-2.875,17.25c-0.854,4.901-1.598,8.943-2.236,12.139
				c-0.639,3.408-1.174,6.817-1.598,10.222c0,0.215-0.16,0.374-0.479,0.479c-0.32,0.109-0.694,0.159-1.118,0.159
				c-0.215,0-0.479,0-0.799,0s-0.589,0-0.799,0c-0.429,0.215-0.854,0.319-1.277,0.319c-0.429,0-0.854,0-1.278,0
				c-0.854,0.215-1.866,0.374-3.034,0.479c-1.173,0.109-2.291,0.159-3.354,0.159c-0.639,0-1.228,0-1.757,0c-0.534,0-1.118,0-1.757,0
				c-0.639,0.215-1.277,0.319-1.916,0.319s-1.278,0-1.917,0c-0.854,0.215-1.652,0.375-2.396,0.479
				c-0.749,0.11-1.438,0.16-2.076,0.16c-0.64,0-1.333,0-2.076,0c-0.75,0-1.548,0-2.396,0c-0.854,0.214-1.652,0.319-2.396,0.319
				c-0.748,0-1.438,0-2.076,0c-0.854,0-1.651,0-2.396,0c-0.749,0-1.437,0-2.076,0c-2.346,0.215-4.632,0.374-6.868,0.479
				c-2.236,0.11-4.527,0.16-6.867,0.16c-2.132,0-4.263,0-6.389,0c-2.132,0-4.153,0-6.07,0c-0.854,0-1.756,0-2.715,0
				c-0.958,0-1.757,0-2.396,0c-0.64,0-1.278,0-1.917,0s-1.173,0.104-1.598,0.319c-0.429,0-0.798,0-1.117,0c-0.32,0-0.693,0-1.118,0
				c-0.215,0-0.429,0-0.639,0l-15.333-143.427l-26.833,143.427h-52.068L1167.715,243.098z"/>
			<path fill="#231F20" d="M1382.691,269.611h68.999l-36.735-24.277c0,0.429,0.209,0.694,0.639,0.799
				c0.424,0.109,1.063,0.055,1.917-0.16c1.063-0.209,2.286-0.479,3.673-0.798c1.383-0.319,3.035-0.689,4.951-1.118
				c1.918-0.424,3.834-0.849,5.75-1.278c1.917-0.424,3.938-0.848,6.07-1.277c2.126-0.424,4.312-0.904,6.548-1.438
				c2.236-0.529,4.522-1.008,6.868-1.438c0.209,0,0.424,0,0.639,0l0.319-0.32h0.319c1.063-0.209,2.021-0.424,2.875-0.639
				c0.849-0.209,1.702-0.424,2.556-0.639c1.063,0,2.021-0.105,2.875-0.32c0.849-0.209,1.702-0.424,2.556-0.639
				c1.701-0.424,3.459-0.849,5.271-1.278c1.808-0.424,3.563-0.849,5.271-1.278c0.849-0.209,1.647-0.369,2.396-0.479
				c0.743-0.105,1.438-0.265,2.076-0.479c0.639,0,1.277-0.05,1.916-0.16c0.639-0.105,1.278-0.265,1.917-0.479
				c1.063-0.424,1.967-0.688,2.716-0.798c0.743-0.105,1.327-0.265,1.756-0.479c5.535,2.131,10.807,4.422,15.812,6.868
				c5.002,2.451,9.528,4.846,13.576,7.188c4.258,2.555,8.036,5.111,11.34,7.667c3.299,2.555,6.229,5.221,8.785,7.986
				c2.555,2.77,4.791,5.59,6.708,8.465s3.514,5.805,4.792,8.785c1.277,3.194,2.235,6.389,2.875,9.583
				c0.639,3.194,0.957,6.499,0.957,9.903c0,3.409-0.318,6.868-0.957,10.382c-0.64,3.514-1.493,7.187-2.557,11.021
				c-1.277,3.833-2.77,7.667-4.472,11.5c-1.707,3.833-3.729,7.776-6.069,11.819c-2.346,4.048-4.901,8.201-7.666,12.458
				c-2.771,4.263-5.75,8.625-8.945,13.097c-3.193,4.472-6.603,9.054-10.221,13.735c-3.625,4.688-7.457,9.479-11.5,14.375
				c1.062,0.854,2.181,1.757,3.354,2.715c1.168,0.959,2.286,1.867,3.354,2.716c0.424,0.429,0.903,0.854,1.437,1.277
				c0.529,0.43,1.119,0.749,1.758,0.959c0.424,0.429,0.903,0.853,1.438,1.277c0.529,0.429,1.008,0.854,1.438,1.277
				c1.062,0.854,1.967,1.652,2.715,2.396c0.744,0.748,1.543,1.438,2.396,2.076c0.424,0.429,0.798,0.854,1.117,1.277
				c0.32,0.43,0.689,0.749,1.118,0.959c0.21,0.429,0.529,0.798,0.958,1.117c0.425,0.32,0.744,0.694,0.959,1.118
				c0.424,0.639,0.903,1.278,1.438,1.917c0.529,0.639,0.903,1.277,1.117,1.917c0.425,0.639,0.799,1.277,1.119,1.916
				c0.318,0.639,0.584,1.278,0.798,1.917c0,0.215,0.05,0.479,0.16,0.799c0.104,0.319,0.265,0.693,0.479,1.117
				c0,0.215,0.049,0.479,0.159,0.799c0.104,0.319,0.265,0.694,0.479,1.118c0,0.43,0,0.799,0,1.118s0,0.693,0,1.118
				c0,0.215,0,0.374,0,0.479c0,0.11,0.104,0.27,0.319,0.479c0,0.215,0,0.374,0,0.479c0,0.109,0,0.27,0,0.479
				c0,1.493-0.215,3.145-0.64,4.951c-0.429,1.812-0.958,3.674-1.597,5.591c-0.639,1.916-1.492,3.888-2.556,5.909
				c-1.068,2.026-2.346,4.103-3.833,6.229c-1.493,2.131-3.09,4.422-4.792,6.868c-1.707,2.45-3.729,5.061-6.068,7.826
				c-2.132,2.77-4.582,5.59-7.348,8.465c-2.77,2.875-5.645,5.7-8.625,8.465c-0.854,0-1.707,0-2.555,0c-0.854,0-1.918,0-3.195,0
				s-2.77,0-4.472,0c-1.707,0-3.515,0-5.431,0s-3.833,0-5.75,0c-1.916,0-3.889,0-5.909,0c-2.026,0-4.103,0.104-6.229,0.319
				c-0.215,0-0.43,0-0.639,0c-0.215,0-0.43,0-0.639,0h-0.32c-0.214,0-0.429,0-0.639,0c-0.215,0-0.429,0-0.639,0
				c-2.131,0-4.152,0-6.068,0c-1.918,0-3.834,0-5.75,0c-1.917,0-3.783,0-5.591,0c-1.812,0-3.569,0-5.271,0c-1.707,0-3.305,0-4.791,0
				c-1.493,0-2.771,0-3.834,0c-1.068,0-1.972,0-2.715,0c-0.749,0-1.333,0-1.758,0c2.557-2.765,5.057-5.694,7.508-8.784
				c2.445-3.085,4.736-6.015,6.867-8.785c2.342-2.979,4.577-5.854,6.709-8.624c2.126-2.766,4.152-5.431,6.068-7.986
				c1.917-2.556,3.619-5.056,5.111-7.507c1.487-2.445,2.66-4.736,3.514-6.868c1.063-2.341,1.807-4.576,2.236-6.708
				c0.424-2.126,0.639-4.258,0.639-6.389c0-0.639-0.055-1.277-0.16-1.917c-0.109-0.639-0.159-1.277-0.159-1.916
				c-0.214-0.425-0.429-0.958-0.639-1.598c-0.215-0.639-0.429-1.277-0.64-1.916c-0.639-1.063-1.332-2.182-2.076-3.354
				c-0.748-1.168-1.651-2.286-2.715-3.354c-0.639-0.424-1.277-0.903-1.916-1.437c-0.639-0.529-1.278-1.118-1.917-1.758
				c-0.64-0.424-1.388-0.903-2.236-1.438c-0.854-0.528-1.707-1.008-2.556-1.437c-0.854-0.425-1.757-0.849-2.715-1.278
				c-0.959-0.424-1.972-0.958-3.035-1.597c-1.068-0.425-2.131-0.849-3.193-1.278c-1.068-0.424-2.236-0.849-3.514-1.277
				l-17.57,87.206h-54.304L1382.691,269.611z M1452.17,277.757c-0.11,1.812-0.375,3.674-0.799,5.59
				c-0.215,2.131-0.589,4.367-1.118,6.708c-0.534,2.346-1.013,4.901-1.438,7.667c-0.214,1.493-0.429,2.93-0.639,4.312
				c-0.215,1.388-0.429,2.825-0.64,4.312c-0.214,1.492-0.429,2.93-0.639,4.312c-0.215,1.387-0.429,2.715-0.639,3.993
				c-0.215,1.493-0.479,2.985-0.799,4.472c-0.318,1.493-0.588,2.985-0.799,4.472c-0.214,1.492-0.429,2.985-0.639,4.472
				c-0.214,1.492-0.429,2.985-0.639,4.472c-0.429,2.77-0.908,5.59-1.438,8.465c-0.533,2.875-1.013,5.7-1.438,8.465
				c-0.429,2.77-0.854,5.431-1.277,7.986c-0.43,2.556-0.854,5.112-1.277,7.667c-0.43,2.556-0.799,5.006-1.119,7.348
				c-0.318,2.346-0.693,4.472-1.117,6.389c-0.215,1.916-0.43,3.729-0.639,5.43c-0.215,1.707-0.43,3.305-0.639,4.792
				c0.424-0.425,0.902-0.903,1.438-1.438c0.528-0.529,1.008-1.008,1.438-1.438c0.424-0.424,0.902-0.903,1.438-1.438
				c0.528-0.529,1.008-1.118,1.438-1.757c0.424-0.424,0.902-0.903,1.437-1.438c0.529-0.529,1.118-1.118,1.757-1.757
				c0.425-0.639,0.904-1.278,1.438-1.917c0.529-0.639,1.118-1.277,1.758-1.916c1.062-1.487,2.181-2.98,3.354-4.473
				c1.168-1.487,2.396-2.979,3.674-4.472c0.639-0.849,1.277-1.647,1.916-2.396c0.639-0.744,1.277-1.543,1.917-2.396
				c0.425-0.848,0.958-1.702,1.597-2.555c0.639-0.849,1.278-1.702,1.917-2.556c1.063-1.702,2.181-3.404,3.354-5.111
				c1.168-1.702,2.285-3.404,3.354-5.111c1.063-1.702,2.021-3.459,2.875-5.271c0.849-1.807,1.702-3.564,2.556-5.271
				c0.425-1.063,0.903-2.181,1.438-3.354c0.529-1.168,1.009-2.396,1.438-3.673c0.425-1.278,0.903-2.556,1.438-3.833
				c0.528-1.277,0.903-2.555,1.118-3.833c0.209-0.639,0.369-1.223,0.479-1.757c0.105-0.529,0.266-1.118,0.479-1.757
				c0-0.424,0.05-0.958,0.159-1.598c0.105-0.639,0.266-1.277,0.48-1.917c0-0.639,0.049-1.278,0.159-1.917
				c0.104-0.639,0.159-1.278,0.159-1.917c0.21-0.424,0.32-0.958,0.32-1.597c0-0.639,0-1.278,0-1.917c0-1.702-0.16-3.458-0.479-5.271
				c-0.319-1.807-0.694-3.459-1.118-4.951c-0.639-1.702-1.332-3.354-2.076-4.951c-0.749-1.598-1.652-3.14-2.715-4.632
				c-1.068-1.488-2.346-2.875-3.834-4.153c-1.492-1.278-3.09-2.556-4.791-3.833c-1.917-1.063-3.943-2.126-6.07-3.194
				c-2.131-1.063-4.472-2.021-7.027-2.875v-0.958C1452.434,274.193,1452.274,275.95,1452.17,277.757z"/>
			<path fill="#231F20" d="M1579.942,479.322c-3.089-2.021-5.909-4.203-8.465-6.549c-2.556-2.341-4.847-4.951-6.868-7.826
				c-2.026-2.875-3.783-5.909-5.271-9.104c-1.492-2.98-2.875-6.334-4.153-10.062c-1.277-3.724-2.235-7.717-2.875-11.979
				c-0.854-4.258-1.437-8.73-1.756-13.417c-0.32-4.682-0.479-9.688-0.479-15.014c0-4.682,0.104-9.583,0.319-14.694
				c0.21-5.11,0.639-10.432,1.277-15.972c0.425-5.535,1.063-11.285,1.917-17.25c0.849-5.959,1.808-12.243,2.875-18.847
				c1.063-6.389,2.236-13.147,3.514-20.284c1.278-7.133,2.661-14.535,4.153-22.201c1.486-7.667,3.084-15.598,4.791-23.798
				c1.702-8.196,3.514-16.771,5.431-25.715c1.063,0,2.021,0,2.875,0c1.063,0,2.286,0,3.673,0c1.383,0,3.141,0,5.271,0
				c1.916,0,3.883,0,5.909,0c2.021,0,4.099,0,6.229,0c2.341,0,4.632,0,6.867,0c2.236,0,4.522,0,6.868,0c1.702,0,3.459,0,5.271,0
				c1.807,0,3.564,0,5.271,0c1.701,0,3.404,0,5.111,0c1.701,0,3.403,0,5.11,0c1.702,0,3.244,0,4.632,0c1.383,0,2.715,0,3.993,0
				c1.063,0,2.076,0,3.034,0c0.959,0,1.861,0,2.715,0c-2.131,9.159-4.152,17.943-6.068,26.354
				c-1.917,8.415-3.729,16.666-5.431,24.756c-1.707,7.881-3.354,15.603-4.951,23.159c-1.597,7.562-3.145,14.749-4.632,21.562
				c-1.492,6.818-2.825,13.417-3.993,19.805c-1.173,6.389-2.076,12.458-2.716,18.208c-0.854,5.965-1.438,11.555-1.756,16.771
				c-0.32,5.221-0.375,10.277-0.16,15.174c0,3.623,0.105,7.137,0.319,10.541c0.21,3.409,0.64,6.604,1.278,9.583
				c0.639,2.984,1.383,5.859,2.236,8.625c0.848,2.771,1.916,5.325,3.193,7.666c1.063,2.556,2.396,4.901,3.993,7.028
				c1.597,2.131,3.354,4.152,5.271,6.069c1.917,1.916,4.152,3.623,6.709,5.11c2.555,1.493,5.215,2.771,7.985,3.834l32.583-241.815
				h71.554l-43.763,255.87c-1.492,0-2.984,0-4.473,0c-1.492,0-3.249,0-5.271,0c-2.026,0-4.422,0-7.187,0c-2.771,0-5.646,0-8.625,0
				c-2.985,0-6.07,0-9.264,0c-3.195,0-6.389,0-9.584,0c-3.193,0-6.604,0-10.222,0c-0.215,0-0.429-0.109-0.639-0.319
				c-0.215,0-0.374,0-0.479,0c-0.109,0-0.27,0-0.479,0c-0.215,0-0.43,0-0.639,0c-0.215,0-0.43,0-0.64,0c-0.214,0-0.429,0-0.639,0
				c-0.215,0-0.429,0-0.64,0c-0.214,0-0.429,0-0.639,0c-0.215,0-0.429,0-0.639,0c-3.408,0-6.708,0-9.902,0s-6.284,0-9.264,0
				c-3.194,0-6.229,0-9.104,0s-5.805,0-8.785,0c-2.77,0-5.381,0-7.826,0c-2.451,0-4.527,0-6.229,0c-1.917,0-3.514,0-4.792,0
				s-2.236,0-2.875,0C1586.381,483.105,1583.027,481.349,1579.942,479.322z"/>
			<path fill="#231F20" d="M1774.957,483.315c-0.215-0.425-0.59-1.063-1.119-1.917c-0.533-0.849-1.117-1.807-1.756-2.875
				c-0.215-0.424-0.535-0.958-0.959-1.597c-0.43-0.64-0.748-1.278-0.958-1.917c-0.43-0.639-0.799-1.277-1.118-1.917
				c-0.319-0.639-0.693-1.382-1.118-2.235c-0.639-1.487-1.333-3.085-2.076-4.792c-0.749-1.702-1.548-3.618-2.396-5.75
				c-0.854-1.916-1.652-3.938-2.396-6.069c-0.748-2.126-1.438-4.362-2.076-6.708c-0.854-2.341-1.598-4.842-2.236-7.507
				c-0.639-2.66-1.277-5.375-1.916-8.146c-0.639-2.766-1.174-5.59-1.598-8.465c-0.43-2.875-0.854-5.91-1.277-9.104
				c-0.215-3.194-0.43-6.389-0.639-9.583c-0.215-3.194-0.32-6.493-0.32-9.902c0-5.75,0.369-11.71,1.119-17.889
				c0.743-6.174,1.861-12.563,3.354-19.167c1.702-6.389,3.674-12.987,5.91-19.805c2.235-6.813,4.841-13.84,7.826-21.083
				c2.979-7.028,6.707-14.16,11.18-21.402c4.473-7.237,9.688-14.479,15.652-21.722c5.959-7.237,12.618-14.535,19.965-21.882
				c7.348-7.347,15.493-14.744,24.438-22.201c1.277,0,2.555,0,3.833,0s2.925,0,4.951,0c2.021,0,4.417,0,7.188,0
				c2.556,0,5.271,0,8.146,0s5.695,0,8.465,0c2.98,0,6.015,0,9.104,0c3.085,0,6.229,0,9.423,0c2.342,0,4.736,0,7.188,0
				c2.445,0,4.736,0,6.867,0c2.342,0,4.633,0,6.869,0s4.416,0,6.549,0c2.34,0,4.471,0,6.389,0c1.916,0,3.617,0,5.111,0
				c1.701,0,3.193,0,4.471,0s2.445,0,3.514,0c-11.713,9.374-22.471,18.527-32.262,27.472c-9.799,8.944-18.639,17.569-26.514,25.875
				c-7.881,8.52-14.75,16.666-20.604,24.437c-5.86,7.776-10.701,15.388-14.535,22.839c-4.048,7.243-7.562,14.325-10.541,21.243
				c-2.985,6.923-5.431,13.472-7.348,19.646c-1.916,6.389-3.354,12.408-4.312,18.048c-0.958,5.646-1.438,11.021-1.438,16.132
				c0,2.771,0.105,5.485,0.32,8.146c0.209,2.666,0.424,5.166,0.639,7.507c0.424,2.556,0.848,4.951,1.277,7.188
				c0.424,2.236,1.062,4.423,1.916,6.549c0.64,2.131,1.328,4.152,2.077,6.069c0.743,1.916,1.542,3.729,2.396,5.431
				c0.849,1.707,1.702,3.354,2.556,4.951c0.849,1.597,1.702,3.034,2.556,4.312c0.848,1.492,1.646,2.875,2.396,4.152
				c0.743,1.277,1.438,2.45,2.077,3.514c0.639,1.068,1.327,2.076,2.076,3.035c0.743,0.958,1.542,1.757,2.395,2.396
				c0.64,0.854,1.278,1.492,1.918,1.917c0.639,0.429,1.062,0.853,1.277,1.277c0.424,0.215,0.848,0.534,1.277,0.958l17.569-125.219
				h67.401l-23,136.719h-134.164C1775.7,484.063,1775.381,483.744,1774.957,483.315z"/>
			<path fill="#231F20" d="M1961.506,483.315c-0.215-0.425-0.589-1.063-1.118-1.917c-0.534-0.849-1.118-1.807-1.757-2.875
				c-0.215-0.424-0.534-0.958-0.958-1.597c-0.43-0.64-0.749-1.278-0.959-1.917c-0.429-0.639-0.799-1.277-1.118-1.917
				c-0.319-0.639-0.693-1.382-1.117-2.235c-0.64-1.487-1.333-3.085-2.077-4.792c-0.748-1.702-1.547-3.618-2.396-5.75
				c-0.854-1.916-1.652-3.938-2.396-6.069c-0.749-2.126-1.438-4.362-2.076-6.708c-0.854-2.341-1.598-4.842-2.236-7.507
				c-0.639-2.66-1.278-5.375-1.917-8.146c-0.639-2.766-1.173-5.59-1.597-8.465c-0.43-2.875-0.854-5.91-1.278-9.104
				c-0.214-3.194-0.429-6.389-0.639-9.583c-0.215-3.194-0.319-6.493-0.319-9.902c0-5.75,0.369-11.71,1.118-17.889
				c0.743-6.174,1.861-12.563,3.354-19.167c1.702-6.389,3.674-12.987,5.91-19.805c2.236-6.813,4.842-13.84,7.826-21.083
				c2.979-7.028,6.708-14.16,11.181-21.402c4.472-7.237,9.688-14.479,15.652-21.722c5.959-7.237,12.617-14.535,19.965-21.882
				c7.347-7.347,15.492-14.744,24.437-22.201c1.278,0,2.556,0,3.833,0c1.278,0,2.926,0,4.952,0c2.021,0,4.417,0,7.187,0
				c2.556,0,5.271,0,8.146,0s5.694,0,8.465,0c2.979,0,6.015,0,9.104,0c3.085,0,6.229,0,9.424,0c2.341,0,4.736,0,7.188,0
				c2.445,0,4.736,0,6.867,0c2.342,0,4.632,0,6.868,0s4.417,0,6.549,0c2.341,0,4.472,0,6.389,0s3.618,0,5.111,0
				c1.701,0,3.194,0,4.472,0s2.445,0,3.514,0c-11.714,9.374-22.471,18.527-32.263,27.472c-9.798,8.944-18.638,17.569-26.514,25.875
				c-7.881,8.52-14.749,16.666-20.604,24.437c-5.86,7.776-10.701,15.388-14.534,22.839c-4.048,7.243-7.562,14.325-10.542,21.243
				c-2.984,6.923-5.431,13.472-7.347,19.646c-1.917,6.389-3.354,12.408-4.312,18.048c-0.959,5.646-1.438,11.021-1.438,16.132
				c0,2.771,0.104,5.485,0.319,8.146c0.21,2.666,0.424,5.166,0.639,7.507c0.425,2.556,0.849,4.951,1.278,7.188
				c0.424,2.236,1.062,4.423,1.916,6.549c0.639,2.131,1.328,4.152,2.076,6.069c0.744,1.916,1.543,3.729,2.396,5.431
				c0.849,1.707,1.702,3.354,2.555,4.951c0.849,1.597,1.702,3.034,2.556,4.312c0.849,1.492,1.647,2.875,2.396,4.152
				c0.743,1.277,1.438,2.45,2.076,3.514c0.639,1.068,1.327,2.076,2.076,3.035c0.743,0.958,1.542,1.757,2.396,2.396
				c0.639,0.854,1.278,1.492,1.917,1.917c0.639,0.429,1.063,0.853,1.277,1.277c0.425,0.215,0.849,0.534,1.278,0.958l17.568-125.219
				h67.401l-22.999,136.719h-134.164C1962.249,484.063,1961.93,483.744,1961.506,483.315z"/>
			<path fill="#231F20" d="M2135.437,419.906c-0.109-0.104-0.27-0.369-0.479-0.798c-0.215-0.425-0.375-0.959-0.479-1.598
				c-0.11-0.639-0.374-1.383-0.799-2.236c-0.215-0.848-0.479-1.807-0.799-2.874c-0.319-1.063-0.693-2.236-1.117-3.515
				c-0.215-1.277-0.479-2.715-0.799-4.312c-0.319-1.597-0.694-3.244-1.118-4.951c-0.43-1.701-0.799-3.618-1.118-5.75
				c-0.319-2.126-0.693-4.257-1.118-6.389c-0.215-2.341-0.479-4.682-0.799-7.027c-0.319-2.341-0.693-4.896-1.117-7.666
				c-0.215-2.766-0.479-5.641-0.799-8.625c-0.319-2.979-0.479-6.069-0.479-9.264c-0.215-3.195-0.319-6.549-0.319-10.062
				s0-7.188,0-11.021c0-2.98,0-5.959,0-8.944c0-2.98,0.104-6.069,0.319-9.264c0-3.194,0.16-6.548,0.479-10.062
				c0.319-3.514,0.584-7.077,0.799-10.701c0.209-3.619,0.479-7.237,0.798-10.861c0.319-3.619,0.689-7.347,1.118-11.18
				c0.425-3.833,0.903-7.826,1.438-11.979c0.529-4.153,1.118-8.355,1.757-12.618c0.639,0,1.383,0,2.236,0c0.639,0,1.487,0,2.556,0
				c1.062,0,2.341,0,3.833,0c1.487,0,3.034,0,4.632,0s3.244,0,4.951,0c1.702,0,3.459,0,5.271,0c1.808,0,3.778,0,5.91,0
				c0.209,0.214,0.479,0.319,0.799,0.319c0.319,0,0.584,0,0.798,0c0.425,0,0.799,0,1.118,0s0.584,0,0.799,0c0.21,0,0.369,0,0.479,0
				c0.104,0,0.264,0,0.479,0c0.21,0,0.425,0,0.639,0c0.21,0,0.425,0,0.64,0c0.424,0,0.743,0,0.958,0c0.21,0,0.369,0,0.479,0
				c0.104,0,0.265,0,0.479,0c1.702,0,3.354,0,4.951,0c1.598,0,3.14,0,4.632,0c0.849,0,1.647,0,2.396,0c0.743,0,1.542,0,2.396,0
				c0.639,0,1.328,0,2.076,0c0.744,0,1.542,0,2.396,0c1.488,0,2.875,0,4.153,0c1.277,0,2.556,0,3.833,0s2.396,0,3.354,0
				c0.958,0,1.861,0,2.715,0c-1.492,7.028-2.771,13.791-3.833,20.284c-1.068,6.499-2.026,12.618-2.875,18.368
				c-0.854,5.965-1.652,11.555-2.396,16.771c-0.749,5.221-1.333,10.277-1.758,15.173c-0.429,4.687-0.798,9.214-1.117,13.576
				c-0.319,4.367-0.589,8.465-0.799,12.298c-0.215,3.833-0.374,7.457-0.479,10.861c-0.109,3.409-0.159,6.604-0.159,9.583
				c0,2.132,0,4.153,0,6.069c0,1.917,0.104,3.729,0.319,5.431c0,1.707,0.05,3.304,0.159,4.792c0.105,1.492,0.265,2.874,0.479,4.152
				c0.21,1.492,0.369,2.825,0.479,3.993c0.104,1.173,0.265,2.291,0.479,3.354c0.21,0.854,0.369,1.757,0.479,2.716
				c0.104,0.958,0.265,1.866,0.479,2.715c0.209,0.854,0.369,1.598,0.479,2.236c0.105,0.639,0.265,1.277,0.479,1.916
				c0.21,0.64,0.369,1.118,0.479,1.438c0.104,0.319,0.264,0.694,0.479,1.118c0.21,0.215,0.369,0.479,0.479,0.799
				c0.104,0.319,0.159,0.589,0.159,0.799c0,0.215,0.105,0.319,0.32,0.319l45.999-179.205h78.262l-77.942,256.189h-61.972
				l13.098-65.165l-54.943,0.319C2135.597,419.856,2135.542,420.017,2135.437,419.906z"/>
		</g>
	</g>
</g>
</svg>
