<?xml version="1.0" encoding="utf-8"?>
<!-- Generator: Adobe Illustrator 15.1.0, SVG Export Plug-In . SVG Version: 6.00 Build 0)  -->
<!DOCTYPE svg PUBLIC "-//W3C//DTD SVG 1.1//EN" "http://www.w3.org/Graphics/SVG/1.1/DTD/svg11.dtd">
<svg version="1.1" id="sblogo" xmlns="http://www.w3.org/2000/svg" xmlns:xlink="http://www.w3.org/1999/xlink" x="0px" y="0px"
	 width="720px" height="720px" viewBox="0 0 720 720" enable-background="new 0 0 720 720" xml:space="preserve">
<g>
	<g>
		<g id="bigrays">
		<animateTransform attributeName="transform" type="rotate" from="0 360 360" to="360 360 360" dur="5s" repeatCount="indefinite" />
			<path fill="#FFF200" stroke="#231F20" stroke-width="2" stroke-miterlimit="10" d="M385.561,143.637
				c19.32-9.937,25.496-31.404,10.953-48.178c-10.589-13.698-31.172-12.841-32.288-32.53c0.159-17.387,20.647-34.738,28.599-48.915
				c-1.04,10.354-0.305,27.998,3.384,38.744c8.526,20.854,25.019,20.756,40.335,34.847c25.779,24.849,6.826,43.609-13.538,63.899
				L385.561,143.637z"/>
			<path fill="#FFF200" stroke="#231F20" stroke-width="2" stroke-miterlimit="10" d="M488.279,182.746
				c21.726,0.289,37.251-15.773,32.276-37.41c-2.924-17.064-21.505-25.963-13.255-43.874c8.298-15.281,34.53-20.994,48.205-29.784
				c-5.777,8.655-13.407,24.582-15.189,35.802c-2.249,22.418,12.358,30.069,19.276,49.698c11.11,34.039-14.43,41.715-41.934,50.081
				L488.279,182.746z"/>
			<path fill="#FFF200" stroke="#231F20" stroke-width="2" stroke-miterlimit="10" d="M560.068,268.443
				c18.688,11.084,40.153,4.903,46.631-16.333c5.975-16.25-5.695-33.227,10.388-44.639c14.814-9.107,40.4-0.979,56.636-1.779
				c-9.322,4.621-23.88,14.623-31.017,23.458c-13.129,18.312-4.285,32.226-8.072,52.69c-7.345,35.044-33.309,28.964-61.322,22.501
				L560.068,268.443z"/>
			<path fill="#FFF200" stroke="#231F20" stroke-width="2" stroke-miterlimit="10" d="M580.305,379.282
				c10.836,18.834,32.568,23.994,48.641,8.677c13.188-11.218,11.361-31.739,30.98-33.778c17.373-0.659,35.667,18.99,50.201,26.267
				c-10.39-0.555-27.981,1.01-38.543,5.199c-20.427,9.502-19.556,25.965-32.909,41.929c-23.609,26.92-43.24,8.87-64.466-10.521
				L580.305,379.282z"/>
			<path fill="#FFF200" stroke="#231F20" stroke-width="2" stroke-miterlimit="10" d="M533.254,497.179
				c-0.984,21.705,14.572,37.736,36.358,33.456c17.148-2.375,26.637-20.662,44.275-11.838c15.008,8.781,19.877,35.182,28.225,49.132
				c-8.465-6.053-24.14-14.187-35.297-16.331c-22.338-2.964-30.451,11.391-50.289,17.678c-34.378,10.015-41.233-15.761-48.71-43.518
				L533.254,497.179z"/>
			<path fill="#FFF200" stroke="#231F20" stroke-width="2" stroke-miterlimit="10" d="M422.249,572.928
				c-13.732,16.84-10.803,38.983,9.239,48.538c15.181,8.32,33.701-0.702,42.602,16.899c6.812,15.997-5.023,40.094-6.64,56.268
				c-3.188-9.903-10.917-25.781-18.599-34.155c-16.161-15.696-31.235-9.012-50.91-15.796
				c-33.568-12.459-23.703-37.235-13.154-63.979L422.249,572.928z"/>
			<path fill="#FFF200" stroke="#231F20" stroke-width="2" stroke-miterlimit="10" d="M301.146,573.402
				c-20.523,7.14-29.642,27.528-17.585,46.175c8.564,15.045,29.065,17.072,27.416,36.728c-2.589,17.191-25.3,31.507-35.159,44.432
				c2.479-10.104,4.223-27.683,2.073-38.837c-5.531-21.838-21.871-24.051-35.067-40.143c-22.052-28.212-0.659-44.135,22.347-61.378
				L301.146,573.402z"/>
			<path fill="#FFF200" stroke="#231F20" stroke-width="2" stroke-miterlimit="10" d="M189.031,499.101
				c-20.908-5.921-40.069,5.555-40.885,27.745c-1.612,17.234,14.02,30.649,1.399,45.811c-11.982,12.599-38.796,11.302-54.284,16.239
				c7.823-6.857,19.332-20.26,23.969-30.631c7.992-21.064-4.124-32.244-5.708-52.997c-1.888-35.757,24.769-36.537,53.503-37.467
				L189.031,499.101z"/>
			<path fill="#FFF200" stroke="#231F20" stroke-width="2" stroke-miterlimit="10" d="M140.533,382.166
				c-13.304-17.181-35.535-19.33-49.372-1.964c-11.533,12.909-6.927,32.986-26.085,37.685
				c-17.122,3.021-37.923-13.953-53.315-19.178c10.367-0.872,27.585-4.815,37.474-10.405c18.942-12.199,15.836-28.392,26.888-46.024
				c19.721-29.888,41.628-14.681,65.298,1.639L140.533,382.166z"/>
			<path fill="#FFF200" stroke="#231F20" stroke-width="2" stroke-miterlimit="10" d="M167.163,255.996
				c-2.308-21.606-20.105-35.104-40.997-27.581c-16.592,4.936-23.208,24.443-41.98,18.387c-16.16-6.414-24.959-31.777-35.321-44.302
				c9.281,4.701,26.01,10.377,37.361,10.808c22.527-0.444,28.378-15.857,47.042-25.068c32.469-15.092,43.14,9.349,54.724,35.662
				L167.163,255.996z"/>
			<path fill="#FFF200" stroke="#231F20" stroke-width="2" stroke-miterlimit="10" d="M258.151,167.69
				c10.612-18.963,3.897-40.266-17.497-46.209c-16.391-5.57-33.068,6.522-44.882-9.275c-9.473-14.578-1.986-40.359-3.198-56.569
				c4.854,9.201,15.221,23.506,24.232,30.422c18.635,12.666,32.322,3.474,52.875,6.752c35.217,6.464,29.786,32.575,24.021,60.739
				L258.151,167.69z"/>
		</g>
		<g id="smallrays">
		<animateTransform attributeName="transform" type="rotate" from="360 360 360" to="0 360 360" dur="5s" repeatCount="indefinite" />
			<path fill-rule="evenodd" clip-rule="evenodd" fill="#FFF200" stroke="#231F20" stroke-width="2" stroke-miterlimit="10" d="
				M466.237,169.69c-9.68-5.883-18.058-16.745-12.542-28.24c6.83-5.748,13.969-8.534,19.119-16.161
				c6.23-9.234,4.243-18.787,5.01-27.584c0.303,0.245,0.606,0.491,0.908,0.737c5.058,4.278,10.604,18.587,12.283,25.767
				c0.457,1.955,1.291,3.062,1.256,4.032c-0.528,14.876-22.479,18.16-25.511,30.569C465.786,162.783,468.221,166.853,466.237,169.69
				"/>
			<path fill-rule="evenodd" clip-rule="evenodd" fill="#FFF200" stroke="#231F20" stroke-width="2" stroke-miterlimit="10" d="
				M548.654,247.617c-6.68-9.147-10.251-22.393-0.748-30.892c8.514-2.687,16.174-2.521,23.857-7.587
				c9.297-6.136,11.126-15.721,15.212-23.549c0.185,0.342,0.37,0.686,0.555,1.029c3.027,5.891,2.66,21.234,1.454,28.507
				c-0.326,1.98,0.02,3.322-0.384,4.205c-6.198,13.536-27.729,8.145-35.291,18.441C550.884,241.066,551.574,245.759,548.654,247.617
				"/>
			<path fill-rule="evenodd" clip-rule="evenodd" fill="#FFF200" stroke="#231F20" stroke-width="2" stroke-miterlimit="10" d="
				M580.742,357.789c-0.882-11.293,3.04-24.44,15.587-26.681c8.658,2.184,15.088,6.349,24.288,6.073
				c11.134-0.339,17.724-7.534,25.312-12.052c-0.021,0.389-0.044,0.779-0.065,1.168c-0.519,6.604-8.889,19.465-13.733,25.023
				c-1.318,1.513-1.729,2.836-2.539,3.376c-12.381,8.263-27.87-7.632-39.715-2.841C586.084,353.385,584.203,357.739,580.742,357.789
				"/>
			<path fill-rule="evenodd" clip-rule="evenodd" fill="#FFF200" stroke="#231F20" stroke-width="2" stroke-miterlimit="10" d="
				M555.494,464.243c6.412-9.333,17.73-17.093,28.895-10.946c5.358,7.142,7.74,14.424,15.068,19.992
				c8.871,6.737,18.52,5.288,27.26,6.545c-0.26,0.289-0.522,0.579-0.786,0.868c-4.555,4.807-19.148,9.549-26.413,10.821
				c-1.976,0.347-3.128,1.115-4.096,1.029c-14.826-1.36-16.877-23.458-29.096-27.183
				C562.416,464.179,558.215,466.382,555.494,464.243"/>
			<path fill-rule="evenodd" clip-rule="evenodd" fill="#FFF200" stroke="#231F20" stroke-width="2" stroke-miterlimit="10" d="
				M462.586,557.492c10.457-4.35,24.171-4.713,30.202,6.515c0.619,8.91-1.341,16.315,1.783,24.972
				c3.786,10.478,12.672,14.504,19.326,20.307c-0.376,0.104-0.754,0.201-1.133,0.305c-6.435,1.559-21.262-2.395-28.052-5.271
				c-1.849-0.783-3.231-0.766-4-1.362c-11.703-9.198-1.415-28.864-9.647-38.631C468.432,561.2,463.706,560.764,462.586,557.492"/>
			<path fill-rule="evenodd" clip-rule="evenodd" fill="#FFF200" stroke="#231F20" stroke-width="2" stroke-miterlimit="10" d="
				M328.038,580.018c11.295,0.832,23.7,6.691,24.021,19.431c-3.465,8.234-8.555,13.958-9.667,23.096
				c-1.346,11.057,4.769,18.659,8.093,26.839c-0.385-0.075-0.765-0.159-1.146-0.238c-6.449-1.509-17.901-11.728-22.664-17.354
				c-1.295-1.532-2.54-2.141-2.955-3.019c-6.3-13.486,11.751-26.402,8.805-38.831C331.583,585.964,327.563,583.441,328.038,580.018"
				/>
			<path fill-rule="evenodd" clip-rule="evenodd" fill="#FFF200" stroke="#231F20" stroke-width="2" stroke-miterlimit="10" d="
				M219.967,531.319c7.443,8.538,12.136,21.431,3.402,30.709c-8.256,3.413-15.9,3.901-23.119,9.613
				c-8.735,6.909-9.738,16.614-13.131,24.768c-0.219-0.324-0.432-0.653-0.646-0.979c-3.522-5.607-4.473-20.924-3.897-28.275
				c0.157-2.002-0.299-3.308,0.024-4.226c5.011-14.015,26.926-10.493,33.576-21.398C218.305,538.04,217.22,533.421,219.967,531.319"
				/>
			<path fill-rule="evenodd" clip-rule="evenodd" fill="#FFF200" stroke="#231F20" stroke-width="2" stroke-miterlimit="10" d="
				M146.934,416.051c2.947,10.937,1.515,24.583-10.404,29.093c-8.917-0.551-16-3.465-24.992-1.495
				c-10.882,2.382-16.037,10.668-22.66,16.504c-0.054-0.385-0.103-0.776-0.152-1.16c-0.707-6.586,5.152-20.771,8.892-27.124
				c1.018-1.73,1.181-3.105,1.874-3.787c10.65-10.398,28.803,2.372,39.561-4.517C142.495,421.362,143.546,416.734,146.934,416.051"
				/>
			<path fill-rule="evenodd" clip-rule="evenodd" fill="#FFF200" stroke="#231F20" stroke-width="2" stroke-miterlimit="10" d="
				M153.444,283.674c-3.745,10.689-12.635,21.14-25.021,18.129c-7.045-5.492-11.246-11.897-19.776-15.352
				c-10.324-4.183-19.259-0.259-28.023,0.817c0.175-0.349,0.356-0.697,0.533-1.043c3.137-5.833,15.983-14.226,22.66-17.358
				c1.816-0.852,2.727-1.895,3.684-2.065c14.661-2.567,22.427,18.228,35.194,18.62C146.782,285.548,150.261,282.324,153.444,283.674
				"/>
			<path fill-rule="evenodd" clip-rule="evenodd" fill="#FFF200" stroke="#231F20" stroke-width="2" stroke-miterlimit="10" d="
				M228.428,185.884c-9.039,6.827-22.227,10.607-30.873,1.243c-2.828-8.473-2.777-16.135-7.968-23.735
				c-6.281-9.199-15.895-10.877-23.789-14.834c0.339-0.194,0.682-0.383,1.021-0.575c5.841-3.121,21.187-2.996,28.479-1.907
				c1.985,0.296,3.322-0.068,4.212,0.319c13.632,5.981,8.585,27.597,18.997,34.992C221.841,183.756,226.526,182.998,228.428,185.884
				"/>
			<path fill-rule="evenodd" clip-rule="evenodd" fill="#FFF200" stroke="#231F20" stroke-width="2" stroke-miterlimit="10" d="
				M351.069,141.027c-11.242,1.376-24.548-1.966-27.333-14.403c1.804-8.747,5.687-15.353,5.006-24.532
				c-0.822-11.109-8.296-17.382-13.143-24.762c0.39,0.001,0.782,0.009,1.172,0.014c6.619,0.229,19.833,8.032,25.597,12.63
				c1.569,1.251,2.907,1.606,3.482,2.388c8.797,12.011-6.409,28.182-1.108,39.8C346.438,135.884,350.873,137.575,351.069,141.027"/>
		</g>
		<g classname="buggy" id="buggy">
		
			<path fill-rule="evenodd" clip-rule="evenodd" fill="#FFF200" stroke="#231F20" stroke-width="2" stroke-miterlimit="10" d="
				M532.42,328.037c-6.054-2.535-14.072-5.386-21.28-5.565c-5.59-0.152-11.028,1.677-15.938,2.912
				c-4.984,1.285-9.787,2.677-14.343,4.527c2.761,3.797,6.807,7.188,10.626,10.625c3.842,3.463,7.847,6.879,11.435,10.372
				c-0.431,1.338-0.668,2.882-1.059,4.242c1.114,0.312,1.939,0.869,2.368,1.88c-1.235,2.479-2.476,4.958-3.714,7.435
				c-0.709-0.526-1.423-1.061-1.842-1.869c-0.715,0.91-1.567,3.039-2.659,2.649c1.285-4.448,2.902-8.595,3.717-13.552
				c-6.12-6.603-13.664-12.573-20.742-17.786c-1.159-0.888-2.431-1.14-3.725-1.87c-4.75-2.734-9.182-6.759-13.806-10.095
				c-14.058-10.173-27.722-21.098-41.742-30.84c-3.815-7.306-7.204-15.497-11.409-23.373c-4.043-7.617-7.589-16.467-13.02-22.054
				c-5.212-5.369-12.962-8.376-21.538-10.373c-3.234-2.133-6.793-4.122-10.9-6.379c-2.784-1.54-8.695-5.436-11.682-5.84
				c-4.277-0.603-9.923,0.306-14.877,0.529c-9.055,0.411-19.533,1.264-27.371-0.279c-1.518-0.303-2.758-1.41-4.005-1.843
				c-3.963-1.418-8.094-1.087-12.75-1.616h-2.648c-20.008,0.633-31.442,6.57-36.963,20.458c-0.776,2.023-0.905,4.5-2.12,6.656
				c-1.193,2.097-4.784,3.34-4.253,6.648c-11.627,1.747-22.111,6.639-23.396,18.067c-0.389,3.431,0.2,7.004,0.556,10.366
				c0.259,2.561,1.651,7.511,1.319,9.563c-0.301,1.93-4.483,3.845-4.252,6.125c0.246,2.58,3.923,2.126,6.373,3.192
				c2.08,0.884,2.78,2.374,3.995,2.909c2.248,4.752-0.023,6.824-2.399,10.117c-1.348,1.843-2.686,3.587-3.717,5.035
				c-2.428,3.459-5.875,7.61-6.917,10.898c-0.548,1.774,0.285,3.238-1.335,5.059c-3.262-5.693-4.604-10.345-7.694-15.957
				c-2.352-4.261-6.807-11.845-10.899-12.748c-4.93-1.117-11.488,0.22-15.678,0.526c-4.81,0.352-10.626,0.173-14.624,1.847
				c-6.156,2.602-8.854,13.553-9.82,20.741v5.058c0.563,21.886,4,46.141,14.602,59.248c1.134,1.414,2.581,3.162,3.999,4.264
				c1.766,1.374,5.409,3.904,7.432,4.264c2.255,0.345,5.417-0.761,8.246-1.343c8.655-1.776,15.555-3.871,22.06-6.909
				c6.025-8.727,7.44-24.41,5.842-39.075c1.372-0.033,2.1,0.547,3.469,0.547v-1.343l0.785-1.061
				c-0.807-0.528-1.746-0.904-2.382-1.597c-0.103-1.058,0.608-1.328,0.534-2.392c6.5-1.704,13.179,0.652,19.66,1.334
				c0.171,2.022,0.854,3.567,1.054,5.595c-2.555-0.029-4.452-0.716-6.91-0.821v1.322l-0.804,1.062
				c3.46,1.443,8.905,0.856,11.965,2.678c0.785,1.829-1.52,2.453-2.654,3.193c-3.29,2.052-9.609,4.977-11.438,7.688
				c-5.509,8.245,7.976,8.956,14.372,10.376c9.606,2.12,18.114,3.391,25.5,6.116c-1.951,2.961-1.414,7.317-2.382,11.155
				c-0.703,2.833-3.919,5.567-1.339,8.501c-0.987,2.456-1.419,5.515-2.118,8.246c-0.187,1.498,1.74,0.911,1.867,2.129
				c-0.258,2.525-1.342,4.747-1.062,7.155c0.176,1.773,1.823,2.958,2.38,5.062c0.502,1.915-0.154,4.367,0.272,6.373
				c0.814,3.921,5.893,6.07,3.445,10.901c0.733,2.374,3.163,3.061,4.527,4.781c-0.25,5.64,2.325,8.504,6.095,10.096
				c0.963,1.694,1.086,3.938,2.155,5.587c0.733,1.171,2.724,1.573,3.97,2.657c1.817,1.57,1.975,4.424,3.186,5.588
				c1.035,0.967,2.68,0.203,3.992,1.067c1.999,1.286,1.847,4.071,3.718,5.319c1.267,0.323,2.839,0.349,3.975,0.773
				c1.416,0.64,1.19,2.906,2.683,3.464c4.174-0.957,6.346,0.633,7.965,2.916c3.297-1.371,6.075,2.805,9.292,2.675
				c2.141-0.098,3.103-1.821,4.524-1.338c2.073,0.704,1.644,4.581,4.532,3.724h0.246c0.454-0.612,2.023-0.105,2.941-0.263
				c0.654-0.22-0.313-2.1,0.776-1.862c1.296-0.131,3.114,0.271,3.996-0.261c1.972,4.38,8.152,0.662,10.632-0.808
				c1.646,0.656,2.4,1.34,3.992,1.34c3.138-0.042,5.108-4.15,8.501-2.406c2.456-2.227,5.432-3.938,6.63-7.43
				c4.905-0.515,9.355-5.057,13.303-8.777c6.882-6.507,11.459-13.74,15.157-23.127c2.479-6.372,5.64-12.694,3.968-20.181
				c0.531-0.706,2.305-0.183,2.405-1.349c-0.18-2.604-3.362-4.523-2.937-6.904c0.303-1.592,2.23-1.031,2.122-3.179
				c-1.842-1.168-1.619-4.405-2.899-6.126c1.104-1.976-0.079-4.169-0.286-6.37c4.603-0.026,9.559-1.629,12.503,1.058
				c6.52-3.035,13.147-5.968,20.186-8.506c-0.237,11.517,3.746,17.64,13.559,18.349c9.784,0.705,21.648-3.544,29.242-5.062
				c4.324,4.354,8.442,7.692,15.15,9.311c6.275,1.518,12.975,3.745,20.716,3.713c28.154-0.073,50.112-18.888,51.559-44.896
				C567.703,352.729,551.789,336.185,532.42,328.037 M218.002,342.404c-0.524-3.031,1.646-3.308,2.149-5.333
				c0.257,0,0.309,0.226,0.535,0.28l0.655-0.937l0.937-0.664v-0.525c1.212,0.173,1.645-0.485,2.126-1.065
				c-0.13-0.938-1.167-0.532-0.534-1.592c0.833-0.708,2.048,0.528,2.663-0.531c-0.289-0.717-1.625-0.333-1.603-1.34
				c0.587-1.243,1.393-0.989,2.658-0.533c0.23-1.497-1.315-1.624-0.531-2.91c0.913-0.224,1.019,0.376,1.844,0.252
				c0.59-0.884-1.083-1.364,0-2.371c0.762-0.233,0.688,0.366,1.348,0.248c0.423-0.248,0.272-1.113,0.526-1.591
				c2.353,0.139,4.274-0.158,6.376-0.255c0.201,4.229,1.232,7.606,1.062,12.213c-0.382,0.156-0.655,0.404-0.815,0.82l0.686,1.088
				l-0.144,1.283c1.083,0.179,1.518-0.253,2.396-0.253C234.98,341.976,225.13,346.531,218.002,342.404 M232.623,320.071
				c1.747,0.78,0.888-0.663,1.875-1.315c1.167,0.076,1.011,1.462,1.585,2.125c-0.551,0.657-1.837,0.63-2.931,0.78
				C233.007,321.101,232.499,320.904,232.623,320.071 M242.992,347.193c-1.993-0.338-3.995-0.64-6.112-0.809
				c1.588-0.818,3.934-0.841,5.862-1.322C242.541,346.052,243.175,346.2,242.992,347.193 M242.742,271.452
				c-5.183,2.578-8.7,6.875-6.66,13.275c0.366,1.096,1.248,2.3,1.317,3.443c0.16,2.175-1.786,4.146-1.587,6.116
				c-1.191,0.237-2.375,0.456-3.444,0.817c-0.605,0.098-0.095,1.287-0.274,1.843c-1.597-0.33-2.204-1.692-3.192-2.66
				c0.026-7.611-2.275-14.766-1.844-21.517c0.605-9.89,9.16-13.564,18.875-14.875h0.248
				C246.434,261.562,243.933,267.301,242.742,271.452 M413.871,290.046c0.428,0.558,0.888,1.084,1.064,1.866
				c-0.607,0.079-0.985,0.403-1.847,0.255C413.015,291.13,413.646,290.802,413.871,290.046 M383.595,242.463
				c3.769,1.787,10.35,8.043,12.745,11.701c2.537,3.856,4.356,9.174,6.655,13.818c2.379,4.892,5.111,9.361,6.373,14.088
				c3.745,14.146-9.51,12.504-22.331,12.504c-6.398,0-12.73,0.529-17.815,0.247c-0.451-0.654-0.253-3.388-0.524-4.497
				c-1.675-6.879-10.171-12.35-17.812-9.84c-1.85,0.602-3.644,2.168-5.034,3.44c-1.293,1.186-2.18,3.464-4.527,3.722
				c4.248-15.688,9.002-30.846,11.968-47.841C363.506,239.828,376.157,238.941,383.595,242.463 M336.016,295.103
				c-0.916-0.08-2.159,0.201-2.663-0.282c2.353-18.896,9.819-35.004,12.499-54.489c-0.232-1.544,2.174-0.455,3.185-0.782
				C346.386,259.461,339.479,275.425,336.016,295.103 M357,229.991c2.132,1.77,5.066,2.732,6.908,4.774
				c-3.075,0.082-5.964-0.052-8.748-0.278C355.56,232.773,356.526,231.603,357,229.991 M351.167,226.805
				c0.678,0.883,1.918,1.258,2.652,2.118c-0.404,1.979-1.189,3.598-2.119,5.044c-12.808,0.824-21.659-4.566-31.902-7.162
				C330.016,225.968,340.562,227.108,351.167,226.805 M328.578,233.427c-3.721,0.81-8.536,0.382-9.034-2.903
				C322.472,231.561,325.841,232.164,328.578,233.427 M320.071,238.744c7.536-0.103,14.804,0.076,21.79,0.528
				c-0.641,10.846-4.081,19.296-6.378,28.989c-1.821,7.715-3.523,15.352-6.376,22.309c-2.302-14.162-3.034-29.92-16.47-32.954
				c-0.331-3.752-1.976-8.281-0.529-11.693C313.017,243.748,318.787,240.989,320.071,238.744 M324.574,288.45
				c-6.497-5.975-8.47-16.492-10.622-26.838C322.684,265.355,323.847,276.707,324.574,288.45 M306.518,255.765
				c-0.996,0-1.556-0.405-2.123-0.809c-0.028-1.343,0.906-1.72,1.31-2.655C307.025,252.4,306.339,254.526,306.518,255.765
				 M307.828,260.019c1.572,6.243,3.168,12.444,4.28,19.118c-2.935-2.654-2.866-7.507-4.781-10.875
				c-1.495-2.555-4.001-2.859-6.12-4.809c0.049-1.691,0.755-2.755,0.779-4.497C304.242,259.001,305.76,259.787,307.828,260.019
				 M265.586,240.615c5.616-4.858,11.481-10.143,17.527-14.877c3.186,0.353,7.466,0.504,11.186,0.785
				c3.562,0.253,7.838-0.026,10.879,0.808c4.596,1.243,7.54,5.972,11.175,7.696c-2.246,1.362-4.784,2.683-6.389,4.778
				c-1.524,2.023-2.051,4.98-3.723,6.928c-0.804,0.938-2.153,1.295-2.914,2.133c-1.364,1.463-1.615,3.082-2.929,4.501
				c-8.452-7.139-24.745-6.429-39.593-7.157C261.034,243.476,263.791,242.157,265.586,240.615 M259.212,249.919
				c15.527,0.058,31.465-0.303,39.585,7.164c0.131,2.432-0.888,3.743-1.847,5.058c-3.288-0.354-3.993-3.265-5.871-5.058
				c-9.605-0.182-19.297-2.485-27.896,0c0.452,2.097-1.492,6.017-0.78,9.3c0.325,1.499,1.18,2.411,2.125,3.47
				c0.023,0.807-0.842,0.753-0.535,1.85c0.784,2.224,3.889,2.124,3.995,5.054c-2.884-1.567-6.683-2.2-9.585-3.717
				c2.479-3.896-1.245-5.386-5.312-5.059C255.063,261.891,257.314,256.066,259.212,249.919 M303.326,421.057
				c-0.759-6.459,1.12-12.479,2.914-17.256c4.422,2.574,8.514,5.467,12.772,8.221C320.786,421.057,310.36,419.995,303.326,421.057
				 M317.671,447.384c-4.837-4.116-9.538-8.347-11.689-15.147c5.014-1.999,15.333-7.262,17.812-0.816
				C326.049,437.286,318.557,442.276,317.671,447.384 M313.952,395.021c3.191-3.72,10.17-5.059,16.75-4.528
				c-0.125,3.867,0.15,7.312,0.254,10.9c-1.7,0.76-3.189,1.777-5.039,2.407C322.251,400.542,316.632,399.247,313.952,395.021
				 M328.294,452.703c1.981-6.451,2.178-17.767,10.37-17.029c1.898,5.213,3.872,10.296,5.599,15.683
				C340.694,453.512,333.353,453.684,328.294,452.703 M354.344,442.328c-4.191-1.492-3.937-7.41-6.366-10.624
				c2.378-2.582,4.908-5.015,6.628-8.248c1.645-0.047,2.631,0.581,4.276,0.532C358.979,430.665,358.298,438.833,354.344,442.328
				 M398.721,391.302c-2.353-9.338-7.692-15.706-13.532-21.529c-0.047-0.832,0.631-1.483,0-2.12
				c-6.121-8.243-18.771-13.081-30.306-16.746c-4.018-1.292-7.918-3.24-11.688-3.999c-2.653-0.5-5.717-0.328-8.494-0.524
				c-14.679-1.048-23.381,3.812-33.247,9.299c-3.261,1.83-6.923,3.269-8.216,5.591c-3.229,1.819-6.002,5.013-8.78,8.226
				c-2.575,2.982-6.07,6.349-7.432,9.562c-0.389,0.915-0.177,1.77-0.284,2.682c-9.943-1.439-19.856-3.516-29.748-5.338
				c-3.19-0.557-6.625-0.707-9.312-2.379c3.192-3.648,7.969-5.668,11.967-8.498c2.052,6.126,7.796,8.851,14.88,11.152
				c2.469,0.812,6.423,2.885,8.24,2.656c1.419-0.173,3.538-3.438,5.309-5.589c7.956-9.687,16.898-19.78,29.751-24.708
				c7.314-2.787,15.639-5.192,25.8-4.512c17.108,1.138,35.473,5.412,45.156,13.813c3.6,3.107,7.209,7.61,10.371,11.969
				c4.383,6.018,8.097,11.607,10.096,19.653c3.972-0.938,7.212-1.087,11.436-1.85c0.156,2.403,0.613,4.525,0.535,7.166
				C406.815,394.205,403.328,392.209,398.721,391.302 M366.852,326.727c-16.624-9.897-33.117-20.011-49.18-30.303
				c1.978-0.408,3.34-1.452,4.781-2.384c32.485,21.126,64.352,42.829,96.73,64.049C402.514,348.579,384.324,337.123,366.852,326.727
				 M435.401,389.963c-5.412,3.008-9.891,6.542-17.524,7.434c-0.185-3.996-1.171-7.153-1.346-11.156
				c7.812-0.852,16.899-3.159,24.457-4.241c2.135-0.304,3.677,1.082,5.567,1.343C443.17,385.911,439.278,387.812,435.401,389.963
				 M444.71,412.553c-3.842-3.313-6.121-15.127-1.062-18.868c5.715,2.275,12.54,3.413,19.123,4.773
				c-0.205,4.481,0.409,8.123,0.278,12.498C457.588,412.021,451.365,413.543,444.71,412.553 M508.232,349.842
				c0.301,3.161,1.009,5.892,1.061,9.307c-0.837-0.499-1.518-1.161-1.875-2.12c0.206-0.786,0.081-1.899,0.814-2.144
				C507.251,353.913,505.247,350.147,508.232,349.842 M493.611,375.619c-0.26-2.402,0.373-3.872,1.34-5.061
				c1.746,1.373,3.063,3.144,3.966,5.313C497.631,375.319,495.327,375.772,493.611,375.619 M510.354,396.078
				c-4.909-0.931-10.548-3.46-13.556-7.176c1.389-5.286,8.246-1.091,13.03-1.318C510.506,389.935,512.459,394.117,510.354,396.078
				 M522.321,369.772c-0.329-1.206,0.94-0.832,1.066-1.593l-0.514-1.154l-0.301-1.245c-0.882,0.075-1.821,0.966-2.656,0.273
				c-0.556-0.55,0.334-1.03,0.527-1.59l-1.052-0.816l-0.795-1.053c-2.22,1.238-4.297-0.833-6.372-1.32
				c-0.222-3.865-0.554-7.613-0.812-11.433c6.89,0.556,11.262,3.642,14.873,7.435l0.814,1.064l0.788,1.068
				c0.956-0.89,2.226,0.881,1.589,1.586l0.939,0.663l0.661,0.937c2.142,1.238,2.755,3.997,3.182,6.905
				C531.124,368.92,526.166,370.378,522.321,369.772 M524.698,392.618c-0.584-3.114-0.531-6.884-0.531-10.619
				c2.763,0.882,4.959,2.297,7.445,3.46C530.264,388.772,527.531,390.767,524.698,392.618 M534.261,377.748
				c-3.638-0.584-7.057-1.445-9.562-3.189c2.833-0.709,7.813-2.834,10.09-0.811C534.947,375.415,534.388,376.357,534.261,377.748"/>
			
				<line fill="#FFF200" stroke="#231F20" stroke-width="4" stroke-miterlimit="10" x1="236.083" y1="356.471" x2="223.341" y2="354.089"/>
			<line display="none" fill="#FFFFFF" x1="255.179" y1="307.828" x2="243.282" y2="305.604"/>
		</g>
		<text transform="matrix(1 0 0 1 -178.3799 87.5439)" display="none"><tspan x="0" y="0" display="inline" fill="#231F20" font-family="'Banco'" font-size="66.1007">SUN</tspan><tspan x="121.358" y="0" display="inline" fill="#231F20" font-family="'Banco'" font-size="66.1007">B</tspan><tspan x="160.754" y="0" display="inline" fill="#231F20" font-family="'Banco'" font-size="66.1007">UGG</tspan><tspan x="279.535" y="0" display="inline" fill="#231F20" font-family="'Banco'" font-size="66.1007">Y</tspan></text>
	</g>
</g>
</svg>
